<svg xmlns="http://www.w3.org/2000/svg" xmlns:xlink="http://www.w3.org/1999/xlink" xml:space="preserve" width="491" height="291" fill="none" stroke-linecap="square" stroke-miterlimit="10"><defs><radialGradient id="n" cx="240.613" cy="36.807" r="170.021" fx="240.613" fy="36.807" gradientTransform="matrix(.0895 0 0 .08981 18.211 54.466)" gradientUnits="userSpaceOnUse"><stop offset=".1" stop-color="#ffe226"/><stop offset=".79" stop-color="#ff7139"/></radialGradient><radialGradient id="d" cx="226.563" cy="290.178" r="554.146" fx="226.563" fy="290.178" gradientTransform="matrix(.0994 0 0 .08086 18.211 54.466)" gradientUnits="userSpaceOnUse"><stop offset=".3" stop-color="#960e18"/><stop offset=".35" stop-color="#b11927" stop-opacity=".74"/><stop offset=".43" stop-color="#db293d" stop-opacity=".34"/><stop offset=".5" stop-color="#f5334b" stop-opacity=".09"/><stop offset=".53" stop-color="#ff3750" stop-opacity="0"/></radialGradient><radialGradient id="f" cx="395.444" cy="-17.973" r="210.21" fx="395.444" fy="-17.973" gradientTransform="matrix(.0688 0 0 .11681 18.211 54.466)" gradientUnits="userSpaceOnUse"><stop offset=".13" stop-color="#fff44f"/><stop offset=".53" stop-color="#ff980e"/></radialGradient><radialGradient id="h" cx="206.271" cy="373.24" r="223.497" fx="206.271" fy="373.24" gradientTransform="matrix(.08563 0 0 .09385 18.211 54.466)" gradientUnits="userSpaceOnUse"><stop offset=".35" stop-color="#3a8ee6"/><stop offset=".67" stop-color="#9059ff"/><stop offset="1" stop-color="#c139e6"/></radialGradient><radialGradient id="j" cx="271.621" cy="200.902" r="131.863" fx="271.621" fy="200.902" gradientTransform="matrix(.08563 0 0 .09385 18.211 54.466)" gradientUnits="userSpaceOnUse"><stop offset=".21" stop-color="#9059ff" stop-opacity="0"/><stop offset=".97" stop-color="#6e008b" stop-opacity=".6"/></radialGradient><radialGradient id="m" cx="392.807" cy="61.16" r="554.146" fx="392.807" fy="61.16" gradientTransform="matrix(.0994 0 0 .08086 18.211 54.466)" gradientUnits="userSpaceOnUse"><stop offset=".13" stop-color="#ffbd4f"/><stop offset=".28" stop-color="#ff980e"/><stop offset=".47" stop-color="#ff3750"/><stop offset=".78" stop-color="#eb0878"/><stop offset=".86" stop-color="#e50080"/></radialGradient><radialGradient id="o" cx="362.075" cy="-81.709" r="742.387" fx="362.075" fy="-81.709" gradientTransform="matrix(.09785 0 0 .08214 18.211 54.466)" gradientUnits="userSpaceOnUse"><stop offset=".11" stop-color="#fff44f"/><stop offset=".46" stop-color="#ff980e"/><stop offset=".72" stop-color="#ff3647"/><stop offset=".9" stop-color="#e31587"/></radialGradient><radialGradient id="p" cx="475.588" cy="-41.588" r="779.909" fx="475.588" fy="-41.588" gradientTransform="matrix(.0617 0 0 .13027 18.211 54.466)" gradientUnits="userSpaceOnUse"><stop offset="0" stop-color="#fff44f"/><stop offset=".3" stop-color="#ff980e"/><stop offset=".57" stop-color="#ff3647"/><stop offset=".74" stop-color="#e31587"/></radialGradient><radialGradient id="q" cx="239.797" cy="99.006" r="461.114" fx="239.797" fy="99.006" gradientTransform="matrix(.09045 0 0 .08886 18.211 54.466)" gradientUnits="userSpaceOnUse"><stop offset=".14" stop-color="#fff44f"/><stop offset=".48" stop-color="#ff980e"/><stop offset=".66" stop-color="#ff3647"/><stop offset=".9" stop-color="#e31587"/></radialGradient><radialGradient id="r" cx="343.038" cy="132.012" r="528.893" fx="343.038" fy="132.012" gradientTransform="matrix(.09478 0 0 .0848 18.211 54.466)" gradientUnits="userSpaceOnUse"><stop offset=".09" stop-color="#fff44f"/><stop offset=".63" stop-color="#ff980e"/></radialGradient><radialGradient xlink:href="#a" id="i" cx="413.061" cy="136.818" r="82.125" fx="413.061" fy="136.818" gradientTransform="matrix(.3019 0 0 .3019 34.857 32.74)" gradientUnits="userSpaceOnUse"/><linearGradient id="l" x1="441.984" x2="62.126" y1="75.631" y2="454.269" gradientTransform="matrix(.0882 0 0 .09113 18.211 54.466)" gradientUnits="userSpaceOnUse"><stop offset=".05" stop-color="#fff44f"/><stop offset=".37" stop-color="#ff980e"/><stop offset=".53" stop-color="#ff3647"/><stop offset=".7" stop-color="#e31587"/></linearGradient><linearGradient id="s" x1="406.611" x2="104.093" y1="68.312" y2="409.866" gradientTransform="matrix(.0882 0 0 .09113 18.211 54.466)" gradientUnits="userSpaceOnUse"><stop offset=".17" stop-color="#fff44f" stop-opacity=".8"/><stop offset=".6" stop-color="#fff44f" stop-opacity="0"/></linearGradient><linearGradient id="t" x1="3.217" x2="44.781" y1="15" y2="15" gradientTransform="translate(520.505 179.35)scale(.92384)" gradientUnits="userSpaceOnUse"><stop offset="0" stop-color="#d93025"/><stop offset="1" stop-color="#ea4335"/></linearGradient><linearGradient id="u" x1="20.722" x2="41.504" y1="47.679" y2="11.684" gradientTransform="translate(520.505 179.35)scale(.92384)" gradientUnits="userSpaceOnUse"><stop offset="0" stop-color="#fcc934"/><stop offset="1" stop-color="#fbbc04"/></linearGradient><linearGradient id="v" x1="26.598" x2="5.816" y1="46.501" y2="10.506" gradientTransform="translate(520.505 179.35)scale(.92384)" gradientUnits="userSpaceOnUse"><stop offset="0" stop-color="#1e8e3e"/><stop offset="1" stop-color="#34a853"/></linearGradient><linearGradient id="a"><stop offset="0" stop-color="#06c2e7"/><stop offset=".25" stop-color="#0db8ec"/><stop offset=".5" stop-color="#12aef1"/><stop offset=".75" stop-color="#1f86f9"/><stop offset="1" stop-color="#107ddd"/></linearGradient><linearGradient id="c"><stop offset="0" stop-color="#bdbdbd"/><stop offset="1" stop-color="#fff"/></linearGradient><linearGradient xlink:href="#c" id="g" x1="412.975" x2="412.975" y1="237.608" y2="59.392" gradientTransform="matrix(.27825 0 0 .27825 44.55 36.058)" gradientUnits="userSpaceOnUse"/><filter id="k" width="1.043" height="1.045" x="-.022" y="-.022" color-interpolation-filters="sRGB"><feGaussianBlur stdDeviation=".958"/></filter><filter id="e" width="1.096" height="1.096" x="-.048" y="-.048" color-interpolation-filters="sRGB"><feGaussianBlur stdDeviation="3.564"/></filter></defs><path fill="#fff" fill-rule="evenodd" d="M.5.5h489.921v289.354H.5Z"/><path stroke="#595959" stroke-linecap="butt" stroke-linejoin="round" d="M.5.5h489.921v289.354H.5Z"/><path fill="#000" d="M171.71 20.92q0-3.328 1.781-5.203 1.782-1.89 4.61-1.89 1.843 0 3.328.89 1.484.875 2.265 2.469.782 1.578.782 3.578 0 2.031-.828 3.64-.813 1.594-2.313 2.422t-3.25.828q-1.875 0-3.36-.906-1.484-.922-2.25-2.5-.765-1.578-.765-3.328m1.813.016q0 2.421 1.296 3.812 1.297 1.39 3.266 1.39 2 0 3.281-1.406t1.282-3.984q0-1.625-.547-2.844t-1.61-1.875q-1.062-.672-2.375-.672-1.89 0-3.25 1.297-1.343 1.282-1.343 4.282m13.027 10.187V17.748h1.484v1.25q.531-.734 1.187-1.094.672-.375 1.625-.375 1.235 0 2.172.641.953.625 1.438 1.797.484 1.156.484 2.547 0 1.484-.531 2.672-.531 1.187-1.547 1.828-1.016.625-2.14.625-.813 0-1.47-.344-.656-.344-1.062-.875v4.703zm1.484-8.484q0 1.86.75 2.765.766.891 1.828.891 1.094 0 1.875-.922.781-.937.781-2.875 0-1.844-.765-2.766-.75-.921-1.813-.921-1.047 0-1.86.984-.796.969-.796 2.844m15.516 1.672 1.688.203q-.406 1.484-1.485 2.312-1.078.813-2.765.813-2.125 0-3.375-1.297-1.235-1.313-1.235-3.672 0-2.453 1.25-3.797 1.266-1.344 3.266-1.344 1.938 0 3.156 1.328 1.235 1.313 1.235 3.704v.437h-7.22q.095 1.594.907 2.453.813.844 2.016.844.906 0 1.547-.469.64-.484 1.015-1.515m-5.39-2.657h5.406q-.11-1.218-.625-1.828-.781-.953-2.031-.953-1.125 0-1.907.766-.765.75-.843 2.015m9.125 5.766v-9.672h1.47v1.469q.562-1.031 1.03-1.36.485-.328 1.063-.328.828 0 1.687.532l-.562 1.515q-.61-.36-1.203-.36-.547 0-.969.329-.422.328-.61.89-.28.876-.28 1.922v5.063zm12.541-1.188q-.922.766-1.765 1.094-.829.313-1.797.313-1.594 0-2.453-.782-.86-.78-.86-1.984 0-.719.328-1.297.328-.594.844-.937.531-.36 1.188-.547.468-.125 1.453-.25 1.984-.235 2.922-.563.015-.343.015-.422 0-1-.469-1.421-.625-.547-1.875-.547-1.156 0-1.703.406t-.812 1.422l-1.61-.219q.22-1.016.72-1.64.5-.641 1.452-.985.953-.344 2.188-.344 1.25 0 2.015.297.782.281 1.141.735.375.437.516 1.109.078.422.078 1.516v2.187q0 2.281.11 2.89.109.594.405 1.157h-1.703q-.265-.516-.328-1.188m-.14-3.671q-.891.375-2.672.625-1.016.14-1.438.328-.422.187-.656.531-.219.344-.219.781 0 .656.5 1.094.5.437 1.453.437.938 0 1.672-.406.75-.422 1.094-1.14.266-.563.266-1.641zm7.782 3.39.234 1.453q-.688.141-1.234.141-.891 0-1.391-.281-.484-.282-.688-.735-.203-.468-.203-1.937v-5.578h-1.203v-1.266h1.203v-2.39l1.625-.985v3.375h1.657v1.266h-1.657v5.672q0 .687.078.89.094.203.282.328.203.11.578.11.265 0 .719-.063m1.605-10v-1.89h1.64v1.89zm0 11.469v-9.672h1.64v9.672zm4.145 0v-9.672h1.468v1.375q1.063-1.594 3.078-1.594.875 0 1.61.313.734.312 1.094.828.375.5.515 1.203.094.453.094 1.594v5.953h-1.64v-5.89q0-1-.204-1.485-.187-.5-.672-.797-.484-.297-1.14-.297-1.047 0-1.813.672-.75.656-.75 2.516v5.281zm10.063.797 1.593.234q.11.75.563 1.078.61.453 1.672.453 1.14 0 1.75-.453.625-.453.844-1.265.125-.5.109-2.11-1.063 1.266-2.672 1.266-2 0-3.094-1.438t-1.093-3.453q0-1.39.5-2.562.515-1.172 1.453-1.797.953-.64 2.25-.64 1.703 0 2.812 1.374v-1.156h1.516v8.36q0 2.265-.469 3.203-.453.937-1.453 1.484-.984.547-2.453.547-1.719 0-2.797-.781-1.063-.766-1.031-2.344m1.36-5.813q0 1.907.75 2.782.765.875 1.905.875 1.125 0 1.891-.86.766-.875.766-2.734 0-1.781-.797-2.672-.782-.906-1.89-.906-1.095 0-1.86.89-.766.875-.766 2.625zm14.12.72 1.657-.142q.125 1 .547 1.641.437.64 1.343 1.047.922.39 2.063.39 1 0 1.781-.296.781-.297 1.156-.813.375-.531.375-1.156t-.375-1.094q-.359-.469-1.187-.797-.547-.203-2.39-.64-1.829-.453-2.563-.844-.969-.5-1.438-1.234-.468-.75-.468-1.672 0-1 .578-1.875.578-.89 1.672-1.344 1.109-.453 2.453-.453 1.484 0 2.61.484 1.14.469 1.75 1.406.608.922.655 2.094l-1.687.125q-.14-1.265-.938-1.906-.78-.656-2.312-.656-1.61 0-2.344.593-.734.594-.734 1.422 0 .72.531 1.172.5.469 2.656.969 2.156.484 2.953.844 1.172.531 1.72 1.36.562.827.562 1.905 0 1.063-.61 2.016-.61.937-1.75 1.469-1.14.515-2.578.515-1.812 0-3.047-.53-1.219-.532-1.922-1.595-.687-1.062-.718-2.406zm12.757 8.015-.188-1.532q.547.141.938.141.547 0 .875-.187.328-.172.547-.5.156-.25.5-1.22.046-.14.14-.405l-3.672-9.688h1.766l2.016 5.594q.39 1.078.703 2.25.281-1.125.672-2.203l2.078-5.64h1.64l-3.687 9.827q-.594 1.61-.922 2.203-.438.813-1 1.188t-1.344.375q-.484 0-1.062-.203m8.75-6.61 1.625-.25q.125.97.75 1.5.625.516 1.75.516t1.672-.453q.546-.469.546-1.094 0-.547-.484-.875-.328-.219-1.672-.547-1.812-.469-2.515-.797-.688-.328-1.047-.906-.36-.594-.36-1.312 0-.641.297-1.188.297-.562.813-.922.375-.281 1.031-.469.672-.203 1.422-.203 1.14 0 2 .328.86.329 1.265.891.422.563.579 1.5l-1.61.219q-.11-.75-.64-1.172-.516-.422-1.47-.422-1.14 0-1.624.375-.469.375-.469.875 0 .313.188.578.203.266.64.438.235.093 1.438.422 1.75.453 2.437.75.688.296 1.078.859t.391 1.406q0 .828-.484 1.547-.47.719-1.375 1.125-.907.39-2.047.39-1.875 0-2.875-.78-.985-.782-1.25-2.329m13.562 1.422.235 1.453q-.688.141-1.235.141-.89 0-1.39-.281-.485-.282-.688-.735-.203-.468-.203-1.937v-5.578h-1.203v-1.266h1.203v-2.39l1.625-.985v3.375h1.656v1.266h-1.656v5.672q0 .687.078.89.094.203.281.328.203.11.578.11.266 0 .72-.063zm8.23-1.64 1.688.203q-.406 1.484-1.485 2.312-1.078.813-2.765.813-2.125 0-3.375-1.297-1.235-1.313-1.235-3.672 0-2.453 1.25-3.797 1.266-1.344 3.266-1.344 1.938 0 3.156 1.328 1.235 1.313 1.235 3.704v.437h-7.219q.094 1.594.906 2.453.813.844 2.016.844.906 0 1.547-.469.64-.484 1.015-1.515m-5.39-2.657h5.406q-.11-1.218-.625-1.828-.781-.953-2.031-.953-1.125 0-1.907.766-.765.75-.843 2.015m9.141 5.766v-9.672h1.469v1.36q.453-.72 1.203-1.141.766-.438 1.719-.438 1.078 0 1.765.453.688.438.97 1.235 1.155-1.688 2.983-1.688 1.454 0 2.22.797.78.797.78 2.453v6.641h-1.64v-6.094q0-.984-.156-1.406-.157-.438-.579-.703-.421-.266-.984-.266-1.016 0-1.687.688-.672.672-.672 2.156v5.625h-1.64v-6.281q0-1.094-.407-1.64-.406-.548-1.313-.548-.687 0-1.28.36-.595.359-.86 1.062-.25.703-.25 2.031v5.016z"/><path d="M-409.912-78.101h894.551v60.126h-894.551z"/><path fill="#eee" fill-rule="evenodd" d="M12.382 43.088h469.89v225.228H12.382Z"/><path stroke="#595959" stroke-linecap="butt" stroke-linejoin="round" d="M12.382 43.088h469.89v225.228H12.382Z"/><path d="M19.702 54.526H62.62V98.87H19.702Zm58.135.001h44.347V98.87H77.837Zm59.567-.001h44.586v44.345h-44.586z"/><path d="M502.083 148.5a89.11 89.11 0 0 1-89.108 89.108 89.11 89.11 0 0 1-89.108-89.108 89.11 89.11 0 0 1 89.108-89.108 89.11 89.11 0 0 1 89.108 89.108" filter="url(#d)" opacity=".53" paint-order="markers stroke fill" style="filter:url(#e)" transform="matrix(.26805 0 0 .25811 48.765 41.079)"/><path fill="url(#f)" stroke="#cdcdcd" stroke-linecap="round" stroke-linejoin="round" stroke-width=".074" d="M184.253 77.378a24.794 24.794 0 0 1-24.794 24.794 24.794 24.794 0 0 1-24.794-24.794 24.794 24.794 0 0 1 24.794-24.794 24.794 24.794 0 0 1 24.794 24.794" paint-order="markers stroke fill" style="fill:url(#g)"/><path fill="url(#h)" d="M182.31 77.378a22.85 22.85 0 0 1-22.85 22.85 22.85 22.85 0 0 1-22.852-22.85 22.85 22.85 0 0 1 22.851-22.851 22.85 22.85 0 0 1 22.851 22.85" paint-order="markers stroke fill" style="fill:url(#i);stroke-width:.79151"/><path fill="#f4f2f3" d="M159.46 55.718a.33.33 0 0 0-.334.333v3.843a.334.334 0 1 0 .667 0V56.05a.33.33 0 0 0-.334-.333zm-2.18.137a.332.332 0 0 0-.365.366l.168 1.608a.333.333 0 1 0 .663-.069l-.168-1.607a.33.33 0 0 0-.298-.298m4.374.002a.33.33 0 0 0-.298.297l-.17 1.608a.333.333 0 1 0 .663.07l.17-1.608a.332.332 0 0 0-.365-.367m-6.613.323a.332.332 0 0 0-.324.402l.796 3.76a.333.333 0 1 0 .651-.138l-.795-3.76a.33.33 0 0 0-.328-.264m8.852.003a.33.33 0 0 0-.328.264l-.798 3.76a.333.333 0 1 0 .651.138l.799-3.76a.332.332 0 0 0-.324-.402m-10.989.6a.332.332 0 0 0-.346.435l.5 1.537a.333.333 0 1 0 .634-.206l-.5-1.537a.33.33 0 0 0-.288-.23zm13.114 0a.33.33 0 0 0-.289.23l-.5 1.537a.333.333 0 1 0 .634.206l.5-1.537a.332.332 0 0 0-.345-.436m-15.227.773a.332.332 0 0 0-.298.469l1.56 3.511a.334.334 0 1 0 .61-.27l-1.561-3.512a.33.33 0 0 0-.31-.198zm17.364.012a.33.33 0 0 0-.311.197l-1.566 3.51a.333.333 0 1 0 .609.271l1.565-3.51a.332.332 0 0 0-.297-.468m-19.325 1.026a.332.332 0 0 0-.312.5l.808 1.399a.333.333 0 1 0 .577-.333l-.808-1.4a.33.33 0 0 0-.265-.166m21.259 0a.33.33 0 0 0-.265.166l-.809 1.4a.334.334 0 1 0 .578.333l.808-1.4a.332.332 0 0 0-.312-.5zm-23.164 1.187a.334.334 0 0 0-.258.53l2.257 3.11a.333.333 0 1 0 .539-.391l-2.257-3.11a.33.33 0 0 0-.28-.139zm25.092.017a.33.33 0 0 0-.28.138l-2.262 3.107a.334.334 0 1 0 .54.392l2.26-3.107a.333.333 0 0 0-.258-.53m-26.794 1.411a.332.332 0 0 0-.265.556l1.082 1.201a.333.333 0 1 0 .495-.446l-1.082-1.2a.33.33 0 0 0-.23-.111m28.475.002a.33.33 0 0 0-.23.11l-1.082 1.202a.333.333 0 1 0 .495.446l1.082-1.201a.333.333 0 0 0-.265-.557m-30.106 1.565a.333.333 0 0 0-.206.58l2.856 2.572a.333.333 0 1 0 .446-.495l-2.856-2.571a.33.33 0 0 0-.24-.086m31.746.012a.33.33 0 0 0-.24.085l-2.859 2.569a.333.333 0 1 0 .446.495l2.858-2.569a.332.332 0 0 0-.205-.58m-33.103 1.733a.332.332 0 0 0-.207.603l1.307.95a.334.334 0 1 0 .392-.54l-1.308-.95a.33.33 0 0 0-.184-.063m34.458.012a.33.33 0 0 0-.184.064l-1.309.949a.334.334 0 1 0 .392.54l1.308-.95a.332.332 0 0 0-.207-.603m-35.726 1.849a.332.332 0 0 0-.143.621l3.328 1.922a.334.334 0 1 0 .333-.578l-3.328-1.921a.33.33 0 0 0-.19-.044m36.985 0a.33.33 0 0 0-.19.044l-3.328 1.922a.333.333 0 1 0 .333.577l3.328-1.922a.332.332 0 0 0-.143-.621m-37.944 1.983a.332.332 0 0 0-.142.638l1.476.659a.333.333 0 1 0 .272-.609l-1.477-.658a.3.3 0 0 0-.129-.03m38.91.014a.3.3 0 0 0-.13.03l-1.477.657a.333.333 0 1 0 .271.608l1.477-.657a.332.332 0 0 0-.142-.638zm-39.764 2.06a.332.332 0 0 0-.075.649l3.654 1.19a.333.333 0 1 0 .206-.633l-3.654-1.191a.3.3 0 0 0-.131-.015m40.616.014a.3.3 0 0 0-.132.015l-3.654 1.188a.333.333 0 1 0 .206.634l3.654-1.188a.333.333 0 0 0-.074-.65zm-41.149 2.162a.332.332 0 0 0-.071.66l1.581.335a.333.333 0 1 0 .139-.652l-1.581-.336a.3.3 0 0 0-.068-.007m41.677.003a.4.4 0 0 0-.067.007l-1.581.336a.333.333 0 1 0 .138.652l1.581-.336a.333.333 0 0 0-.07-.66zm-42.08 2.186a.332.332 0 0 0-.002.663l3.822.404a.333.333 0 1 0 .07-.663l-3.822-.404a.3.3 0 0 0-.067 0zm42.486.029a.3.3 0 0 0-.068 0l-3.822.399a.333.333 0 1 0 .07.663l3.821-.4a.332.332 0 0 0-.001-.662m-42.55 2.212a.333.333 0 1 0 0 .666h1.616a.333.333 0 1 0 0-.666zm40.995 0a.333.333 0 1 0 0 .666h1.616a.333.333 0 1 0 0-.666zm-37.046 1.816a.3.3 0 0 0-.067 0l-3.823.4a.333.333 0 1 0 .07.662l3.822-.399a.332.332 0 0 0-.002-.663m34.71.024a.332.332 0 0 0-.002.663l3.822.404a.333.333 0 1 0 .07-.663l-3.822-.404a.3.3 0 0 0-.068 0m-36.615 2.25a.3.3 0 0 0-.067.007l-1.581.336a.333.333 0 1 0 .138.652l1.581-.336a.332.332 0 0 0-.07-.659zm38.522.003a.332.332 0 0 0-.071.66l1.581.336a.333.333 0 1 0 .139-.652l-1.581-.336a.3.3 0 0 0-.068-.007zm-35.86 1.313a.3.3 0 0 0-.13.015l-3.655 1.188a.333.333 0 1 0 .206.634l3.654-1.188a.333.333 0 0 0-.074-.65zm33.194.012a.332.332 0 0 0-.075.649l3.655 1.19a.333.333 0 1 0 .206-.634l-3.654-1.19a.3.3 0 0 0-.132-.015m-34.588 2.59a.3.3 0 0 0-.13.029l-1.476.657a.333.333 0 1 0 .271.609l1.477-.658a.332.332 0 0 0-.142-.637m35.981.012a.332.332 0 0 0-.142.638l1.476.659a.333.333 0 1 0 .272-.609l-1.476-.659a.3.3 0 0 0-.13-.029m-33.105.722a.33.33 0 0 0-.19.045l-3.328 1.921a.333.333 0 1 0 .333.577l3.328-1.921a.333.333 0 0 0-.143-.622m30.235 0a.333.333 0 0 0-.143.621l3.328 1.922a.333.333 0 1 0 .333-.577l-3.328-1.921a.33.33 0 0 0-.19-.045m-31.066 2.82a.33.33 0 0 0-.184.064l-1.308.95a.333.333 0 1 0 .391.538l1.308-.949a.332.332 0 0 0-.207-.603m31.888.011a.333.333 0 0 0-.207.603l1.308.95a.334.334 0 1 0 .392-.54l-1.308-.949a.33.33 0 0 0-.184-.064Zm-28.924.115a.33.33 0 0 0-.24.086l-2.859 2.569a.333.333 0 1 0 .446.495l2.858-2.569a.332.332 0 0 0-.205-.58zm25.961.01a.334.334 0 0 0-.205.58l2.856 2.571a.333.333 0 1 0 .446-.495l-2.856-2.571a.33.33 0 0 0-.24-.085zm-23.25 2.44a.33.33 0 0 0-.281.137l-2.261 3.108a.333.333 0 1 0 .539.392l2.26-3.108a.333.333 0 0 0-.257-.529m20.528.014a.333.333 0 0 0-.258.529l2.256 3.11a.333.333 0 1 0 .54-.39l-2.257-3.111a.33.33 0 0 0-.28-.138zm-23.446.48a.33.33 0 0 0-.23.11l-1.082 1.201a.333.333 0 1 0 .495.446l1.082-1.2a.333.333 0 0 0-.265-.557m26.381.002a.332.332 0 0 0-.265.556l1.082 1.201a.333.333 0 1 0 .495-.446l-1.082-1.201a.33.33 0 0 0-.23-.11m-20.306 1.332a.33.33 0 0 0-.31.198l-1.566 3.51a.333.333 0 1 0 .608.27l1.566-3.509a.332.332 0 0 0-.298-.469m14.212.01a.333.333 0 0 0-.299.469l1.561 3.51a.334.334 0 1 0 .61-.27l-1.562-3.512a.33.33 0 0 0-.31-.198zm-16.963 1.075a.33.33 0 0 0-.266.166l-.808 1.4a.333.333 0 1 0 .577.334l.808-1.4a.332.332 0 0 0-.311-.5m19.735 0a.332.332 0 0 0-.312.5l.809 1.4a.333.333 0 1 0 .577-.334l-.808-1.4a.33.33 0 0 0-.266-.166m-13.499.05a.33.33 0 0 0-.327.265l-.799 3.759a.333.333 0 1 0 .652.138l.798-3.759a.332.332 0 0 0-.324-.402zm7.25.003a.332.332 0 0 0-.324.402l.796 3.76a.333.333 0 1 0 .652-.138l-.796-3.76a.33.33 0 0 0-.327-.264zm-3.619.38a.33.33 0 0 0-.333.332v3.843a.334.334 0 1 0 .667 0v-3.843a.33.33 0 0 0-.334-.333zm-6.115 1.24a.33.33 0 0 0-.289.23l-.5 1.537a.333.333 0 1 0 .634.206l.5-1.537a.332.332 0 0 0-.345-.435zm12.228.002a.333.333 0 0 0-.346.435l.5 1.537a.333.333 0 1 0 .634-.206l-.5-1.537a.33.33 0 0 0-.288-.23zm-8.204.856a.33.33 0 0 0-.299.297l-.168 1.607a.333.333 0 1 0 .663.07l.168-1.608a.332.332 0 0 0-.364-.366m4.17.002a.332.332 0 0 0-.365.366l.168 1.608a.33.33 0 0 0 .366.296.33.33 0 0 0 .296-.366l-.167-1.607a.33.33 0 0 0-.299-.297z" paint-order="markers stroke fill"/><path d="m469.096 100.607-65.51 38.061-41.42 65.207 60.595-44.882z" filter="url(#j)" opacity=".409" paint-order="markers stroke fill" style="filter:url(#k)" transform="translate(44.55 36.057)scale(.27825)"/><path fill="#ff5150" d="m162.072 80.113-5.225-5.471 18.534-12.468z" paint-order="markers stroke fill"/><path fill="#f1f1f1" d="m162.072 80.113-5.225-5.471-13.31 17.939z" paint-order="markers stroke fill"/><path d="m143.538 92.581 18.534-12.468 13.31-17.94z" opacity=".243"/><path fill="#ffe599" fill-rule="evenodd" d="M23.534 133.891h207.37v116.567H23.534Z"/><path stroke="#595959" stroke-linecap="butt" stroke-linejoin="round" d="M23.534 133.891h207.37v116.567H23.534Z"/><path fill="#000" d="m91.238 156.514 1.656-.14q.125 1 .547 1.64.437.64 1.344 1.047.922.39 2.062.39 1 0 1.781-.296.782-.297 1.157-.813.375-.53.375-1.156t-.375-1.094q-.36-.468-1.188-.797-.547-.203-2.39-.64-1.829-.453-2.563-.844-.969-.5-1.437-1.234-.47-.75-.47-1.672 0-1 .579-1.875.578-.89 1.672-1.344 1.11-.453 2.453-.453 1.484 0 2.61.484 1.14.47 1.75 1.407.609.921.656 2.093l-1.688.125q-.14-1.265-.937-1.906-.782-.656-2.313-.656-1.61 0-2.344.594-.734.593-.734 1.421 0 .72.531 1.172.5.47 2.656.97 2.157.483 2.954.843 1.171.531 1.718 1.36.563.827.563 1.905 0 1.063-.61 2.016-.609.938-1.75 1.469-1.14.515-2.578.515-1.812 0-3.047-.53-1.218-.532-1.921-1.595-.688-1.062-.72-2.406zm19.146 3.11q-.921.765-1.765 1.093-.828.313-1.797.313-1.594 0-2.453-.781-.86-.782-.86-1.985 0-.719.329-1.297.328-.593.843-.937.532-.36 1.188-.547.469-.125 1.453-.25 1.984-.234 2.922-.563.015-.343.015-.421 0-1-.468-1.422-.625-.547-1.875-.547-1.157 0-1.703.406-.547.406-.813 1.422l-1.61-.219q.22-1.015.72-1.64.5-.641 1.453-.985t2.187-.344q1.25 0 2.016.297.78.282 1.14.735.375.437.516 1.11.078.42.078 1.515v2.187q0 2.281.11 2.89.109.595.406 1.157h-1.703q-.266-.516-.329-1.187m-.14-3.672q-.89.375-2.672.625-1.016.14-1.438.328-.421.187-.656.531-.219.344-.219.781 0 .657.5 1.094t1.454.438q.937 0 1.671-.407.75-.422 1.094-1.14.266-.563.266-1.64zm4.204 4.86v-9.673h1.468v1.375q1.063-1.594 3.079-1.594.875 0 1.609.313.734.312 1.094.828.375.5.515 1.203.094.453.094 1.594v5.953h-1.64v-5.89q0-1-.204-1.485-.187-.5-.672-.797-.484-.297-1.14-.297-1.047 0-1.813.672-.75.656-.75 2.516v5.281zm16.641 0v-1.22q-.906 1.438-2.703 1.438-1.156 0-2.125-.64-.969-.641-1.5-1.782-.531-1.14-.531-2.625 0-1.453.484-2.625.484-1.188 1.438-1.813.968-.625 2.171-.625.875 0 1.547.375.688.36 1.11.954v-4.797h1.64v13.36zm-5.172-4.83q0 1.86.781 2.782.782.922 1.844.922 1.078 0 1.828-.875.75-.89.75-2.687 0-1.985-.765-2.907-.766-.937-1.89-.937-1.08 0-1.813.89-.735.891-.735 2.813zm10.782 4.83h-1.516v-13.36h1.641v4.765q1.047-1.297 2.656-1.297.891 0 1.688.36t1.312 1.015q.516.641.797 1.563.297.922.297 1.969 0 2.484-1.234 3.843-1.219 1.36-2.953 1.36-1.704 0-2.688-1.438zm-.016-4.907q0 1.734.485 2.515.765 1.266 2.094 1.266 1.078 0 1.859-.937t.781-2.782q0-1.89-.75-2.797-.75-.906-1.828-.906-1.062 0-1.86.938-.78.937-.78 2.703zm8.282.062q0-2.687 1.485-3.968 1.25-1.079 3.047-1.079 2 0 3.265 1.313 1.266 1.297 1.266 3.61 0 1.859-.563 2.937-.562 1.062-1.64 1.656-1.063.594-2.328.594-2.032 0-3.282-1.297-1.25-1.313-1.25-3.766m1.688 0q0 1.86.797 2.797.812.922 2.047.922 1.218 0 2.031-.922.812-.937.812-2.844 0-1.796-.812-2.718t-2.031-.922q-1.235 0-2.047.922-.797.906-.797 2.765m8.204 4.844 3.531-5.031-3.266-4.64h2.047l1.485 2.265q.422.64.672 1.078.406-.594.734-1.063l1.64-2.28h1.954l-3.344 4.546 3.594 5.125h-2.016l-1.984-3-.516-.812-2.547 3.812z"/><path fill="#9fc5e8" fill-rule="evenodd" d="M33.165 179.419h188.788v44.346H33.165Z"/><path stroke="#595959" stroke-linecap="butt" stroke-linejoin="round" d="M33.165 179.419h188.788v44.346H33.165Z"/><path fill="#000" d="M57.762 206.339v-13.36h1.64v4.797q1.141-1.328 2.891-1.328 1.079 0 1.86.422.797.422 1.14 1.172.344.75.344 2.172v6.125h-1.64v-6.125q0-1.235-.532-1.797-.531-.563-1.515-.563-.72 0-1.36.39-.64.376-.922 1.016-.265.641-.265 1.782v5.297zm13.954-1.47.234 1.454q-.687.14-1.234.14-.89 0-1.39-.28-.485-.282-.688-.735-.203-.469-.203-1.938v-5.578h-1.203v-1.265h1.203v-2.39l1.625-.985v3.375h1.656v1.265H70.06v5.672q0 .688.078.89.094.204.281.329.203.11.578.11.266 0 .719-.063zm5.183 0 .235 1.454q-.688.14-1.235.14-.89 0-1.39-.28-.485-.282-.688-.735-.203-.469-.203-1.938v-5.578h-1.203v-1.265h1.203v-2.39l1.625-.985v3.375h1.656v1.265h-1.656v5.672q0 .688.078.89.094.204.281.329.204.11.579.11.265 0 .718-.063zm1.605 5.173v-13.375h1.485v1.25q.531-.735 1.187-1.094.672-.375 1.625-.375 1.235 0 2.172.64.953.626 1.438 1.798.484 1.156.484 2.546 0 1.485-.531 2.672t-1.547 1.828q-1.016.625-2.14.625-.813 0-1.47-.343-.656-.344-1.062-.875v4.703zm1.485-8.485q0 1.86.75 2.766.765.89 1.828.89 1.094 0 1.875-.921.781-.938.781-2.875 0-1.844-.765-2.766-.75-.922-1.813-.922-1.047 0-1.86.985-.796.968-.796 2.843m8.235 1.891 1.625-.25q.125.969.75 1.5.625.516 1.75.516t1.672-.454q.547-.468.547-1.093 0-.547-.485-.875-.328-.219-1.672-.547-1.812-.469-2.515-.797-.688-.328-1.047-.906-.36-.594-.36-1.313 0-.64.297-1.187.297-.563.813-.922.375-.281 1.031-.469.672-.203 1.422-.203 1.14 0 2 .328t1.266.89q.422.563.578 1.5l-1.61.22q-.109-.75-.64-1.172-.516-.422-1.469-.422-1.14 0-1.625.375-.469.375-.469.875 0 .312.188.578.203.265.64.437.235.094 1.438.422 1.75.453 2.437.75.688.297 1.079.86.39.562.39 1.406 0 .828-.484 1.547-.469.719-1.375 1.125-.906.39-2.047.39-1.875 0-2.875-.78-.984-.782-1.25-2.329m10.437-4.922v-1.86h1.86v1.86zm0 7.813v-1.875h1.86v1.875zm3.496.234 3.875-13.813h1.313l-3.86 13.813zm5.184 0 3.875-13.813h1.312l-3.86 13.813zm7.917-.234h-1.515v-13.36h1.64v4.766q1.047-1.297 2.656-1.297.891 0 1.688.36.797.359 1.312 1.015.516.64.797 1.563.297.921.297 1.968 0 2.485-1.234 3.844-1.219 1.36-2.953 1.36-1.703 0-2.688-1.438zm-.015-4.907q0 1.735.484 2.516.766 1.266 2.094 1.266 1.078 0 1.86-.938.78-.937.78-2.781 0-1.89-.75-2.797-.75-.906-1.828-.906-1.062 0-1.86.937-.78.938-.78 2.703m15.203 3.72q-.921.765-1.765 1.093-.828.312-1.797.312-1.594 0-2.453-.78-.86-.782-.86-1.985 0-.719.329-1.297.328-.594.843-.938.532-.359 1.188-.546.469-.125 1.453-.25 1.984-.235 2.922-.563.015-.344.015-.422 0-1-.468-1.422-.625-.547-1.875-.547-1.157 0-1.703.407-.547.406-.813 1.421l-1.61-.218q.22-1.016.72-1.64.5-.641 1.453-.985t2.187-.344q1.25 0 2.016.297.78.281 1.14.734.375.438.516 1.11.078.421.078 1.515v2.188q0 2.281.11 2.89.109.594.406 1.157h-1.703q-.266-.516-.329-1.188zm-.14-3.673q-.89.375-2.672.625-1.016.14-1.438.328t-.656.532q-.219.343-.219.78 0 .657.5 1.095t1.454.437q.937 0 1.671-.406.75-.422 1.094-1.14.266-.563.266-1.641zm4.204 4.86v-9.672h1.468v1.375q1.063-1.594 3.079-1.594.875 0 1.609.313.734.312 1.094.828.375.5.515 1.203.094.453.094 1.594v5.953h-1.64v-5.891q0-1-.204-1.484-.187-.5-.672-.797-.484-.297-1.14-.297-1.047 0-1.813.672-.75.656-.75 2.515v5.282zm10.375 0v-13.36h1.641v7.625l3.89-3.937h2.11l-3.687 3.594 4.062 6.078h-2.016l-3.203-4.954-1.156 1.126v3.828zm9.782 0v-1.875h1.875v1.875zm11.042-3.547 1.61.219q-.266 1.656-1.36 2.609-1.078.937-2.672.937-1.984 0-3.187-1.296t-1.203-3.72q0-1.577.515-2.75.516-1.171 1.579-1.75 1.062-.593 2.312-.593 1.578 0 2.578.797t1.281 2.265l-1.593.235q-.235-.969-.813-1.453-.578-.5-1.39-.5-1.235 0-2.016.89-.781.891-.781 2.813 0 1.953.75 2.844.75.875 1.953.875.969 0 1.61-.594.655-.594.827-1.828m2.407-1.297q0-2.688 1.484-3.969 1.25-1.078 3.047-1.078 2 0 3.265 1.313 1.266 1.296 1.266 3.609 0 1.86-.562 2.937-.563 1.063-1.641 1.657-1.063.593-2.328.593-2.031 0-3.281-1.296-1.25-1.313-1.25-3.766m1.687 0q0 1.86.797 2.797.812.922 2.047.922 1.219 0 2.031-.922.813-.938.813-2.844 0-1.797-.813-2.719t-2.031-.922q-1.235 0-2.047.922-.797.906-.797 2.766m9.298 4.844v-9.672h1.468v1.36q.454-.72 1.204-1.141.765-.438 1.718-.438 1.078 0 1.766.453.687.438.969 1.234 1.156-1.687 2.984-1.687 1.453 0 2.219.797.781.797.781 2.453v6.64h-1.64v-6.093q0-.985-.157-1.406-.156-.438-.578-.704t-.984-.265q-1.016 0-1.688.687-.672.672-.672 2.157v5.625h-1.64v-6.282q0-1.093-.407-1.64t-1.312-.547q-.688 0-1.281.36-.594.359-.86 1.062-.25.703-.25 2.031v5.016zm14.306.234 3.875-13.813h1.313l-3.86 13.813z"/><path fill="#ffe599" fill-rule="evenodd" d="M255.369 133.891H464.03v116.567H255.37Z"/><path stroke="#595959" stroke-linecap="butt" stroke-linejoin="round" d="M255.369 133.891H464.03v116.567H255.37Z"/><path fill="#000" d="m323.718 156.514 1.656-.14q.125 1 .547 1.64.438.64 1.344 1.047.922.39 2.062.39 1 0 1.782-.296.781-.297 1.156-.813.375-.53.375-1.156t-.375-1.094q-.36-.468-1.188-.797-.546-.203-2.39-.64-1.828-.453-2.563-.844-.968-.5-1.437-1.234-.469-.75-.469-1.672 0-1 .578-1.875.578-.89 1.672-1.344 1.11-.453 2.453-.453 1.485 0 2.61.484 1.14.47 1.75 1.407.609.921.656 2.093l-1.688.125q-.14-1.265-.937-1.906-.781-.656-2.313-.656-1.609 0-2.343.594-.735.593-.735 1.421 0 .72.531 1.172.5.47 2.657.97 2.156.483 2.953.843 1.172.531 1.719 1.36.562.827.562 1.905 0 1.063-.61 2.016-.609.938-1.75 1.469-1.14.515-2.577.515-1.813 0-3.047-.53-1.219-.532-1.922-1.595-.688-1.062-.719-2.406m19.147 3.11q-.922.765-1.766 1.093-.828.313-1.797.313-1.593 0-2.453-.781-.86-.782-.86-1.985 0-.719.329-1.297.328-.593.844-.937.53-.36 1.187-.547.469-.125 1.453-.25 1.985-.234 2.922-.563.016-.343.016-.421 0-1-.469-1.422-.625-.547-1.875-.547-1.156 0-1.703.406t-.813 1.422l-1.609-.219q.219-1.015.719-1.64.5-.641 1.453-.985t2.187-.344q1.25 0 2.016.297.781.282 1.14.735.376.437.516 1.11.078.42.078 1.515v2.187q0 2.281.11 2.89.11.595.406 1.157h-1.703q-.266-.516-.328-1.187m-.14-3.672q-.891.375-2.673.625-1.015.14-1.437.328-.422.187-.656.531-.22.344-.22.781 0 .657.5 1.094t1.454.438q.937 0 1.672-.407.75-.422 1.094-1.14.265-.563.265-1.64zm4.203 4.86v-9.673h1.469v1.375q1.062-1.594 3.078-1.594.875 0 1.61.313.734.312 1.093.828.375.5.516 1.203.093.453.093 1.594v5.953h-1.64v-5.89q0-1-.203-1.485-.188-.5-.672-.797t-1.14-.297q-1.048 0-1.813.672-.75.656-.75 2.516v5.281zm16.641 0v-1.22q-.906 1.438-2.703 1.438-1.156 0-2.125-.64-.969-.641-1.5-1.782-.531-1.14-.531-2.625 0-1.453.484-2.625.485-1.188 1.438-1.813.969-.625 2.172-.625.875 0 1.547.375.687.36 1.109.954v-4.797h1.64v13.36zm-5.172-4.83q0 1.86.782 2.782.781.922 1.843.922 1.079 0 1.829-.875.75-.89.75-2.687 0-1.985-.766-2.907-.766-.937-1.89-.937-1.079 0-1.813.89-.735.891-.735 2.813zm10.782 4.83h-1.515v-13.36h1.64v4.765q1.047-1.297 2.657-1.297.89 0 1.687.36t1.313 1.015q.515.641.797 1.563.296.922.296 1.969 0 2.484-1.234 3.843-1.219 1.36-2.953 1.36-1.703 0-2.688-1.438zm-.015-4.907q0 1.734.484 2.515.766 1.266 2.094 1.266 1.078 0 1.86-.937.78-.938.78-2.782 0-1.89-.75-2.797-.75-.906-1.828-.906-1.062 0-1.859.938-.781.937-.781 2.703m8.282.062q0-2.687 1.484-3.968 1.25-1.079 3.047-1.079 2 0 3.266 1.313 1.265 1.297 1.265 3.61 0 1.859-.562 2.937-.563 1.062-1.64 1.656-1.063.594-2.329.594-2.031 0-3.281-1.297-1.25-1.313-1.25-3.766m1.687 0q0 1.86.797 2.797.813.922 2.047.922 1.219 0 2.031-.922.813-.937.813-2.844 0-1.796-.813-2.718t-2.03-.922q-1.235 0-2.048.922-.797.906-.797 2.765m8.204 4.844 3.531-5.031-3.265-4.64h2.047l1.484 2.265q.422.64.672 1.078.406-.594.734-1.063l1.64-2.28h1.954l-3.344 4.546 3.594 5.125h-2.016l-1.984-3-.516-.812-2.546 3.812z"/><path fill="#9fc5e8" fill-rule="evenodd" d="M265.306 179.419h188.787v44.346H265.306Z"/><path stroke="#595959" stroke-linecap="butt" stroke-linejoin="round" d="M265.306 179.419h188.787v44.346H265.306Z"/><path fill="#000" d="M296.133 206.339v-13.36h1.641v4.797q1.14-1.328 2.89-1.328 1.079 0 1.86.422.797.422 1.14 1.172.344.75.344 2.172v6.125h-1.64v-6.125q0-1.235-.531-1.797-.532-.563-1.516-.563-.719 0-1.36.39-.64.376-.921 1.016-.266.641-.266 1.782v5.297zm13.954-1.47.235 1.454q-.688.14-1.235.14-.89 0-1.39-.28-.485-.282-.688-.735-.203-.469-.203-1.938v-5.578h-1.203v-1.265h1.203v-2.39l1.625-.985v3.375h1.656v1.265h-1.656v5.672q0 .688.078.89.094.204.281.329.204.11.579.11.265 0 .718-.063zm5.184 0 .234 1.454q-.688.14-1.234.14-.891 0-1.391-.28-.484-.282-.688-.735-.203-.469-.203-1.938v-5.578h-1.203v-1.265h1.203v-2.39l1.625-.985v3.375h1.657v1.265h-1.657v5.672q0 .688.078.89.094.204.282.329.203.11.578.11.265 0 .719-.063zm1.605 5.173v-13.375h1.484v1.25q.531-.735 1.188-1.094.672-.375 1.625-.375 1.234 0 2.172.64.953.626 1.437 1.798.484 1.156.484 2.546 0 1.485-.53 2.672-.532 1.188-1.548 1.828-1.015.625-2.14.625-.813 0-1.47-.343-.655-.344-1.062-.875v4.703zm1.484-8.485q0 1.86.75 2.766.766.89 1.828.89 1.094 0 1.875-.921.782-.938.782-2.875 0-1.844-.766-2.766-.75-.922-1.813-.922-1.046 0-1.859.985-.797.968-.797 2.843m8.235 1.891 1.625-.25q.125.969.75 1.5.625.516 1.75.516t1.672-.454q.547-.468.547-1.093 0-.547-.484-.875-.329-.219-1.672-.547-1.813-.469-2.516-.797-.687-.328-1.047-.906-.36-.594-.36-1.313 0-.64.298-1.187.297-.563.812-.922.375-.281 1.031-.469.672-.203 1.422-.203 1.141 0 2 .328.86.328 1.266.89.422.563.578 1.5l-1.61.22q-.109-.75-.64-1.172-.516-.422-1.469-.422-1.14 0-1.625.375-.468.375-.468.875 0 .312.187.578.203.265.64.437.235.094 1.438.422 1.75.453 2.438.75.687.297 1.078.86.39.562.39 1.406 0 .828-.484 1.547-.469.719-1.375 1.125-.906.39-2.047.39-1.875 0-2.875-.78-.984-.782-1.25-2.329m10.438-4.922v-1.86h1.86v1.86zm0 7.813v-1.875h1.86v1.875zm3.496.234 3.875-13.813h1.312l-3.86 13.813zm5.183 0 3.875-13.813h1.312l-3.859 13.813zm13.043-3.344 1.687.203q-.406 1.485-1.484 2.313-1.078.812-2.766.812-2.125 0-3.375-1.296-1.234-1.313-1.234-3.672 0-2.454 1.25-3.797 1.265-1.344 3.265-1.344 1.938 0 3.157 1.328 1.234 1.313 1.234 3.703v.438h-7.219q.094 1.594.906 2.453.813.844 2.016.844.906 0 1.547-.47.64-.484 1.016-1.515m-5.391-2.656h5.406q-.11-1.219-.625-1.828-.781-.953-2.031-.953-1.125 0-1.906.765-.766.75-.844 2.016m11.829 5.766-3.688-9.672h1.735l2.078 5.797q.328.937.625 1.937.203-.766.61-1.828l2.14-5.906h1.687l-3.656 9.672zm6.64-11.47v-1.89h1.641v1.89zm0 11.47v-9.672h1.641v9.672zm4.098 0v-13.36h1.641v13.36zm4.645 0v-1.875h1.875v1.875zm11.043-3.547 1.61.219q-.266 1.656-1.36 2.609-1.078.937-2.672.937-1.984 0-3.188-1.296-1.203-1.297-1.203-3.72 0-1.577.516-2.75.516-1.171 1.578-1.75 1.063-.593 2.313-.593 1.578 0 2.578.797t1.281 2.265l-1.594.235q-.234-.969-.812-1.453-.578-.5-1.39-.5-1.235 0-2.017.89-.78.891-.78 2.813 0 1.953.75 2.844.75.875 1.952.875.97 0 1.61-.594.656-.594.828-1.828m2.406-1.297q0-2.688 1.484-3.969 1.25-1.078 3.047-1.078 2 0 3.266 1.313 1.266 1.296 1.266 3.609 0 1.86-.563 2.937-.562 1.063-1.64 1.657-1.063.593-2.329.593-2.03 0-3.28-1.296-1.25-1.313-1.25-3.766zm1.688 0q0 1.86.796 2.797.813.922 2.047.922 1.22 0 2.032-.922.812-.938.812-2.844 0-1.797-.812-2.719t-2.032-.922q-1.234 0-2.047.922-.796.906-.796 2.766m9.297 4.844v-9.672h1.469v1.36q.453-.72 1.203-1.141.766-.438 1.719-.438 1.078 0 1.765.453.688.438.97 1.234 1.155-1.687 2.984-1.687 1.453 0 2.218.797.782.797.782 2.453v6.64h-1.641v-6.093q0-.985-.156-1.406-.157-.438-.578-.704-.422-.265-.985-.265-1.015 0-1.687.687-.672.672-.672 2.157v5.625h-1.64v-6.282q0-1.093-.407-1.64t-1.313-.547q-.687 0-1.28.36-.595.359-.86 1.062-.25.703-.25 2.031v5.016zm14.307.234 3.875-13.813h1.312l-3.86 13.813z"/><path fill="#f4cccc" fill-rule="evenodd" d="M197.209 54.526h273.448v49.292H197.21Z"/><path stroke="#595959" stroke-linecap="butt" stroke-linejoin="round" d="M197.209 54.526h273.448v49.292H197.21Z"/><path fill="#000" d="M215.548 86.092v-13.36h5.016q1.531 0 2.453.407t1.437 1.25q.532.844.532 1.766 0 .859-.47 1.625-.452.75-1.39 1.203 1.203.359 1.86 1.218.656.86.656 2.016 0 .938-.406 1.75-.391.797-.985 1.234-.578.438-1.453.672-.875.219-2.156.219zm1.781-7.75h2.875q1.188 0 1.688-.14.672-.204 1.016-.672.343-.47.343-1.172 0-.657-.328-1.157-.312-.515-.906-.703t-2.031-.187h-2.657zm0 6.172h3.313q.86 0 1.203-.063.61-.109 1.016-.359.422-.266.687-.75t.266-1.125q0-.75-.39-1.297-.376-.547-1.063-.765-.672-.235-1.953-.235h-3.079zm10.522 1.578V76.42h1.469v1.469q.562-1.031 1.031-1.36.484-.328 1.063-.328.828 0 1.687.532l-.562 1.515q-.61-.36-1.204-.36-.546 0-.968.329-.422.328-.61.89-.28.876-.28 1.923v5.062zm5.619-4.844q0-2.687 1.484-3.968 1.25-1.079 3.047-1.079 2 0 3.266 1.313 1.266 1.297 1.266 3.61 0 1.859-.563 2.937-.562 1.062-1.64 1.656-1.063.594-2.329.594-2.031 0-3.281-1.297-1.25-1.313-1.25-3.766m1.688 0q0 1.86.796 2.797.813.922 2.047.922 1.219 0 2.032-.922.812-.937.812-2.844 0-1.796-.812-2.718t-2.032-.922q-1.234 0-2.047.922-.796.906-.796 2.765m11.078 4.844-2.968-9.672h1.703l1.531 5.578.578 2.078q.047-.156.5-2l1.547-5.656h1.687l1.438 5.61.484 1.843.563-1.86 1.656-5.593h1.594l-3.031 9.672h-1.704l-1.53-5.797-.376-1.64-1.953 7.437zm11.036-2.89 1.625-.25q.125.968.75 1.5.625.515 1.75.515t1.672-.453q.547-.469.547-1.094 0-.547-.485-.875-.328-.219-1.672-.547-1.812-.468-2.515-.797-.688-.328-1.047-.906-.36-.594-.36-1.312 0-.641.297-1.188.297-.562.813-.922.375-.281 1.031-.468.672-.204 1.422-.204 1.14 0 2 .329.86.328 1.266.89.421.563.578 1.5l-1.61.219q-.11-.75-.64-1.172-.516-.422-1.47-.422-1.14 0-1.624.375-.469.375-.469.875 0 .313.188.578.203.266.64.438.235.093 1.438.422 1.75.453 2.437.75.688.297 1.078.859t.391 1.406q0 .828-.484 1.547-.47.719-1.375 1.125-.907.39-2.047.39-1.875 0-2.875-.78-.985-.782-1.25-2.329zm16.61-.22 1.687.204q-.407 1.484-1.485 2.312-1.078.813-2.765.813-2.125 0-3.375-1.297-1.235-1.313-1.235-3.672 0-2.453 1.25-3.797 1.266-1.344 3.266-1.344 1.937 0 3.156 1.329 1.235 1.312 1.235 3.703v.437h-7.22q.095 1.594.907 2.453.813.844 2.016.844.906 0 1.547-.469.64-.484 1.015-1.515zm-5.391-2.656h5.406q-.11-1.218-.625-1.828-.781-.953-2.031-.953-1.125 0-1.907.766-.765.75-.843 2.015m9.125 5.766V76.42h1.47v1.469q.562-1.031 1.03-1.36.485-.328 1.063-.328.828 0 1.687.532l-.562 1.515q-.61-.36-1.203-.36-.547 0-.97.329-.42.328-.608.89-.282.876-.282 1.923v5.062zm11.568 0v-13.36h2.656l3.157 9.454q.437 1.328.64 1.984.235-.734.703-2.14l3.203-9.297h2.375v13.359h-1.703V74.92l-3.875 11.172h-1.593l-3.86-11.375v11.375zm21.697-1.187q-.922.765-1.765 1.093-.829.313-1.797.313-1.594 0-2.453-.781-.86-.782-.86-1.985 0-.719.328-1.297.328-.593.844-.937.531-.36 1.188-.547.468-.125 1.453-.25 1.984-.234 2.922-.563.015-.343.015-.421 0-1-.469-1.422-.625-.547-1.875-.547-1.156 0-1.703.406t-.812 1.422l-1.61-.219q.22-1.015.72-1.64.5-.641 1.452-.985.953-.344 2.188-.344 1.25 0 2.015.297.782.282 1.141.735.375.437.516 1.109.078.422.078 1.516v2.187q0 2.281.11 2.89.109.595.405 1.157h-1.703q-.265-.516-.328-1.187m-.14-3.672q-.891.375-2.672.625-1.016.14-1.438.328-.422.187-.656.531-.219.344-.219.781 0 .657.5 1.094t1.453.438q.938 0 1.672-.407.75-.422 1.094-1.14.266-.563.266-1.641zm4.203-6.61v-1.89h1.641v1.89zm0 11.469V76.42h1.641v9.672zm4.145 0V76.42h1.469v1.375q1.062-1.594 3.078-1.594.875 0 1.61.313.734.312 1.093.828.375.5.516 1.203.094.453.094 1.594v5.953h-1.641v-5.89q0-1-.203-1.485-.188-.5-.672-.797t-1.14-.297q-1.048 0-1.813.672-.75.656-.75 2.516v5.281zm15.762 0v-13.36h5.047q1.328 0 2.031.126.97.172 1.641.64.672.453 1.078 1.282.406.828.406 1.828 0 1.703-1.093 2.89-1.078 1.172-3.922 1.172h-3.422v5.422zm1.766-7h3.453q1.719 0 2.438-.64.718-.641.718-1.797 0-.844-.422-1.438-.421-.594-1.125-.781-.437-.125-1.64-.125h-3.422zm10.46 7V76.42h1.468v1.469q.562-1.031 1.031-1.36.485-.328 1.063-.328.828 0 1.687.532l-.562 1.515q-.61-.36-1.203-.36-.547 0-.97.329-.421.328-.609.89-.28.876-.28 1.923v5.062zm5.618-4.844q0-2.687 1.484-3.968 1.25-1.079 3.047-1.079 2 0 3.266 1.313 1.266 1.297 1.266 3.61 0 1.859-.563 2.937-.562 1.062-1.64 1.656-1.063.594-2.329.594-2.03 0-3.28-1.297-1.25-1.313-1.25-3.766zm1.688 0q0 1.86.796 2.797.813.922 2.047.922 1.22 0 2.032-.922.812-.937.812-2.844 0-1.796-.812-2.718t-2.032-.922q-1.234 0-2.047.922-.796.906-.796 2.765m15.61 1.297 1.61.219q-.267 1.656-1.36 2.61-1.078.937-2.672.937-1.985 0-3.188-1.297t-1.203-3.719q0-1.578.516-2.75.515-1.172 1.578-1.75 1.062-.594 2.312-.594 1.579 0 2.579.797t1.28 2.266l-1.593.234q-.234-.968-.812-1.453-.579-.5-1.391-.5-1.234 0-2.016.89-.78.891-.78 2.813 0 1.953.75 2.844.75.875 1.952.875.969 0 1.61-.594.656-.593.828-1.828m9.64.438 1.688.203q-.406 1.484-1.485 2.312-1.078.813-2.765.813-2.125 0-3.375-1.297-1.235-1.313-1.235-3.672 0-2.453 1.25-3.797 1.266-1.344 3.266-1.344 1.938 0 3.156 1.329 1.235 1.312 1.235 3.703v.437h-7.219q.094 1.594.906 2.453.813.844 2.016.844.906 0 1.547-.469.64-.484 1.015-1.515m-5.39-2.657h5.406q-.11-1.218-.625-1.828-.781-.953-2.031-.953-1.125 0-1.907.766-.765.75-.843 2.015m8.485 2.875 1.625-.25q.125.97.75 1.5.625.516 1.75.516t1.672-.453q.547-.469.547-1.094 0-.547-.485-.875-.328-.219-1.672-.547-1.812-.468-2.515-.797-.688-.328-1.047-.906-.36-.594-.36-1.312 0-.641.297-1.188.297-.562.813-.922.375-.281 1.031-.468.672-.204 1.422-.204 1.14 0 2 .329.86.328 1.266.89.421.563.578 1.5l-1.61.219q-.11-.75-.64-1.172-.516-.422-1.47-.422-1.14 0-1.624.375-.469.375-.469.875 0 .313.188.578.203.266.64.438.235.093 1.438.422 1.75.453 2.437.75.688.297 1.078.859t.391 1.406q0 .828-.484 1.547-.47.719-1.375 1.125-.907.39-2.047.39-1.875 0-2.875-.78-.985-.782-1.25-2.329m9.328 0 1.625-.25q.125.97.75 1.5.625.516 1.75.516t1.672-.453q.547-.469.547-1.094 0-.547-.485-.875-.328-.219-1.672-.547-1.812-.468-2.515-.797-.688-.328-1.047-.906-.36-.594-.36-1.312 0-.641.297-1.188.297-.562.813-.922.375-.281 1.031-.468.672-.204 1.422-.204 1.14 0 2 .329.86.328 1.266.89.422.563.578 1.5l-1.61.219q-.109-.75-.64-1.172-.516-.422-1.469-.422-1.14 0-1.625.375-.469.375-.469.875 0 .313.188.578.203.266.64.438.235.093 1.438.422 1.75.453 2.437.75.688.297 1.079.859.39.563.39 1.406 0 .828-.484 1.547-.469.719-1.375 1.125-.906.39-2.047.39-1.875 0-2.875-.78-.984-.782-1.25-2.329m18.293 6.813q-1.36-1.703-2.297-4t-.938-4.766q0-2.156.703-4.14.828-2.313 2.532-4.594h1.171q-1.093 1.89-1.453 2.703-.547 1.25-.875 2.625-.39 1.703-.39 3.422 0 4.375 2.718 8.75zm12.822-8.61 1.765.454q-.562 2.172-2 3.328-1.437 1.14-3.53 1.14-2.157 0-3.517-.875-1.343-.89-2.062-2.546-.703-1.672-.703-3.594 0-2.078.797-3.625.797-1.563 2.265-2.36 1.485-.812 3.25-.812 2 0 3.36 1.016 1.375 1.015 1.906 2.875l-1.734.406q-.47-1.453-1.36-2.11-.875-.671-2.203-.671-1.547 0-2.578.734t-1.453 1.984q-.422 1.235-.422 2.563 0 1.703.5 2.969t1.547 1.906q1.047.625 2.265.625 1.485 0 2.516-.86 1.031-.859 1.39-2.546zm7.176 2.532v-3.672h-3.64v-1.516h3.64v-3.64h1.547v3.64h3.64v1.516h-3.64v3.672zm10.895 0v-3.672h-3.64v-1.516h3.64v-3.64h1.547v3.64h3.64v1.516h-3.64v3.672zm8.535 6.078h-1.187q2.734-4.375 2.734-8.75 0-1.719-.39-3.39-.313-1.376-.875-2.626-.36-.828-1.47-2.734h1.188q1.703 2.281 2.532 4.594.687 1.984.687 4.14 0 2.469-.937 4.766t-2.282 4"/><path fill="url(#l)" d="M61.128 69.38c-.937-2.253-2.833-4.685-4.323-5.453 1.213 2.376 1.914 4.76 2.182 6.538l.004.036c-2.436-6.072-6.567-8.52-9.94-13.852-.17-.27-.341-.54-.508-.825a7 7 0 0 1-.237-.445 4 4 0 0 1-.322-.853.056.056 0 0 0-.049-.057.1.1 0 0 0-.04 0q-.006.001-.011.006-.007.003-.016.009l.009-.013c-5.412 3.17-7.248 9.034-7.417 11.967a10.8 10.8 0 0 0-5.93 2.285 6 6 0 0 0-.558-.421 10 10 0 0 1-.06-5.266c-2.213 1.008-3.935 2.601-5.186 4.008h-.01c-.854-1.082-.794-4.65-.745-5.396-.01-.046-.638.326-.72.382a15.7 15.7 0 0 0-2.105 1.804 19 19 0 0 0-2.012 2.412l-.001.004v-.004a18.2 18.2 0 0 0-2.89 6.527l-.03.142c-.04.19-.186 1.139-.211 1.345l-.005.047a20.5 20.5 0 0 0-.35 2.973l-.002.11c0 11.897 9.647 21.542 21.546 21.542 10.656 0 19.504-7.736 21.236-17.897.037-.275.066-.553.098-.83.428-3.695-.048-7.578-1.397-10.826M36.295 86.241c.1.048.195.1.299.147l.015.009a11 11 0 0 1-.314-.156m22.698-15.735-.003-.021.004.023z" style="fill:url(#l);stroke-width:.08965"/><path fill="url(#m)" d="M61.128 69.38c-.937-2.253-2.833-4.685-4.323-5.453 1.213 2.376 1.914 4.76 2.182 6.538l.003.02.004.024c2.033 5.51.925 11.115-.67 14.539-2.47 5.298-8.447 10.728-17.803 10.463-10.108-.286-19.014-7.786-20.676-17.61-.303-1.549 0-2.336.152-3.593-.185.97-.256 1.25-.35 2.972l-.002.11c0 11.897 9.647 21.542 21.546 21.542 10.656 0 19.504-7.736 21.236-17.897.037-.275.066-.553.098-.83.428-3.695-.047-7.578-1.397-10.826" style="fill:url(#m);stroke-width:.08965"/><path fill="url(#d)" d="M61.128 69.38c-.937-2.253-2.833-4.685-4.323-5.453 1.213 2.376 1.914 4.76 2.182 6.538l.003.02.004.024c2.033 5.51.925 11.115-.67 14.539-2.47 5.298-8.447 10.728-17.803 10.463-10.108-.286-19.014-7.786-20.676-17.61-.303-1.549 0-2.336.152-3.593-.185.97-.256 1.25-.35 2.972l-.002.11c0 11.897 9.647 21.542 21.546 21.542 10.656 0 19.504-7.736 21.236-17.897.037-.275.066-.553.098-.83.428-3.695-.047-7.578-1.397-10.826" style="fill:url(#d);stroke-width:.08965"/><path fill="url(#f)" d="M50.658 71.912q.069.049.133.098a11.7 11.7 0 0 0-2-2.61c-6.697-6.696-1.756-14.52-.923-14.917l.01-.012c-5.413 3.17-7.249 9.033-7.418 11.967.252-.018.502-.039.757-.039 4.04 0 7.557 2.221 9.44 5.513" style="fill:url(#f);stroke-width:.08965"/><path fill="url(#h)" d="M41.23 73.249c-.034.536-1.928 2.384-2.59 2.384-6.127 0-7.121 3.705-7.121 3.705.271 3.121 2.444 5.691 5.075 7.05q.18.093.363.174a12 12 0 0 0 .633.259 9.6 9.6 0 0 0 2.803.54c10.739.504 12.82-12.837 5.07-16.71 1.984-.346 4.044.452 5.195 1.26-1.884-3.291-5.402-5.512-9.44-5.512-.256 0-.506.021-.757.039a10.8 10.8 0 0 0-5.93 2.285c.328.278.7.65 1.48 1.419 1.462 1.44 5.212 2.932 5.22 3.107" style="fill:url(#h);stroke-width:.08965"/><path fill="url(#j)" d="M41.23 73.249c-.034.536-1.928 2.384-2.59 2.384-6.127 0-7.121 3.705-7.121 3.705.271 3.121 2.444 5.691 5.075 7.05q.18.093.363.174a12 12 0 0 0 .633.259 9.6 9.6 0 0 0 2.803.54c10.739.504 12.82-12.837 5.07-16.71 1.984-.346 4.044.452 5.195 1.26-1.884-3.291-5.402-5.512-9.44-5.512-.256 0-.506.021-.757.039a10.8 10.8 0 0 0-5.93 2.285c.328.278.7.65 1.48 1.419 1.462 1.44 5.212 2.932 5.22 3.107" style="fill:url(#j);stroke-width:.08965"/><path fill="url(#n)" d="M33.526 68.006a22 22 0 0 1 .447.296 10 10 0 0 1-.06-5.265c-2.214 1.007-3.936 2.6-5.187 4.007.103-.003 3.229-.06 4.8.962" style="fill:url(#n);stroke-width:.08965"/><path fill="url(#o)" d="M19.845 77.901c1.662 9.824 10.568 17.324 20.676 17.61 9.356.265 15.334-5.165 17.802-10.463 1.596-3.425 2.704-9.028.67-14.54v-.001l-.003-.021-.003-.02.004.035c.764 4.99-1.774 9.825-5.742 13.093l-.012.028c-7.732 6.296-15.13 3.798-16.628 2.776a13 13 0 0 1-.314-.156c-4.508-2.154-6.37-6.26-5.97-9.783-3.807 0-5.105-3.21-5.105-3.21s3.417-2.437 7.921-.318c4.172 1.963 8.09.318 8.09.318-.008-.175-3.758-1.667-5.22-3.107-.781-.77-1.152-1.14-1.48-1.42a6 6 0 0 0-.559-.42 25 25 0 0 0-.446-.296c-1.572-1.022-4.697-.965-4.8-.963h-.01c-.854-1.081-.794-4.65-.745-5.395-.01-.046-.638.325-.72.381a15.7 15.7 0 0 0-2.105 1.804 19 19 0 0 0-2.012 2.413l-.001.004v-.004a18.2 18.2 0 0 0-2.89 6.527c-.01.047-.776 3.393-.398 5.128" style="fill:url(#o);stroke-width:.08965"/><path fill="url(#p)" d="M48.791 69.4a11.7 11.7 0 0 1 2 2.61c.119.09.23.178.324.265 4.884 4.5 2.325 10.865 2.134 11.319 3.968-3.269 6.506-8.103 5.742-13.093-2.436-6.072-6.567-8.52-9.94-13.852-.17-.27-.341-.54-.508-.825a7 7 0 0 1-.237-.445 4 4 0 0 1-.322-.853.056.056 0 0 0-.049-.057.1.1 0 0 0-.04 0q-.006.001-.011.006-.007.003-.016.009c-.833.396-5.774 8.22.923 14.916" style="fill:url(#p);stroke-width:.08965"/><path fill="url(#q)" d="M51.115 72.275a4 4 0 0 0-.324-.265q-.064-.05-.133-.098c-1.15-.809-3.21-1.607-5.195-1.262 7.749 3.875 5.669 17.216-5.07 16.712a9.6 9.6 0 0 1-2.803-.54 12 12 0 0 1-.633-.26 8 8 0 0 1-.363-.173l.015.009c1.498 1.022 8.896 3.52 16.628-2.776l.012-.028c.191-.453 2.75-6.819-2.134-11.32" style="fill:url(#q);stroke-width:.08965"/><path fill="url(#r)" d="M31.519 79.339s.994-3.706 7.12-3.706c.663 0 2.557-1.848 2.592-2.384s-3.918 1.645-8.09-.318c-4.504-2.119-7.921.318-7.921.318s1.298 3.21 5.104 3.21c-.399 3.522 1.463 7.63 5.97 9.783.102.048.196.1.3.147-2.631-1.36-4.804-3.93-5.075-7.05" style="fill:url(#r);stroke-width:.08965"/><path fill="url(#s)" d="M61.128 69.38c-.937-2.253-2.833-4.685-4.323-5.453 1.213 2.376 1.914 4.76 2.182 6.538l.004.036c-2.436-6.072-6.567-8.52-9.94-13.852-.17-.27-.341-.54-.508-.825a7 7 0 0 1-.237-.445 4 4 0 0 1-.322-.853.056.056 0 0 0-.049-.057.1.1 0 0 0-.04 0q-.006.001-.011.006-.007.003-.016.009l.009-.013c-5.412 3.17-7.248 9.034-7.417 11.967.251-.017.501-.038.757-.038 4.039 0 7.557 2.22 9.44 5.512-1.15-.808-3.21-1.607-5.195-1.261 7.75 3.874 5.67 17.215-5.07 16.711a9.6 9.6 0 0 1-2.803-.54 12 12 0 0 1-.632-.26 8 8 0 0 1-.363-.173l.014.01a13 13 0 0 1-.314-.157c.101.048.196.1.3.147-2.632-1.36-4.805-3.93-5.076-7.05 0 0 .995-3.706 7.121-3.706.662 0 2.556-1.848 2.591-2.384-.008-.175-3.758-1.667-5.22-3.107-.78-.77-1.152-1.14-1.48-1.42a6 6 0 0 0-.558-.42 10 10 0 0 1-.06-5.266c-2.214 1.008-3.935 2.6-5.187 4.008h-.01c-.854-1.082-.794-4.65-.745-5.396-.01-.046-.637.325-.72.382a15.7 15.7 0 0 0-2.105 1.803 19 19 0 0 0-2.011 2.413l-.001.004v-.004a18.2 18.2 0 0 0-2.89 6.527l-.03.142c-.04.19-.222 1.153-.247 1.36-.002.015.001-.017 0 0a25 25 0 0 0-.318 3.005l-.002.11c0 11.897 9.646 21.542 21.545 21.542 10.656 0 19.504-7.736 21.236-17.897.037-.275.066-.553.098-.83.428-3.695-.048-7.578-1.397-10.826m-2.138 1.106.004.023v-.002z" style="fill:url(#s);stroke-width:.08965"/><g transform="translate(-442.636 -124.823)"><circle cx="542.677" cy="201.517" r="11.086" style="fill:#fff;stroke-width:.923842"/><path d="M523.475 212.608a22.172 22.172 0 1 0 8.116-30.288 22.17 22.17 0 0 0-8.116 30.288m28.803-16.63a11.086 11.086 0 1 1-15.144-4.057 11.086 11.086 0 0 1 15.144 4.058z" style="fill:none;stroke-width:.923842"/><path d="M542.677 190.436h19.198a22.167 22.167 0 0 0-38.398.003l9.6 16.626.007-.002a11.072 11.072 0 0 1 9.592-16.627z" style="fill:url(#t);stroke-width:.923842"/><circle cx="542.677" cy="201.522" r="8.777" style="fill:#1a73e8;stroke-width:.923842"/><path d="m552.277 207.068-9.6 16.626a22.167 22.167 0 0 0 19.197-33.255h-19.198l-.003.008a11.072 11.072 0 0 1 9.603 16.62z" style="fill:url(#u);stroke-width:.923842"/><path d="m533.077 207.068-9.6-16.627a22.167 22.167 0 0 0 19.202 33.253l9.6-16.626-.007-.006a11.072 11.072 0 0 1-19.195.006" style="fill:url(#v);stroke-width:.923842"/></g></svg>