<svg xmlns="http://www.w3.org/2000/svg" width="490" height="346" fill="none" stroke-linecap="square" stroke-miterlimit="10"><defs><linearGradient id="a" x1="3.217" x2="44.781" y1="15" y2="15" gradientTransform="translate(501.272 240.261)" gradientUnits="userSpaceOnUse"><stop offset="0" stop-color="#d93025"/><stop offset="1" stop-color="#ea4335"/></linearGradient><linearGradient id="b" x1="20.722" x2="41.504" y1="47.679" y2="11.684" gradientTransform="translate(501.272 240.261)" gradientUnits="userSpaceOnUse"><stop offset="0" stop-color="#fcc934"/><stop offset="1" stop-color="#fbbc04"/></linearGradient><linearGradient id="c" x1="26.598" x2="5.816" y1="46.501" y2="10.506" gradientTransform="translate(501.272 240.261)" gradientUnits="userSpaceOnUse"><stop offset="0" stop-color="#1e8e3e"/><stop offset="1" stop-color="#34a853"/></linearGradient></defs><path fill="#fff" fill-rule="evenodd" d="M.5.5h488.126v344.41H.5Z"/><path stroke="#595959" stroke-linecap="butt" stroke-linejoin="round" d="M.5.5h488.126v344.41H.5Z"/><path fill="#000" d="M170.812 20.92q0-3.328 1.782-5.203 1.78-1.89 4.609-1.89 1.844 0 3.328.89 1.484.875 2.266 2.469.781 1.578.781 3.578 0 2.031-.828 3.64-.813 1.594-2.313 2.422t-3.25.828q-1.875 0-3.359-.906-1.484-.922-2.25-2.5t-.766-3.328m1.813.016q0 2.421 1.297 3.812 1.297 1.39 3.265 1.39 2 0 3.282-1.406 1.28-1.406 1.28-3.984 0-1.625-.546-2.844-.547-1.218-1.61-1.875-1.062-.672-2.374-.672-1.891 0-3.25 1.297-1.344 1.282-1.344 4.282m13.027 10.187V17.748h1.484v1.25q.532-.734 1.188-1.094.672-.375 1.625-.375 1.234 0 2.172.641.953.625 1.437 1.797.485 1.156.485 2.547 0 1.484-.532 2.672-.531 1.187-1.547 1.828-1.015.625-2.14.625-.813 0-1.469-.344t-1.062-.875v4.703zm1.484-8.484q0 1.86.75 2.765.766.891 1.828.891 1.094 0 1.875-.922.782-.937.782-2.875 0-1.844-.766-2.766-.75-.921-1.812-.921-1.047 0-1.86.984-.797.969-.797 2.844m15.517 1.672 1.687.203q-.406 1.484-1.484 2.312-1.078.813-2.766.813-2.125 0-3.375-1.297-1.234-1.313-1.234-3.672 0-2.453 1.25-3.797 1.265-1.344 3.265-1.344 1.938 0 3.157 1.328 1.234 1.313 1.234 3.704v.437h-7.219q.094 1.594.906 2.453.813.844 2.016.844.906 0 1.547-.469.64-.484 1.016-1.515m-5.391-2.657h5.406q-.11-1.218-.625-1.828-.781-.953-2.031-.953-1.125 0-1.906.766-.766.75-.844 2.015m9.126 5.766v-9.672h1.468v1.469q.563-1.031 1.032-1.36.484-.328 1.062-.328.828 0 1.688.532l-.563 1.515q-.61-.36-1.203-.36-.547 0-.969.329-.422.328-.609.89-.281.876-.281 1.922v5.063zm12.54-1.188q-.921.766-1.765 1.094-.828.313-1.797.313-1.594 0-2.453-.782-.86-.78-.86-1.984 0-.719.329-1.297.328-.594.843-.937.532-.36 1.188-.547.469-.125 1.453-.25 1.984-.235 2.922-.563.015-.343.015-.422 0-1-.468-1.421-.625-.547-1.875-.547-1.157 0-1.703.406-.547.406-.813 1.422l-1.61-.219q.22-1.016.72-1.64.5-.641 1.453-.985t2.187-.344q1.25 0 2.016.297.781.281 1.14.735.375.437.516 1.109.078.422.078 1.516v2.187q0 2.281.11 2.89.109.594.406 1.157h-1.703q-.266-.516-.329-1.188m-.14-3.671q-.89.375-2.672.625-1.016.14-1.438.328-.421.187-.656.531-.219.344-.219.781 0 .656.5 1.094.5.437 1.454.437.937 0 1.671-.406.75-.422 1.094-1.14.266-.563.266-1.641zm7.782 3.39.234 1.453q-.687.141-1.234.141-.89 0-1.39-.281-.485-.282-.688-.735-.203-.468-.203-1.937v-5.578h-1.204v-1.266h1.204v-2.39l1.625-.985v3.375h1.656v1.266h-1.656v5.672q0 .687.078.89.093.203.281.328.203.11.578.11.266 0 .719-.063m1.605-10v-1.89h1.64v1.89zm0 11.469v-9.672h1.64v9.672zm4.145 0v-9.672h1.469v1.375q1.062-1.594 3.078-1.594.875 0 1.61.313.733.312 1.093.828.375.5.515 1.203.094.453.094 1.594v5.953h-1.64v-5.89q0-1-.204-1.485-.187-.5-.671-.797t-1.141-.297q-1.047 0-1.813.672-.75.656-.75 2.516v5.281zm10.063.797 1.594.234q.11.75.562 1.078.61.453 1.672.453 1.14 0 1.75-.453.625-.453.844-1.265.125-.5.11-2.11-1.063 1.266-2.673 1.266-2 0-3.093-1.438-1.094-1.437-1.094-3.453 0-1.39.5-2.562.516-1.172 1.453-1.797.953-.64 2.25-.64 1.703 0 2.813 1.374v-1.156h1.515v8.36q0 2.265-.469 3.203-.453.937-1.453 1.484-.984.547-2.453.547-1.719 0-2.797-.781-1.062-.766-1.03-2.344m1.36-5.813q0 1.907.75 2.782.765.875 1.906.875 1.125 0 1.89-.86.766-.875.766-2.734 0-1.781-.797-2.672-.781-.906-1.89-.906-1.094 0-1.86.89-.766.875-.766 2.625m14.12.72 1.657-.142q.125 1 .547 1.641.438.64 1.344 1.047.922.39 2.062.39 1 0 1.782-.296.78-.297 1.156-.813.375-.531.375-1.156t-.375-1.094q-.36-.469-1.188-.797-.547-.203-2.39-.64-1.828-.453-2.563-.844-.969-.5-1.437-1.234-.47-.75-.47-1.672 0-1 .579-1.875.578-.89 1.672-1.344 1.11-.453 2.453-.453 1.484 0 2.61.484 1.14.469 1.75 1.406.609.922.656 2.094l-1.688.125q-.14-1.265-.937-1.906-.782-.656-2.313-.656-1.61 0-2.344.593-.734.594-.734 1.422 0 .72.531 1.172.5.469 2.657.969 2.156.484 2.953.844 1.172.531 1.718 1.36.563.827.563 1.905 0 1.063-.61 2.016-.609.937-1.75 1.469-1.14.515-2.578.515-1.812 0-3.046-.53-1.22-.532-1.922-1.595-.688-1.062-.72-2.406m12.757 8.015-.187-1.532q.546.141.937.141.547 0 .875-.187.328-.172.547-.5.156-.25.5-1.22.047-.14.14-.405l-3.671-9.688h1.765l2.016 5.594q.39 1.078.703 2.25.281-1.125.672-2.203l2.078-5.64h1.64l-3.687 9.827q-.594 1.61-.922 2.203-.437.813-1 1.188t-1.343.375q-.485 0-1.063-.203m8.75-6.61 1.625-.25q.125.97.75 1.5.625.516 1.75.516t1.672-.453q.547-.469.547-1.094 0-.547-.485-.875-.328-.219-1.671-.547-1.813-.469-2.516-.797-.688-.328-1.047-.906-.36-.594-.36-1.312 0-.641.298-1.188.296-.562.812-.922.375-.281 1.031-.469.672-.203 1.422-.203 1.14 0 2 .328.86.329 1.266.891.422.563.578 1.5l-1.61.219q-.109-.75-.64-1.172-.516-.422-1.469-.422-1.14 0-1.625.375-.469.375-.469.875 0 .313.188.578.203.266.64.438.235.093 1.438.422 1.75.453 2.438.75.687.296 1.078.859.39.562.39 1.406 0 .828-.484 1.547-.469.719-1.375 1.125-.906.39-2.047.39-1.875 0-2.875-.78-.984-.782-1.25-2.329m13.563 1.422.234 1.453q-.688.141-1.234.141-.891 0-1.391-.281-.484-.282-.688-.735-.203-.468-.203-1.937v-5.578h-1.203v-1.266h1.203v-2.39l1.625-.985v3.375h1.657v1.266h-1.657v5.672q0 .687.078.89.094.203.282.328.203.11.578.11.265 0 .719-.063m8.23-1.64 1.687.203q-.406 1.484-1.484 2.312-1.078.813-2.766.813-2.125 0-3.375-1.297-1.234-1.313-1.234-3.672 0-2.453 1.25-3.797 1.265-1.344 3.265-1.344 1.938 0 3.157 1.328 1.234 1.313 1.234 3.704v.437h-7.219q.094 1.594.907 2.453.812.844 2.015.844.906 0 1.547-.469.64-.484 1.016-1.515m-5.39-2.657h5.405q-.11-1.218-.625-1.828-.78-.953-2.03-.953-1.126 0-1.907.766-.766.75-.844 2.015m9.14 5.766v-9.672h1.47v1.36q.452-.72 1.202-1.141.766-.438 1.719-.438 1.078 0 1.766.453.687.438.968 1.235 1.157-1.688 2.985-1.688 1.453 0 2.219.797.78.797.78 2.453v6.641h-1.64v-6.094q0-.984-.156-1.406-.156-.438-.578-.703-.422-.266-.985-.266-1.015 0-1.687.688-.672.672-.672 2.156v5.625h-1.64v-6.281q0-1.094-.407-1.64-.406-.548-1.312-.548-.688 0-1.282.36-.593.359-.859 1.062-.25.703-.25 2.031v5.016z"/><path fill="#eee" fill-rule="evenodd" d="M10.71 36.642H480.6v296.976H10.71Z"/><path stroke="#595959" stroke-linecap="butt" stroke-linejoin="round" d="M10.71 36.642H480.6v296.976H10.71Z"/><path fill="none" d="M24.209 45.476h42.916v42.916H24.209Z"/><path fill="#d9ead3" fill-rule="evenodd" d="M82.062 45.476H467.1V96.69H82.061Z"/><path stroke="#595959" stroke-linecap="butt" stroke-linejoin="round" d="M82.062 45.476H467.1V96.69H82.061Z"/><path fill="#000" d="M185.277 78.003v-13.36h1.813l7.015 10.485V64.643h1.688v13.36h-1.813l-7.015-10.5v10.5zm12.676-4.844q0-2.688 1.485-3.969 1.25-1.078 3.047-1.078 2 0 3.265 1.313 1.266 1.296 1.266 3.609 0 1.86-.563 2.937-.562 1.063-1.64 1.657-1.063.593-2.328.593-2.032 0-3.282-1.296-1.25-1.313-1.25-3.766m1.688 0q0 1.86.797 2.797.812.922 2.047.922 1.218 0 2.03-.922.813-.938.813-2.844 0-1.797-.812-2.719t-2.031-.922q-1.235 0-2.047.922-.797.907-.797 2.766m15.563 4.844v-1.22q-.906 1.438-2.703 1.438-1.156 0-2.125-.64t-1.5-1.781-.531-2.625q0-1.454.484-2.625.484-1.188 1.437-1.813.97-.625 2.172-.625.875 0 1.547.375.688.36 1.11.953v-4.797h1.64v13.36zm-5.172-4.828q0 1.859.781 2.78.782.923 1.844.923 1.078 0 1.828-.875.75-.891.75-2.688 0-1.984-.765-2.906-.766-.938-1.891-.938-1.078 0-1.813.891-.734.89-.734 2.813m15.907 1.718 1.688.203q-.407 1.485-1.485 2.313-1.078.812-2.765.812-2.125 0-3.375-1.296-1.235-1.313-1.235-3.672 0-2.453 1.25-3.797 1.266-1.344 3.266-1.344 1.937 0 3.156 1.328 1.234 1.313 1.234 3.703v.438h-7.218q.093 1.594.906 2.453.812.844 2.016.844.906 0 1.546-.47.641-.483 1.016-1.515m-5.39-2.656h5.406q-.11-1.219-.625-1.828-.782-.953-2.032-.953-1.125 0-1.906.765-.765.75-.844 2.016m9.594 5.766v-1.875h1.875v1.875zm4.714-11.453v-1.907h1.641v1.907zm-2.078 15.203.313-1.391q.5.125.781.125.5 0 .734-.328.25-.328.25-1.672V68.331h1.641v10.203q0 1.781-.469 2.484-.593.907-1.968.907-.657 0-1.282-.172m5.583-6.641 1.625-.25q.125.969.75 1.5.625.516 1.75.516t1.672-.453q.546-.47.546-1.094 0-.547-.484-.875-.328-.219-1.672-.547-1.812-.469-2.515-.797-.688-.328-1.047-.906-.36-.594-.36-1.313 0-.64.297-1.187.297-.563.813-.922.375-.281 1.03-.469.673-.203 1.423-.203 1.14 0 2 .328t1.265.89q.422.563.579 1.5l-1.61.22q-.11-.75-.64-1.172-.516-.422-1.47-.422-1.14 0-1.624.375-.469.375-.469.875 0 .312.188.578.203.266.64.437.235.094 1.438.422 1.75.453 2.437.75.688.297 1.078.86t.39 1.406q0 .828-.483 1.547-.47.719-1.375 1.125-.907.39-2.047.39-1.875 0-2.875-.78-.985-.782-1.25-2.329m15.324 2.89V64.644h2.656l3.156 9.453q.438 1.329.64 1.985.235-.735.704-2.14l3.203-9.298h2.375v13.36h-1.703V66.83l-3.875 11.172h-1.594l-3.86-11.375v11.375zm21.697-1.187q-.922.766-1.766 1.094-.828.312-1.797.312-1.594 0-2.453-.78-.86-.782-.86-1.985 0-.719.329-1.297.328-.594.844-.938.53-.359 1.187-.546.469-.125 1.453-.25 1.985-.235 2.922-.563.016-.344.016-.422 0-1-.47-1.422-.624-.547-1.874-.547-1.156 0-1.703.407t-.813 1.422l-1.61-.22q.22-1.015.72-1.64.5-.64 1.453-.984t2.187-.344q1.25 0 2.016.297.781.281 1.14.734.376.438.516 1.11.078.422.078 1.515v2.188q0 2.281.11 2.89.109.594.406 1.157h-1.703q-.266-.516-.328-1.188m-.141-3.672q-.89.375-2.672.625-1.015.14-1.437.328t-.657.532q-.218.343-.218.78 0 .657.5 1.095t1.453.437q.937 0 1.672-.406.75-.422 1.093-1.14.266-.563.266-1.641zm4.204-6.61v-1.89h1.64v1.89zm0 11.47V68.33h1.64v9.672zm4.145 0V68.33h1.468v1.375q1.063-1.594 3.079-1.594.875 0 1.609.313.734.312 1.094.828.375.5.515 1.203.094.453.094 1.594v5.953h-1.64v-5.891q0-1-.204-1.484-.187-.5-.672-.797-.484-.297-1.14-.297-1.047 0-1.813.672-.75.656-.75 2.515v5.282zm15.762 0v-13.36h5.047q1.328 0 2.03.125.97.172 1.642.64.671.454 1.078 1.282.406.828.406 1.828 0 1.703-1.094 2.89-1.078 1.173-3.922 1.173h-3.422v5.422zm1.765-7h3.454q1.718 0 2.437-.641.719-.64.719-1.797 0-.844-.422-1.437t-1.125-.782q-.438-.125-1.64-.125h-3.423zm10.46 7V68.33h1.468V69.8q.563-1.032 1.032-1.36.484-.328 1.062-.328.828 0 1.688.531l-.563 1.516q-.61-.36-1.203-.36-.547 0-.969.329-.422.328-.61.89-.28.875-.28 1.922v5.063zm5.619-4.844q0-2.688 1.484-3.969 1.25-1.078 3.047-1.078 2 0 3.265 1.313 1.266 1.296 1.266 3.609 0 1.86-.562 2.937-.563 1.063-1.641 1.657-1.063.593-2.328.593-2.031 0-3.281-1.296-1.25-1.313-1.25-3.766m1.687 0q0 1.86.797 2.797.812.922 2.047.922 1.219 0 2.031-.922.813-.938.813-2.844 0-1.797-.813-2.719t-2.031-.922q-1.235 0-2.047.922-.797.907-.797 2.766m15.61 1.297 1.61.219q-.266 1.656-1.36 2.609-1.078.937-2.672.937-1.984 0-3.187-1.296t-1.203-3.72q0-1.577.515-2.75.516-1.171 1.578-1.75 1.063-.593 2.313-.593 1.578 0 2.578.797t1.281 2.266l-1.593.234q-.235-.969-.813-1.453-.578-.5-1.39-.5-1.235 0-2.016.89-.781.891-.781 2.813 0 1.953.75 2.844.75.875 1.953.875.968 0 1.609-.594.656-.594.828-1.828m9.64.437 1.688.203q-.406 1.485-1.484 2.313-1.078.812-2.766.812-2.125 0-3.375-1.296-1.234-1.313-1.234-3.672 0-2.453 1.25-3.797 1.266-1.344 3.266-1.344 1.937 0 3.156 1.328 1.234 1.313 1.234 3.703v.438h-7.219q.094 1.594.907 2.453.812.844 2.015.844.907 0 1.547-.47.64-.483 1.016-1.515m-5.39-2.656h5.406q-.109-1.219-.625-1.828-.78-.953-2.03-.953-1.126 0-1.907.765-.766.75-.844 2.016m8.485 2.875 1.625-.25q.125.969.75 1.5.625.516 1.75.516t1.672-.453q.547-.47.547-1.094 0-.547-.484-.875-.328-.219-1.672-.547-1.813-.469-2.516-.797-.687-.328-1.047-.906-.36-.594-.36-1.313 0-.64.298-1.187.297-.563.812-.922.375-.281 1.032-.469.671-.203 1.421-.203 1.141 0 2 .328.86.328 1.266.89.422.563.578 1.5l-1.61.22q-.109-.75-.64-1.172-.515-.422-1.469-.422-1.14 0-1.625.375-.468.375-.468.875 0 .312.187.578.203.266.64.437.235.094 1.438.422 1.75.453 2.438.75.687.297 1.078.86.39.562.39 1.406 0 .828-.484 1.547-.469.719-1.375 1.125-.906.39-2.047.39-1.875 0-2.875-.78-.984-.782-1.25-2.329m9.328 0 1.625-.25q.125.969.75 1.5.625.516 1.75.516t1.672-.453q.547-.47.547-1.094 0-.547-.484-.875-.328-.219-1.672-.547-1.813-.469-2.516-.797-.687-.328-1.047-.906-.359-.594-.359-1.313 0-.64.297-1.187.297-.563.812-.922.375-.281 1.032-.469.672-.203 1.422-.203 1.14 0 2 .328.859.328 1.265.89.422.563.578 1.5l-1.61.22q-.108-.75-.64-1.172-.515-.422-1.468-.422-1.141 0-1.625.375-.47.375-.47.875 0 .312.188.578.203.266.64.437.235.094 1.438.422 1.75.453 2.438.75.687.297 1.078.86.39.562.39 1.406 0 .828-.484 1.547-.468.719-1.375 1.125-.906.39-2.047.39-1.875 0-2.875-.78-.984-.782-1.25-2.329"/><path fill="#eee" fill-rule="evenodd" d="M19.384 102.442H466.66v220.315H19.384Z"/><path stroke="#595959" stroke-linecap="butt" stroke-linejoin="round" d="M19.384 102.442H466.66v220.315H19.384Z"/><path fill="none" d="M37.262 118.519H81.61v44.344H37.262Z"/><g transform="matrix(.93464 0 0 .93464 -431.761 -106.038)"><circle cx="525.272" cy="264.256" r="12" style="fill:#fff"/><path d="M504.487 276.261a24 24 0 1 0 8.785-32.784 24 24 0 0 0-8.785 32.784m31.177-18a12 12 0 1 1-16.392-4.392 12 12 0 0 1 16.392 4.392" style="fill:none"/><path d="M525.272 252.261h20.781a23.994 23.994 0 0 0-41.564.003l10.39 17.997.01-.002a11.985 11.985 0 0 1 10.383-17.998" style="fill:url(#a)"/><circle cx="525.272" cy="264.261" r="9.5" style="fill:#1a73e8"/><path d="m535.663 270.264-10.39 17.997a23.994 23.994 0 0 0 20.779-35.997h-20.781l-.003.01a11.985 11.985 0 0 1 10.395 17.99z" style="fill:url(#b)"/><path d="m514.88 270.264-10.39-17.997a23.994 23.994 0 0 0 20.785 35.994l10.39-17.997-.007-.007a11.985 11.985 0 0 1-20.778.007z" style="fill:url(#c)"/></g><path fill="#f4cccc" fill-rule="evenodd" d="M101.235 116.046h358.74v49.291h-358.74Z"/><path stroke="#595959" stroke-linecap="butt" stroke-linejoin="round" d="M101.235 116.046h358.74v49.291h-358.74Z"/><path fill="#000" d="m163.02 142.924 1.766.453q-.562 2.172-2 3.328-1.437 1.141-3.531 1.141-2.156 0-3.516-.875-1.344-.89-2.062-2.547-.703-1.672-.703-3.594 0-2.078.797-3.625.796-1.562 2.265-2.359 1.485-.813 3.25-.813 2 0 3.36 1.016 1.375 1.016 1.906 2.875l-1.735.406q-.468-1.453-1.359-2.109-.875-.672-2.203-.672-1.547 0-2.578.734-1.031.735-1.453 1.985-.422 1.234-.422 2.562 0 1.703.5 2.97.5 1.265 1.547 1.905 1.047.625 2.265.625 1.485 0 2.516-.859 1.031-.86 1.39-2.547m3.74 4.688v-13.36h1.64v4.797q1.14-1.328 2.89-1.328 1.078 0 1.86.422.797.422 1.14 1.172.344.75.344 2.172v6.125h-1.64v-6.125q0-1.235-.532-1.797-.531-.563-1.515-.563-.72 0-1.36.39-.64.376-.922 1.016-.265.641-.265 1.782v5.297zm10.36 0v-9.672h1.468v1.468q.562-1.03 1.031-1.359.485-.328 1.063-.328.828 0 1.687.531l-.562 1.516q-.61-.36-1.203-.36-.547 0-.97.329-.421.328-.609.89-.28.875-.28 1.922v5.063zm5.618-4.844q0-2.688 1.484-3.969 1.25-1.078 3.047-1.078 2 0 3.266 1.312 1.266 1.297 1.266 3.61 0 1.86-.563 2.937-.562 1.063-1.64 1.657-1.063.593-2.329.593-2.03 0-3.28-1.297-1.25-1.312-1.25-3.765m1.688 0q0 1.86.796 2.797.813.922 2.047.922 1.22 0 2.032-.922.812-.938.812-2.844 0-1.797-.812-2.719t-2.032-.922q-1.234 0-2.047.922-.796.906-.796 2.766m9.297 4.844v-9.672h1.469v1.36q.453-.72 1.203-1.142.766-.437 1.719-.437 1.078 0 1.765.453.688.438.97 1.234 1.155-1.687 2.984-1.687 1.453 0 2.218.797.782.797.782 2.453v6.64h-1.641v-6.093q0-.985-.156-1.406-.157-.438-.578-.704-.422-.265-.985-.265-1.015 0-1.687.687-.672.672-.672 2.157v5.625h-1.64v-6.282q0-1.093-.407-1.64t-1.313-.547q-.687 0-1.28.36-.595.359-.86 1.062-.25.703-.25 2.031v5.016zm15.541-11.47v-1.89h1.64v1.89zm0 11.47v-9.672h1.64v9.672zm10.473 0v-1.422q-1.125 1.64-3.063 1.64-.859 0-1.609-.328-.734-.328-1.094-.828t-.5-1.219q-.11-.468-.11-1.53v-5.985h1.642v5.36q0 1.28.109 1.733.156.641.656 1.016t1.235.375 1.375-.375q.656-.39.921-1.031.266-.656.266-1.89v-5.188h1.64v9.672zm4.048 0v-9.672h1.468v1.36q.453-.72 1.203-1.142.766-.437 1.72-.437 1.077 0 1.765.453.687.438.969 1.234 1.156-1.687 2.984-1.687 1.453 0 2.219.797.78.797.78 2.453v6.64h-1.64v-6.093q0-.985-.156-1.406-.156-.438-.578-.704t-.984-.265q-1.016 0-1.688.687-.672.672-.672 2.157v5.625h-1.64v-6.282q0-1.093-.407-1.64t-1.312-.547q-.688 0-1.281.36-.594.359-.86 1.062-.25.703-.25 2.031v5.016zm20.88 0v-13.36h2.656l3.156 9.453q.438 1.328.641 1.985.234-.735.703-2.14l3.203-9.298h2.375v13.36h-1.703V136.44l-3.875 11.172h-1.594l-3.859-11.375v11.375zm21.697-1.188q-.922.766-1.766 1.094-.828.312-1.797.312-1.593 0-2.453-.78-.86-.782-.86-1.985 0-.719.329-1.297.328-.594.844-.938.531-.359 1.187-.547.469-.125 1.453-.25 1.985-.234 2.922-.562.016-.344.016-.422 0-1-.469-1.422-.625-.547-1.875-.547-1.156 0-1.703.407t-.812 1.421l-1.61-.218q.219-1.016.719-1.64.5-.642 1.453-.985.953-.344 2.188-.344 1.25 0 2.015.297.781.281 1.14.734.376.438.516 1.11.079.421.079 1.515v2.188q0 2.281.109 2.89.11.594.406 1.157h-1.703q-.266-.516-.328-1.188m-.14-3.672q-.891.375-2.673.625-1.015.14-1.437.328t-.656.532q-.22.343-.22.78 0 .657.5 1.095t1.454.437q.938 0 1.672-.406.75-.422 1.094-1.14.265-.563.265-1.641zm4.203-6.61v-1.89h1.64v1.89zm0 11.47v-9.672h1.64v9.672zm4.145 0v-9.672h1.469v1.375q1.062-1.594 3.078-1.594.875 0 1.61.312.734.313 1.093.829.375.5.516 1.203.093.453.093 1.593v5.954h-1.64v-5.891q0-1-.203-1.484-.188-.5-.672-.797t-1.14-.297q-1.048 0-1.813.672-.75.656-.75 2.515v5.282zm15.762 0v-13.36h5.047q1.328 0 2.031.125.969.172 1.64.64.673.454 1.079 1.282t.406 1.828q0 1.703-1.093 2.89-1.079 1.173-3.922 1.173h-3.422v5.422zm1.766-7h3.453q1.719 0 2.437-.641.72-.64.72-1.797 0-.844-.423-1.437-.422-.594-1.125-.782-.437-.125-1.64-.125h-3.422zm10.459 7v-9.672h1.469v1.468q.562-1.03 1.03-1.359.485-.328 1.063-.328.829 0 1.688.531l-.563 1.516q-.609-.36-1.203-.36-.547 0-.968.329-.422.328-.61.89-.281.875-.281 1.922v5.063zm5.619-4.844q0-2.688 1.484-3.969 1.25-1.078 3.047-1.078 2 0 3.266 1.312 1.265 1.297 1.265 3.61 0 1.86-.562 2.937-.563 1.063-1.64 1.657-1.063.593-2.329.593-2.031 0-3.281-1.297-1.25-1.312-1.25-3.765m1.687 0q0 1.86.797 2.797.813.922 2.047.922 1.219 0 2.031-.922.813-.938.813-2.844 0-1.797-.813-2.719t-2.03-.922q-1.235 0-2.048.922-.797.906-.797 2.766m15.61 1.297 1.61.218q-.266 1.657-1.36 2.61-1.078.937-2.671.937-1.985 0-3.188-1.297t-1.203-3.718q0-1.578.516-2.75.515-1.172 1.578-1.75 1.062-.594 2.312-.594 1.578 0 2.578.797t1.282 2.265l-1.594.235q-.235-.969-.813-1.453-.578-.5-1.39-.5-1.235 0-2.016.89-.781.891-.781 2.813 0 1.953.75 2.844.75.875 1.953.875.969 0 1.61-.594.656-.594.827-1.828m9.641.437 1.688.203q-.407 1.485-1.485 2.313-1.078.812-2.765.812-2.125 0-3.375-1.297-1.235-1.312-1.235-3.671 0-2.454 1.25-3.797 1.266-1.344 3.266-1.344 1.937 0 3.156 1.328 1.234 1.313 1.234 3.703v.438h-7.218q.093 1.593.906 2.453.812.844 2.016.844.906 0 1.546-.47.641-.484 1.016-1.515m-5.39-2.656h5.406q-.11-1.219-.625-1.828-.782-.953-2.032-.953-1.125 0-1.906.765-.765.75-.844 2.016m8.485 2.875 1.625-.25q.125.969.75 1.5.625.516 1.75.516t1.671-.454q.547-.468.547-1.093 0-.547-.484-.875-.328-.219-1.672-.547-1.812-.469-2.516-.797-.687-.328-1.046-.906-.36-.594-.36-1.313 0-.64.297-1.187.297-.563.813-.922.375-.281 1.03-.469.673-.203 1.423-.203 1.14 0 2 .328.859.328 1.265.89.422.563.578 1.5l-1.609.22q-.11-.75-.64-1.172-.516-.422-1.47-.422-1.14 0-1.624.375-.47.375-.47.875 0 .312.188.578.204.265.641.437.234.094 1.438.422 1.75.453 2.437.75.688.297 1.078.86t.39 1.406q0 .828-.484 1.547-.468.718-1.375 1.125-.906.39-2.046.39-1.875 0-2.875-.78-.985-.782-1.25-2.329m9.328 0 1.625-.25q.125.969.75 1.5.625.516 1.75.516t1.672-.454q.546-.468.546-1.093 0-.547-.484-.875-.328-.219-1.672-.547-1.812-.469-2.515-.797-.688-.328-1.047-.906-.36-.594-.36-1.313 0-.64.297-1.187.297-.563.813-.922.375-.281 1.03-.469.673-.203 1.423-.203 1.14 0 2 .328t1.265.89q.422.563.579 1.5l-1.61.22q-.11-.75-.64-1.172-.516-.422-1.47-.422-1.14 0-1.624.375-.469.375-.469.875 0 .312.188.578.203.265.64.437.235.094 1.438.422 1.75.453 2.437.75.688.297 1.078.86t.39 1.406q0 .828-.483 1.547-.47.718-1.375 1.125-.907.39-2.047.39-1.875 0-2.875-.78-.985-.782-1.25-2.329m18.292 6.812q-1.359-1.703-2.296-4-.938-2.296-.938-4.765 0-2.156.703-4.14.828-2.313 2.531-4.595h1.172q-1.093 1.891-1.453 2.704-.547 1.25-.875 2.625-.39 1.703-.39 3.421 0 4.375 2.718 8.75zm12.822-8.609 1.766.453q-.562 2.172-2 3.328-1.437 1.141-3.531 1.141-2.156 0-3.516-.875-1.344-.89-2.062-2.547-.703-1.672-.703-3.594 0-2.078.796-3.625.797-1.562 2.266-2.359 1.484-.813 3.25-.813 2 0 3.36 1.016 1.374 1.016 1.906 2.875l-1.735.406q-.468-1.453-1.36-2.109-.874-.672-2.202-.672-1.547 0-2.578.734-1.032.735-1.453 1.985-.422 1.234-.422 2.562 0 1.703.5 2.97.5 1.265 1.547 1.905 1.046.625 2.265.625 1.485 0 2.516-.859 1.031-.86 1.39-2.547m7.176 2.531v-3.672h-3.64v-1.515h3.64v-3.64h1.547v3.64h3.641v1.515h-3.64v3.672zm10.895 0v-3.672h-3.64v-1.515h3.64v-3.64h1.547v3.64h3.641v1.515h-3.64v3.672zm8.536 6.078h-1.187q2.734-4.375 2.734-8.75 0-1.718-.39-3.39-.313-1.375-.876-2.625-.36-.828-1.468-2.735h1.187q1.703 2.282 2.531 4.594.688 1.985.688 4.14 0 2.47-.938 4.766-.937 2.297-2.28 4"/><path fill="#ffe599" fill-rule="evenodd" d="M30.193 184.694h208.756V312.16H30.193Z"/><path stroke="#595959" stroke-linecap="butt" stroke-linejoin="round" d="M30.193 184.694h208.756V312.16H30.193Z"/><path fill="#000" d="m98.59 207.317 1.656-.14q.125 1 .547 1.64.437.641 1.343 1.047.922.39 2.063.39 1 0 1.781-.296.781-.297 1.156-.813.375-.53.375-1.156t-.375-1.094q-.36-.468-1.187-.796-.547-.204-2.39-.641-1.829-.453-2.563-.844-.97-.5-1.438-1.234-.469-.75-.469-1.672 0-1 .579-1.875.578-.89 1.671-1.344 1.11-.453 2.454-.453 1.484 0 2.609.484 1.14.47 1.75 1.407.61.922.656 2.093l-1.687.125q-.14-1.265-.938-1.906-.781-.656-2.312-.656-1.61 0-2.344.594-.734.593-.734 1.422 0 .718.53 1.171.5.47 2.657.97 2.156.484 2.953.843 1.172.531 1.719 1.36.562.827.562 1.906 0 1.062-.609 2.015-.61.938-1.75 1.469-1.14.516-2.578.516-1.813 0-3.047-.532-1.219-.53-1.922-1.593-.687-1.063-.719-2.407m19.146 3.11q-.922.765-1.765 1.093-.829.313-1.797.313-1.594 0-2.453-.781-.86-.782-.86-1.985 0-.718.328-1.297.328-.593.844-.937.531-.36 1.188-.547.468-.125 1.453-.25 1.984-.234 2.922-.562.015-.344.015-.422 0-1-.469-1.422-.625-.547-1.875-.547-1.156 0-1.703.406t-.812 1.422l-1.61-.219q.22-1.015.72-1.64.5-.64 1.452-.985.953-.343 2.188-.343 1.25 0 2.015.296.782.282 1.141.735.375.437.516 1.11.078.421.078 1.515v2.187q0 2.282.11 2.891.109.594.405 1.156h-1.703q-.265-.515-.328-1.187m-.14-3.672q-.891.375-2.672.625-1.016.14-1.438.328-.422.187-.656.531-.219.344-.219.781 0 .657.5 1.094t1.453.438q.938 0 1.672-.407.75-.421 1.094-1.14.266-.563.266-1.64zm4.203 4.86v-9.673h1.47v1.375q1.062-1.593 3.077-1.593.875 0 1.61.312.734.313 1.093.828.375.5.516 1.203.094.453.094 1.594v5.953h-1.64v-5.89q0-1-.204-1.485-.188-.5-.672-.797t-1.14-.297q-1.047 0-1.813.672-.75.657-.75 2.516v5.281zm16.642 0v-1.22q-.907 1.438-2.703 1.438-1.157 0-2.125-.64-.97-.641-1.5-1.782-.532-1.14-.532-2.625 0-1.453.485-2.625.484-1.187 1.437-1.812.969-.625 2.172-.625.875 0 1.547.375.687.359 1.11.953v-4.797h1.64v13.36zm-5.172-4.829q0 1.86.781 2.781.781.922 1.844.922 1.078 0 1.828-.875.75-.89.75-2.687 0-1.985-.766-2.907-.765-.937-1.89-.937-1.078 0-1.813.89-.734.891-.734 2.813m10.782 4.828h-1.516v-13.36h1.64v4.766q1.048-1.296 2.657-1.296.89 0 1.688.359.796.36 1.312 1.016.516.64.797 1.562.297.922.297 1.969 0 2.484-1.235 3.844-1.218 1.359-2.953 1.359-1.703 0-2.687-1.438zm-.016-4.906q0 1.734.485 2.516.765 1.265 2.093 1.265 1.078 0 1.86-.937.78-.938.78-2.782.001-1.89-.749-2.796-.75-.907-1.828-.907-1.063 0-1.86.938-.78.937-.78 2.703m8.282.062q0-2.687 1.485-3.968 1.25-1.078 3.046-1.078 2 0 3.266 1.312 1.266 1.297 1.266 3.61 0 1.859-.563 2.937-.562 1.062-1.64 1.656-1.063.594-2.329.594-2.03 0-3.28-1.297-1.25-1.312-1.25-3.766m1.688 0q0 1.86.797 2.797.812.922 2.046.922 1.22 0 2.032-.922.812-.937.812-2.843 0-1.797-.812-2.72-.813-.921-2.032-.921-1.234 0-2.046.922-.797.906-.797 2.765m8.204 4.844 3.53-5.031-3.265-4.64h2.047l1.484 2.265q.422.64.672 1.078.407-.594.735-1.062l1.64-2.282h1.953l-3.343 4.547 3.593 5.125h-2.015l-1.985-3-.515-.812-2.547 3.812z"/><path fill="#9fc5e8" fill-rule="evenodd" d="M38.728 266.193h191.685v39.213H38.728Z"/><path stroke="#595959" stroke-linecap="butt" stroke-linejoin="round" d="M38.728 266.193h191.685v39.213H38.728Z"/><path fill="#000" d="M62.063 293.113v-8.406H60.61v-1.266h1.453v-1.031q0-.969.172-1.453.234-.641.828-1.032.594-.39 1.672-.39.687 0 1.53.156l-.25 1.438q-.5-.094-.952-.094-.75 0-1.063.328-.312.312-.312 1.187v.891h1.89v1.266h-1.89v8.406zm4.792-11.469v-1.89h1.641v1.89zm0 11.469v-9.672h1.641v9.672zm4.098 0v-13.36h1.641v13.36zm10.817-3.11 1.688.204q-.407 1.484-1.485 2.312-1.078.813-2.765.813-2.125 0-3.375-1.297-1.235-1.313-1.235-3.672 0-2.453 1.25-3.797 1.266-1.344 3.266-1.344 1.937 0 3.156 1.328 1.234 1.313 1.234 3.704v.437h-7.218q.093 1.594.906 2.453.812.844 2.016.844.906 0 1.546-.469.641-.484 1.016-1.515m-5.39-2.656h5.406q-.11-1.218-.625-1.828-.782-.953-2.032-.953-1.125 0-1.906.766-.765.75-.844 2.015m9.594-2.047v-1.859h1.86v1.86zm0 7.813v-1.875h1.86v1.875zm3.496.234 3.875-13.812h1.312l-3.86 13.812zm5.183 0 3.875-13.812h1.313l-3.86 13.812zm7.355-.234v-1.875h1.875v1.875zm6.235 0v-1.875h1.859v1.875zm6.203 0v-1.875h1.875v1.875zm4.047.234 3.875-13.812h1.312l-3.86 13.812zm6.417-11.703v-1.89h1.64v1.89zm0 11.469v-9.672h1.64v9.672zm4.145 0v-9.672h1.469v1.375q1.062-1.594 3.078-1.594.875 0 1.61.313.734.312 1.093.828.375.5.516 1.203.093.453.093 1.594v5.953h-1.64v-5.89q0-1-.203-1.485-.188-.5-.672-.797t-1.14-.297q-1.048 0-1.813.672-.75.656-.75 2.516v5.28zm16.641 0v-1.219q-.906 1.438-2.703 1.438-1.156 0-2.125-.641-.968-.64-1.5-1.781-.53-1.14-.53-2.625 0-1.453.483-2.625.485-1.188 1.438-1.813.969-.625 2.172-.625.875 0 1.547.375.687.36 1.11.953v-4.796h1.64v13.359zm-5.171-4.828q0 1.86.78 2.781.782.922 1.845.922 1.078 0 1.828-.875.75-.89.75-2.688 0-1.984-.766-2.906-.766-.937-1.89-.937-1.079 0-1.813.89t-.734 2.813m15.907 1.719 1.687.203q-.406 1.484-1.484 2.312-1.078.813-2.766.813-2.125 0-3.375-1.297-1.234-1.313-1.234-3.672 0-2.453 1.25-3.797 1.265-1.344 3.265-1.344 1.938 0 3.157 1.328 1.234 1.313 1.234 3.704v.437h-7.219q.094 1.594.906 2.453.813.844 2.016.844.906 0 1.547-.469.64-.484 1.016-1.515m-5.391-2.657h5.406q-.11-1.218-.625-1.828-.781-.953-2.031-.953-1.125 0-1.906.766-.766.75-.844 2.015m8.047 5.766 3.532-5.031-3.266-4.641h2.047l1.484 2.266q.422.64.672 1.078.406-.594.735-1.063l1.64-2.281h1.953l-3.343 4.547 3.593 5.125h-2.015l-1.985-3-.515-.813-2.547 3.813zm10.876 0v-1.875h1.875v1.875zm4.73 0v-13.36h1.64v4.797q1.14-1.328 2.89-1.328 1.08 0 1.86.422.797.422 1.14 1.172.345.75.345 2.172v6.125h-1.64v-6.125q0-1.234-.532-1.797-.531-.562-1.516-.562-.719 0-1.36.39-.64.375-.921 1.016-.266.64-.266 1.781v5.297zm13.954-1.469.234 1.453q-.688.14-1.234.14-.891 0-1.391-.28-.484-.282-.688-.735-.203-.468-.203-1.937v-5.578h-1.203v-1.266h1.203v-2.39l1.625-.985v3.375h1.657v1.266h-1.657v5.672q0 .687.078.89.094.203.282.328.203.11.578.11.265 0 .719-.063m1.605 1.469v-9.672h1.468v1.36q.454-.72 1.204-1.141.765-.438 1.718-.438 1.078 0 1.766.453.687.438.969 1.235 1.156-1.688 2.984-1.688 1.453 0 2.219.797.781.797.781 2.453v6.64h-1.64v-6.093q0-.984-.157-1.406-.156-.438-.578-.703-.422-.266-.984-.266-1.016 0-1.688.688-.672.672-.672 2.156v5.625h-1.64v-6.281q0-1.094-.407-1.641t-1.312-.547q-.688 0-1.281.36-.594.359-.86 1.062-.25.703-.25 2.031v5.016zm15.494 0v-13.36h1.64v13.36z"/><path fill="#d9ead3" fill-rule="evenodd" d="M251.22 184.694h208.755V312.16H251.22Z"/><path stroke="#595959" stroke-linecap="butt" stroke-linejoin="round" d="M251.22 184.694h208.755V312.16H251.22Z"/><path fill="#000" d="M325.39 211.614v-13.36h1.813l7.016 10.485v-10.484h1.687v13.36h-1.812l-7.016-10.5v10.5zm12.677-4.844q0-2.687 1.484-3.968 1.25-1.078 3.047-1.078 2 0 3.266 1.312 1.265 1.297 1.265 3.61 0 1.859-.562 2.937-.563 1.062-1.64 1.656-1.063.594-2.329.594-2.031 0-3.281-1.297-1.25-1.312-1.25-3.766m1.687 0q0 1.86.797 2.797.813.922 2.047.922 1.219 0 2.031-.922.813-.937.813-2.843 0-1.797-.813-2.72-.812-.921-2.03-.921-1.235 0-2.048.922-.797.906-.797 2.765m15.564 4.844v-1.219q-.907 1.438-2.704 1.438-1.156 0-2.125-.64-.968-.641-1.5-1.782-.53-1.14-.53-2.625 0-1.453.484-2.625.484-1.187 1.437-1.812.969-.625 2.172-.625.875 0 1.547.375.687.359 1.11.953v-4.797h1.64v13.36zm-5.172-4.828q0 1.86.781 2.781.781.922 1.844.922 1.078 0 1.828-.875.75-.89.75-2.687 0-1.985-.766-2.907-.765-.937-1.89-.937-1.079 0-1.813.89-.734.891-.734 2.813m15.907 1.719 1.687.203q-.406 1.484-1.484 2.312-1.078.813-2.766.813-2.125 0-3.375-1.297-1.234-1.312-1.234-3.672 0-2.453 1.25-3.797 1.265-1.343 3.265-1.343 1.938 0 3.157 1.328 1.234 1.312 1.234 3.703v.437h-7.219q.094 1.594.907 2.453.812.844 2.015.844.906 0 1.547-.469.64-.484 1.016-1.515m-5.39-2.656h5.405q-.109-1.22-.625-1.829-.78-.953-2.03-.953-1.126 0-1.907.766-.766.75-.844 2.016m9.594 5.765v-1.875h1.875v1.875zm4.714-11.453v-1.906h1.64v1.906zm-2.078 15.203.313-1.39q.5.125.78.125.5 0 .735-.329.25-.328.25-1.671v-10.157h1.64v10.203q0 1.782-.468 2.485-.594.906-1.969.906-.656 0-1.281-.172m5.582-6.64 1.625-.25q.125.968.75 1.5.625.515 1.75.515t1.672-.453q.547-.469.547-1.094 0-.547-.484-.875-.328-.218-1.672-.547-1.813-.468-2.516-.796-.687-.329-1.047-.907-.36-.593-.36-1.312 0-.64.298-1.188.297-.562.812-.922.375-.28 1.032-.468.671-.203 1.421-.203 1.141 0 2 .328.86.328 1.266.89.422.563.578 1.5l-1.61.22q-.109-.75-.64-1.173-.515-.422-1.469-.422-1.14 0-1.625.375-.468.375-.468.875 0 .313.187.578.203.266.64.438.235.094 1.438.422 1.75.453 2.438.75.687.297 1.078.86.39.562.39 1.405 0 .829-.484 1.547-.469.72-1.375 1.125-.906.391-2.047.391-1.875 0-2.875-.781-.984-.782-1.25-2.328"/><path fill="#9fc5e8" fill-rule="evenodd" d="M259.755 266.193H451.44v39.213H259.755z"/><path stroke="#595959" stroke-linecap="butt" stroke-linejoin="round" d="M259.755 266.193H451.44v39.213H259.755z"/><path fill="#000" d="M270.77 293.113v-13.36h1.64v4.797q1.14-1.328 2.89-1.328 1.079 0 1.86.422.797.422 1.14 1.172.344.75.344 2.172v6.125h-1.64v-6.125q0-1.234-.531-1.797-.532-.562-1.516-.562-.719 0-1.36.39-.64.375-.921 1.016-.266.64-.266 1.781v5.297zm13.953-1.469.235 1.453q-.688.14-1.235.14-.89 0-1.39-.28-.485-.282-.688-.735-.203-.468-.203-1.937v-5.578h-1.203v-1.266h1.203v-2.39l1.625-.985v3.375h1.656v1.266h-1.656v5.672q0 .687.078.89.094.203.281.328.204.11.579.11.265 0 .718-.063m5.184 0 .234 1.453q-.687.14-1.234.14-.891 0-1.391-.28-.484-.282-.687-.735-.204-.468-.204-1.937v-5.578h-1.203v-1.266h1.203v-2.39l1.625-.985v3.375h1.657v1.266h-1.657v5.672q0 .687.079.89.093.203.28.328.204.11.579.11.266 0 .719-.063m1.605 5.172v-13.375h1.484v1.25q.531-.734 1.188-1.094.672-.375 1.625-.375 1.234 0 2.172.64.953.626 1.437 1.798.484 1.156.484 2.547 0 1.484-.53 2.672-.532 1.187-1.548 1.828-1.015.625-2.14.625-.813 0-1.47-.344-.655-.344-1.062-.875v4.703zm1.484-8.484q0 1.859.75 2.765.766.89 1.828.89 1.094 0 1.875-.921.782-.937.782-2.875 0-1.844-.766-2.766-.75-.921-1.813-.921-1.046 0-1.859.984-.797.969-.797 2.844m8.235 1.89 1.625-.25q.125.969.75 1.5.625.516 1.75.516t1.672-.453q.547-.469.547-1.094 0-.547-.484-.875-.328-.219-1.672-.547-1.813-.469-2.516-.797-.687-.328-1.047-.906-.36-.594-.36-1.312 0-.641.298-1.188.297-.562.812-.922.375-.281 1.032-.469.671-.203 1.421-.203 1.141 0 2 .328.86.329 1.266.891.422.563.578 1.5l-1.61.219q-.109-.75-.64-1.172-.515-.422-1.469-.422-1.14 0-1.625.375-.468.375-.468.875 0 .313.187.578.203.266.64.438.235.093 1.438.422 1.75.453 2.438.75.687.296 1.078.859.39.562.39 1.406 0 .828-.484 1.547-.469.719-1.375 1.125-.906.39-2.047.39-1.875 0-2.875-.78-.984-.782-1.25-2.329m10.438-4.922v-1.859h1.86v1.86zm0 7.813v-1.875h1.86v1.875zm3.496.234 3.875-13.812h1.312l-3.86 13.812zm5.183 0 3.875-13.812h1.312l-3.859 13.812zm13.043-3.343 1.687.203q-.406 1.484-1.484 2.312-1.078.813-2.766.813-2.125 0-3.375-1.297-1.234-1.313-1.234-3.672 0-2.453 1.25-3.797 1.265-1.344 3.265-1.344 1.938 0 3.157 1.328 1.234 1.313 1.234 3.704v.437h-7.219q.094 1.594.906 2.453.813.844 2.016.844.906 0 1.547-.469.64-.484 1.016-1.515M328 287.347h5.406q-.11-1.218-.625-1.828-.781-.953-2.031-.953-1.125 0-1.906.766-.766.75-.844 2.015m8.048 5.766 3.53-5.031-3.265-4.641h2.047l1.484 2.266q.422.64.672 1.078.407-.594.735-1.063l1.64-2.281h1.953l-3.343 4.547 3.593 5.125h-2.015l-1.985-3-.515-.813-2.547 3.813zm16.734-1.188q-.922.766-1.766 1.094-.828.313-1.797.313-1.593 0-2.453-.782-.859-.78-.859-1.984 0-.719.328-1.297.328-.594.844-.937.531-.36 1.187-.547.47-.125 1.453-.25 1.985-.235 2.922-.563.016-.343.016-.422 0-1-.469-1.421-.625-.547-1.875-.547-1.156 0-1.703.406t-.812 1.422l-1.61-.219q.219-1.016.719-1.64.5-.641 1.453-.985t2.188-.344q1.25 0 2.015.297.781.281 1.14.735.376.437.516 1.109.079.422.079 1.516v2.187q0 2.281.109 2.89.11.594.406 1.157h-1.703q-.266-.516-.328-1.188m-.14-3.671q-.891.375-2.673.625-1.015.14-1.437.328-.422.187-.656.53-.219.345-.219.782 0 .656.5 1.094.5.437 1.453.437.938 0 1.672-.406.75-.422 1.094-1.14.265-.563.265-1.641zm4.203 4.859v-9.672h1.469v1.36q.453-.72 1.203-1.141.766-.438 1.719-.438 1.078 0 1.765.453.688.438.97 1.235 1.155-1.688 2.984-1.688 1.453 0 2.218.797.782.797.782 2.453v6.64h-1.641v-6.093q0-.984-.156-1.406-.157-.438-.578-.703-.422-.266-.985-.266-1.015 0-1.687.688-.672.672-.672 2.156v5.625h-1.64v-6.281q0-1.094-.407-1.641t-1.313-.547q-.687 0-1.28.36-.595.359-.86 1.062-.25.703-.25 2.031v5.016zm15.541 3.703v-13.375h1.484v1.25q.532-.734 1.188-1.094.672-.375 1.625-.375 1.234 0 2.172.64.953.626 1.437 1.798.485 1.156.485 2.547 0 1.484-.532 2.672-.53 1.187-1.547 1.828-1.015.625-2.14.625-.813 0-1.469-.344t-1.062-.875v4.703zm1.484-8.484q0 1.859.75 2.765.766.89 1.828.89 1.094 0 1.875-.921.782-.937.782-2.875 0-1.844-.766-2.766-.75-.921-1.812-.921-1.047 0-1.86.984-.797.969-.797 2.844m8.845 4.78v-13.358h1.64v13.359zm10.816-3.108 1.688.203q-.406 1.484-1.484 2.312-1.079.813-2.766.813-2.125 0-3.375-1.297-1.234-1.313-1.234-3.672 0-2.453 1.25-3.797 1.265-1.344 3.265-1.344 1.938 0 3.156 1.328 1.235 1.313 1.235 3.704v.437h-7.219q.094 1.594.906 2.453.813.844 2.016.844.906 0 1.547-.469.64-.484 1.015-1.515m-5.39-2.657h5.406q-.11-1.218-.625-1.828-.781-.953-2.031-.953-1.125 0-1.906.766-.766.75-.844 2.015m9.594 5.766v-1.875h1.875v1.875zm11.043-3.547 1.61.219q-.266 1.656-1.36 2.61-1.078.937-2.672.937-1.984 0-3.187-1.297-1.204-1.297-1.204-3.719 0-1.578.516-2.75t1.578-1.75q1.063-.594 2.313-.594 1.578 0 2.578.797t1.281 2.266l-1.594.234q-.234-.969-.812-1.453-.578-.5-1.39-.5-1.235 0-2.016.89-.782.891-.782 2.813 0 1.953.75 2.844.75.875 1.953.875.97 0 1.61-.594.656-.594.828-1.828m2.406-1.297q0-2.687 1.485-3.969 1.25-1.078 3.046-1.078 2 0 3.266 1.313 1.266 1.297 1.266 3.61 0 1.859-.563 2.937-.562 1.062-1.64 1.656-1.063.594-2.329.594-2.03 0-3.28-1.297-1.25-1.313-1.25-3.766m1.688 0q0 1.86.797 2.797.812.922 2.046.922 1.22 0 2.032-.922.812-.937.812-2.844 0-1.797-.812-2.718-.813-.922-2.032-.922-1.234 0-2.046.922-.797.906-.797 2.765m9.297 4.844v-9.672h1.47v1.36q.452-.72 1.202-1.141.766-.438 1.719-.438 1.078 0 1.766.453.687.438.968 1.235 1.157-1.688 2.985-1.688 1.453 0 2.218.797.782.797.782 2.453v6.64h-1.64v-6.093q0-.984-.157-1.406-.156-.438-.578-.703-.422-.266-.985-.266-1.015 0-1.687.688-.672.672-.672 2.156v5.625h-1.64v-6.281q0-1.094-.407-1.641t-1.312-.547q-.688 0-1.282.36-.593.359-.859 1.062-.25.703-.25 2.031v5.016zm14.307.234 3.875-13.812h1.312l-3.86 13.812z"/><path fill="#9fc5e8" fill-rule="evenodd" d="M38.728 220.862h191.685v39.213H38.728Z"/><path stroke="#595959" stroke-linecap="butt" stroke-linejoin="round" d="M38.728 220.862h191.685v39.213H38.728Z"/><path fill="#000" d="M78.978 247.782v-13.36h5.047q1.328 0 2.031.126.97.172 1.641.64.672.454 1.078 1.282t.406 1.828q0 1.703-1.093 2.89-1.078 1.172-3.922 1.172h-3.422v5.422zm1.766-7h3.453q1.719 0 2.438-.64.718-.641.718-1.797 0-.844-.422-1.438-.421-.594-1.125-.781-.437-.125-1.64-.125h-3.422zm10.46 7v-9.672h1.468v1.47q.562-1.032 1.031-1.36.485-.328 1.063-.328.828 0 1.687.53l-.562 1.516q-.61-.359-1.203-.359-.547 0-.97.328-.421.328-.609.89-.28.876-.28 1.923v5.062zm12.852-3.11 1.688.204q-.406 1.484-1.484 2.312-1.079.813-2.766.813-2.125 0-3.375-1.297-1.234-1.312-1.234-3.672 0-2.453 1.25-3.797 1.265-1.343 3.265-1.343 1.938 0 3.156 1.328 1.235 1.312 1.235 3.703v.437h-7.219q.094 1.594.906 2.453.813.844 2.016.844.906 0 1.547-.469.64-.484 1.015-1.515m-5.39-2.655h5.406q-.11-1.22-.625-1.829-.781-.953-2.031-.953-1.125 0-1.906.766-.766.75-.844 2.016m9.094 5.765v-13.36h1.641v13.36zm3.583-4.844q0-2.687 1.484-3.968 1.25-1.078 3.047-1.078 2 0 3.265 1.312 1.266 1.297 1.266 3.61 0 1.859-.562 2.937-.563 1.062-1.641 1.656-1.063.594-2.328.594-2.031 0-3.281-1.297-1.25-1.312-1.25-3.766m1.687 0q0 1.86.797 2.797.812.922 2.047.922 1.219 0 2.031-.922.813-.937.813-2.843 0-1.797-.813-2.72-.812-.921-2.031-.921-1.235 0-2.047.922-.797.906-.797 2.765m15.61 3.657q-.922.765-1.765 1.093-.829.313-1.797.313-1.594 0-2.453-.781-.86-.782-.86-1.985 0-.718.328-1.297.328-.593.844-.937.531-.36 1.188-.547.468-.125 1.453-.25 1.984-.234 2.922-.562.015-.344.015-.422 0-1-.469-1.422-.625-.547-1.875-.547-1.156 0-1.703.406t-.812 1.422l-1.61-.219q.22-1.015.72-1.64.5-.64 1.452-.985.953-.343 2.188-.343 1.25 0 2.015.296.782.282 1.141.735.375.437.516 1.11.078.421.078 1.515v2.187q0 2.282.11 2.89.109.595.405 1.157h-1.703q-.265-.515-.328-1.187m-.14-3.672q-.891.375-2.672.625-1.016.14-1.438.328-.422.187-.656.531-.219.344-.219.781 0 .657.5 1.094t1.453.438q.938 0 1.672-.407.75-.421 1.094-1.14.266-.563.266-1.64zm10.47 4.86v-1.22q-.907 1.438-2.704 1.438-1.156 0-2.125-.64-.969-.641-1.5-1.782-.531-1.14-.531-2.625 0-1.453.484-2.625.484-1.187 1.438-1.812.968-.625 2.171-.625.875 0 1.547.375.688.359 1.11.953v-4.797h1.64v13.36zm-5.173-4.829q0 1.86.781 2.781.782.922 1.844.922 1.078 0 1.828-.875.75-.89.75-2.687 0-1.985-.765-2.907-.766-.937-1.89-.937-1.079 0-1.813.89-.735.891-.735 2.813m13.81 1.938 1.624-.25q.125.968.75 1.5.625.515 1.75.515t1.672-.453q.547-.469.547-1.094 0-.547-.484-.875-.329-.218-1.672-.547-1.813-.468-2.516-.796-.687-.329-1.047-.907-.36-.593-.36-1.312 0-.64.298-1.188.297-.562.812-.922.375-.28 1.031-.468.672-.203 1.422-.203 1.141 0 2 .328.86.328 1.266.89.422.563.578 1.5l-1.61.22q-.109-.75-.64-1.173-.516-.422-1.469-.422-1.14 0-1.625.375-.468.375-.468.875 0 .313.187.578.203.266.64.438.235.094 1.438.422 1.75.453 2.438.75.687.297 1.078.86.39.562.39 1.405 0 .829-.484 1.547-.469.72-1.375 1.125-.906.39-2.047.39-1.875 0-2.875-.78-.984-.782-1.25-2.328m16.296-.657 1.61.22q-.266 1.655-1.36 2.608-1.078.938-2.672.938-1.984 0-3.187-1.297t-1.203-3.719q0-1.578.515-2.75.516-1.172 1.578-1.75 1.063-.593 2.313-.593 1.578 0 2.578.796 1 .797 1.281 2.266l-1.594.234q-.234-.968-.812-1.453-.578-.5-1.39-.5-1.235 0-2.016.89-.782.892-.782 2.813 0 1.954.75 2.844.75.875 1.954.875.968 0 1.609-.594.656-.593.828-1.828m3 3.547v-9.672h1.469v1.47q.562-1.032 1.031-1.36.484-.328 1.063-.328.828 0 1.687.53l-.562 1.516q-.61-.359-1.204-.359-.546 0-.968.328t-.61.89q-.28.876-.28 1.923v5.062zm6.228-11.469v-1.89h1.641v1.89zm0 11.47v-9.673h1.641v9.672zm4.145 3.702V238.11h1.485v1.25q.53-.734 1.187-1.093.672-.375 1.625-.375 1.234 0 2.172.64.953.625 1.437 1.797.485 1.156.485 2.547 0 1.484-.531 2.672-.532 1.187-1.547 1.828-1.016.625-2.14.625-.813 0-1.47-.344-.656-.344-1.062-.875v4.703zm1.485-8.484q0 1.86.75 2.766.765.89 1.828.89 1.093 0 1.875-.922.781-.937.781-2.875 0-1.843-.766-2.765-.75-.922-1.812-.922-1.047 0-1.86.984-.796.969-.796 2.844m12.47 3.312.233 1.454q-.687.14-1.234.14-.89 0-1.39-.281-.485-.281-.688-.734-.203-.47-.203-1.938v-5.578h-1.203v-1.266h1.203v-2.39l1.625-.985v3.375h1.656v1.266h-1.656v5.672q0 .687.078.89.094.204.281.329.203.109.578.109.266 0 .719-.063"/><path fill="#9fc5e8" fill-rule="evenodd" d="M259.755 220.862H451.44v39.213H259.755z"/><path stroke="#595959" stroke-linecap="butt" stroke-linejoin="round" d="M259.755 220.862H451.44v39.213H259.755z"/><path fill="#000" d="M300.005 247.782v-13.36h5.046q1.329 0 2.032.126.968.172 1.64.64.672.454 1.078 1.282t.407 1.828q0 1.703-1.094 2.89-1.078 1.172-3.922 1.172h-3.422v5.422zm1.765-7h3.453q1.72 0 2.438-.64.719-.641.719-1.797 0-.844-.422-1.438t-1.125-.781q-.438-.125-1.64-.125h-3.423zm10.46 7v-9.672h1.468v1.47q.563-1.032 1.031-1.36.485-.328 1.063-.328.828 0 1.687.53l-.562 1.516q-.61-.359-1.203-.359-.547 0-.969.328t-.61.89q-.28.876-.28 1.923v5.062zm12.853-3.11 1.687.204q-.406 1.484-1.484 2.312-1.078.813-2.766.813-2.125 0-3.375-1.297-1.234-1.312-1.234-3.672 0-2.453 1.25-3.797 1.265-1.343 3.265-1.343 1.938 0 3.157 1.328 1.234 1.312 1.234 3.703v.437h-7.219q.094 1.594.907 2.453.812.844 2.015.844.906 0 1.547-.469.64-.484 1.016-1.515m-5.39-2.655h5.405q-.109-1.22-.625-1.829-.78-.953-2.03-.953-1.126 0-1.907.766-.766.75-.844 2.016m9.094 5.765v-13.36h1.64v13.36zm3.582-4.844q0-2.687 1.484-3.968 1.25-1.078 3.047-1.078 2 0 3.266 1.312 1.265 1.297 1.265 3.61 0 1.859-.562 2.937-.563 1.062-1.64 1.656-1.063.594-2.329.594-2.031 0-3.281-1.297-1.25-1.312-1.25-3.766m1.687 0q0 1.86.797 2.797.813.922 2.047.922 1.219 0 2.031-.922.813-.937.813-2.843 0-1.797-.813-2.72-.812-.921-2.03-.921-1.235 0-2.048.922-.797.906-.797 2.765m15.61 3.657q-.921.765-1.765 1.093-.828.313-1.797.313-1.594 0-2.453-.781-.86-.782-.86-1.985 0-.718.329-1.297.328-.593.843-.937.532-.36 1.188-.547.469-.125 1.453-.25 1.984-.234 2.922-.562.015-.344.015-.422 0-1-.468-1.422-.625-.547-1.875-.547-1.157 0-1.703.406-.547.406-.813 1.422l-1.61-.219q.22-1.015.72-1.64.5-.64 1.453-.985.953-.343 2.187-.343 1.25 0 2.016.296.78.282 1.14.735.375.437.516 1.11.078.421.078 1.515v2.187q0 2.282.11 2.89.109.595.406 1.157h-1.703q-.266-.515-.329-1.187m-.14-3.672q-.89.375-2.672.625-1.016.14-1.438.328-.421.187-.656.531-.219.344-.219.781 0 .657.5 1.094t1.454.438q.937 0 1.671-.407.75-.421 1.094-1.14.266-.563.266-1.64zm10.47 4.86v-1.22q-.907 1.438-2.704 1.438-1.156 0-2.125-.64-.969-.641-1.5-1.782-.531-1.14-.531-2.625 0-1.453.484-2.625.485-1.187 1.438-1.812.969-.625 2.172-.625.875 0 1.547.375.687.359 1.109.953v-4.797h1.64v13.36zm-5.173-4.829q0 1.86.782 2.781.78.922 1.843.922 1.079 0 1.829-.875.75-.89.75-2.687 0-1.985-.766-2.907-.766-.937-1.89-.937-1.079 0-1.813.89-.735.891-.735 2.813m13.81 1.938 1.624-.25q.125.968.75 1.5.625.515 1.75.515t1.672-.453q.547-.469.547-1.094 0-.547-.484-.875-.328-.218-1.672-.547-1.813-.468-2.516-.796-.687-.329-1.047-.907-.359-.593-.359-1.312 0-.64.297-1.188.297-.562.812-.922.375-.28 1.032-.468.672-.203 1.422-.203 1.14 0 2 .328.859.328 1.265.89.422.563.578 1.5l-1.609.22q-.11-.75-.64-1.173-.516-.422-1.47-.422-1.14 0-1.624.375-.47.375-.47.875 0 .313.188.578.203.266.641.438.234.094 1.437.422 1.75.453 2.438.75.687.297 1.078.86.39.562.39 1.405 0 .829-.484 1.547-.468.72-1.375 1.125-.906.39-2.047.39-1.875 0-2.875-.78-.984-.782-1.25-2.328m16.296-.657 1.61.22q-.266 1.655-1.36 2.608-1.078.938-2.672.938-1.984 0-3.187-1.297t-1.203-3.719q0-1.578.515-2.75.516-1.172 1.579-1.75 1.062-.593 2.312-.593 1.578 0 2.578.796 1 .797 1.281 2.266l-1.593.234q-.235-.968-.813-1.453-.578-.5-1.39-.5-1.235 0-2.016.89-.781.892-.781 2.813 0 1.954.75 2.844.75.875 1.953.875.969 0 1.61-.594.655-.593.827-1.828m3 3.547v-9.672h1.47v1.47q.562-1.032 1.03-1.36.485-.328 1.063-.328.828 0 1.687.53l-.562 1.516q-.61-.359-1.203-.359-.547 0-.969.328t-.61.89q-.28.876-.28 1.923v5.062zm6.229-11.469v-1.89h1.64v1.89zm0 11.47v-9.673h1.64v9.672zm4.144 3.702V238.11h1.485v1.25q.531-.734 1.187-1.093.672-.375 1.625-.375 1.235 0 2.172.64.953.625 1.438 1.797.484 1.156.484 2.547 0 1.484-.531 2.672-.531 1.187-1.547 1.828-1.016.625-2.14.625-.813 0-1.47-.344-.656-.344-1.062-.875v4.703zm1.485-8.484q0 1.86.75 2.766.765.89 1.828.89 1.094 0 1.875-.922.781-.937.781-2.875 0-1.843-.765-2.765-.75-.922-1.813-.922-1.047 0-1.86.984-.796.969-.796 2.844m12.47 3.312.234 1.454q-.688.14-1.235.14-.89 0-1.39-.281-.485-.281-.688-.734-.203-.47-.203-1.938v-5.578h-1.203v-1.266h1.203v-2.39l1.625-.985v3.375h1.656v1.266H410.6v5.672q0 .687.078.89.094.204.281.329.204.109.579.109.265 0 .718-.063"/><g fill-rule="evenodd" transform="translate(24.209 44.813)scale(.16764)"><circle cx="128" cy="128" r="128" fill="#2b2e3a"/><g fill="#9feaf9" fill-rule="nonzero"><path d="M100.502 71.69c-26.005-4.736-46.567.221-54.762 14.415-6.115 10.592-4.367 24.635 4.24 39.646a2.667 2.667 0 1 0 4.626-2.653c-7.752-13.522-9.261-25.641-4.247-34.326 6.808-11.791 25.148-16.213 49.187-11.835a2.667 2.667 0 0 0 .956-5.247m-36.999 72.307c10.515 11.555 24.176 22.394 39.756 31.388 37.723 21.78 77.883 27.601 97.675 14.106a2.667 2.667 0 1 0-3.005-4.406c-17.714 12.078-55.862 6.548-92.003-14.318-15.114-8.726-28.343-19.222-38.478-30.36a2.667 2.667 0 1 0-3.945 3.59"/><path d="M194.62 140.753c17.028-20.116 22.973-40.348 14.795-54.512-6.017-10.423-18.738-15.926-35.645-16.146a2.667 2.667 0 0 0-.069 5.333c15.205.198 26.165 4.939 31.096 13.48 6.792 11.765 1.49 29.807-14.248 48.399a2.667 2.667 0 1 0 4.071 3.446m-43.761-68.175c-15.396 3.299-31.784 9.749-47.522 18.835-38.942 22.483-64.345 55.636-60.817 79.675a2.667 2.667 0 1 0 5.277-.775c-3.133-21.344 20.947-52.769 58.207-74.281 15.267-8.815 31.135-15.06 45.972-18.239a2.667 2.667 0 1 0-1.117-5.215"/><path d="M87.77 187.753c8.904 24.86 23.469 40.167 39.847 40.167 11.945 0 22.996-8.143 31.614-22.478a2.667 2.667 0 1 0-4.571-2.748c-7.745 12.883-17.258 19.892-27.043 19.892-13.605 0-26.596-13.652-34.825-36.63a2.667 2.667 0 1 0-5.021 1.797zm81.322-4.863c4.61-14.728 7.085-31.718 7.085-49.423 0-44.179-15.463-82.263-37.487-92.042a2.667 2.667 0 0 0-2.164 4.874c19.643 8.723 34.317 44.866 34.317 87.168 0 17.177-2.397 33.63-6.84 47.83a2.667 2.667 0 1 0 5.09 1.593zm50.224-2.612c0-7.049-5.714-12.763-12.763-12.763s-12.763 5.714-12.763 12.763 5.714 12.763 12.763 12.763 12.763-5.714 12.763-12.763m-5.333 0a7.43 7.43 0 1 1-14.86 0 7.43 7.43 0 0 1 14.86 0M48.497 193.041c7.05 0 12.764-5.714 12.764-12.763s-5.715-12.763-12.764-12.763-12.763 5.714-12.763 12.763 5.715 12.763 12.763 12.763m0-5.333a7.43 7.43 0 1 1 0-14.86 7.43 7.43 0 0 1 0 14.86"/><path d="M127.617 54.444c7.049 0 12.763-5.714 12.763-12.763s-5.714-12.763-12.763-12.763-12.763 5.714-12.763 12.763 5.714 12.763 12.763 12.763m0-5.333a7.43 7.43 0 1 1 0-14.86 7.43 7.43 0 0 1 0 14.86m1.949 93.382c-4.985 1.077-9.896-2.091-10.975-7.076a9.236 9.236 0 0 1 7.076-10.976c4.985-1.077 9.896 2.091 10.976 7.076 1.077 4.985-2.091 9.897-7.077 10.976"/></g></g></svg>