<svg xmlns="http://www.w3.org/2000/svg" width="600" height="371" fill="none" stroke-linecap="square" stroke-miterlimit="10"><path fill="#fff" d="M0 0h600v371H0z"/><path stroke="#333" stroke-linecap="butt" d="M77.5 300.5h504"/><path stroke="#ccc" stroke-linecap="butt" d="M77.5 231.5h504M77.5 163.5h504M77.5 94.5h504M77.5 25.5h504"/><clipPath id="a"><path d="M77.55 25.55h503.9v274.9H77.55z"/></clipPath><path d="M92 300H82v-11a2 2 0 0 1 2-2h6a2 2 0 0 1 2 2Z" clip-path="url(#a)"/><path fill="#4285f4" d="M92 300H82v-11a2 2 0 0 1 2-2h6a2 2 0 0 1 2 2Z" clip-path="url(#a)"/><path d="M107 300H97v-39a2 2 0 0 1 2-2h6a2 2 0 0 1 2 2Z" clip-path="url(#a)"/><path fill="#4285f4" d="M107 300H97v-39a2 2 0 0 1 2-2h6a2 2 0 0 1 2 2Z" clip-path="url(#a)"/><path d="M122 300h-10v-11a2 2 0 0 1 2-2h6a2 2 0 0 1 2 2Z" clip-path="url(#a)"/><path fill="#4285f4" d="M122 300h-10v-11a2 2 0 0 1 2-2h6a2 2 0 0 1 2 2Z" clip-path="url(#a)"/><path d="M136 300h-10v-11a2 2 0 0 1 2-2h6a2 2 0 0 1 2 2Z" clip-path="url(#a)"/><path fill="#4285f4" d="M136 300h-10v-11a2 2 0 0 1 2-2h6a2 2 0 0 1 2 2Z" clip-path="url(#a)"/><path d="M151 300h-10z" clip-path="url(#a)"/><path fill="#4285f4" d="M151 300h-10z" clip-path="url(#a)"/><path d="M166 300h-10v-25a2 2 0 0 1 2-2h6a2 2 0 0 1 2 2Z" clip-path="url(#a)"/><path fill="#4285f4" d="M166 300h-10v-25a2 2 0 0 1 2-2h6a2 2 0 0 1 2 2Z" clip-path="url(#a)"/><path d="M180 300h-10z" clip-path="url(#a)"/><path fill="#4285f4" d="M180 300h-10z" clip-path="url(#a)"/><path d="M195 300h-10z" clip-path="url(#a)"/><path fill="#4285f4" d="M195 300h-10z" clip-path="url(#a)"/><path d="M210 300h-10z" clip-path="url(#a)"/><path fill="#4285f4" d="M210 300h-10z" clip-path="url(#a)"/><path d="M224 300h-10v-11a2 2 0 0 1 2-2h6a2 2 0 0 1 2 2Z" clip-path="url(#a)"/><path fill="#4285f4" d="M224 300h-10v-11a2 2 0 0 1 2-2h6a2 2 0 0 1 2 2Z" clip-path="url(#a)"/><path d="M239 300h-10z" clip-path="url(#a)"/><path fill="#4285f4" d="M239 300h-10z" clip-path="url(#a)"/><path d="M254 300h-10v-39a2 2 0 0 1 2-2h6a2 2 0 0 1 2 2Z" clip-path="url(#a)"/><path fill="#4285f4" d="M254 300h-10v-39a2 2 0 0 1 2-2h6a2 2 0 0 1 2 2Z" clip-path="url(#a)"/><path d="M268 300h-10v-53a2 2 0 0 1 2-2h6a2 2 0 0 1 2 2Z" clip-path="url(#a)"/><path fill="#4285f4" d="M268 300h-10v-53a2 2 0 0 1 2-2h6a2 2 0 0 1 2 2Z" clip-path="url(#a)"/><path d="M283 300h-10v-25a2 2 0 0 1 2-2h6a2 2 0 0 1 2 2Z" clip-path="url(#a)"/><path fill="#4285f4" d="M283 300h-10v-25a2 2 0 0 1 2-2h6a2 2 0 0 1 2 2Z" clip-path="url(#a)"/><path d="M298 300h-10v-39a2 2 0 0 1 2-2h6a2 2 0 0 1 2 2Z" clip-path="url(#a)"/><path fill="#4285f4" d="M298 300h-10v-39a2 2 0 0 1 2-2h6a2 2 0 0 1 2 2Z" clip-path="url(#a)"/><path d="M312 300h-10v-39a2 2 0 0 1 2-2h6a2 2 0 0 1 2 2Z" clip-path="url(#a)"/><path fill="#4285f4" d="M312 300h-10v-39a2 2 0 0 1 2-2h6a2 2 0 0 1 2 2Z" clip-path="url(#a)"/><path d="M327 300h-10z" clip-path="url(#a)"/><path fill="#4285f4" d="M327 300h-10z" clip-path="url(#a)"/><path d="M342 300h-10v-11a2 2 0 0 1 2-2h6a2 2 0 0 1 2 2Z" clip-path="url(#a)"/><path fill="#4285f4" d="M342 300h-10v-11a2 2 0 0 1 2-2h6a2 2 0 0 1 2 2Z" clip-path="url(#a)"/><path d="M357 300h-10v-11a2 2 0 0 1 2-2h6a2 2 0 0 1 2 2Z" clip-path="url(#a)"/><path fill="#4285f4" d="M357 300h-10v-11a2 2 0 0 1 2-2h6a2 2 0 0 1 2 2Z" clip-path="url(#a)"/><path d="M371 300h-10v-53a2 2 0 0 1 2-2h6a2 2 0 0 1 2 2Z" clip-path="url(#a)"/><path fill="#4285f4" d="M371 300h-10v-53a2 2 0 0 1 2-2h6a2 2 0 0 1 2 2Z" clip-path="url(#a)"/><path d="M386 300h-10v-25a2 2 0 0 1 2-2h6a2 2 0 0 1 2 2Z" clip-path="url(#a)"/><path fill="#4285f4" d="M386 300h-10v-25a2 2 0 0 1 2-2h6a2 2 0 0 1 2 2Z" clip-path="url(#a)"/><path d="M401 300h-10v-11a2 2 0 0 1 2-2h6a2 2 0 0 1 2 2Z" clip-path="url(#a)"/><path fill="#4285f4" d="M401 300h-10v-11a2 2 0 0 1 2-2h6a2 2 0 0 1 2 2Z" clip-path="url(#a)"/><path d="M415 300h-10v-66a2 2 0 0 1 2-2h6a2 2 0 0 1 2 2Z" clip-path="url(#a)"/><path fill="#4285f4" d="M415 300h-10v-66a2 2 0 0 1 2-2h6a2 2 0 0 1 2 2Z" clip-path="url(#a)"/><path d="M430 300h-10v-25a2 2 0 0 1 2-2h6a2 2 0 0 1 2 2Z" clip-path="url(#a)"/><path fill="#4285f4" d="M430 300h-10v-25a2 2 0 0 1 2-2h6a2 2 0 0 1 2 2Z" clip-path="url(#a)"/><path d="M445 300h-10v-11a2 2 0 0 1 2-2h6a2 2 0 0 1 2 2Z" clip-path="url(#a)"/><path fill="#4285f4" d="M445 300h-10v-11a2 2 0 0 1 2-2h6a2 2 0 0 1 2 2Z" clip-path="url(#a)"/><path d="M459 300h-10v-11a2 2 0 0 1 2-2h6a2 2 0 0 1 2 2Z" clip-path="url(#a)"/><path fill="#4285f4" d="M459 300h-10v-11a2 2 0 0 1 2-2h6a2 2 0 0 1 2 2Z" clip-path="url(#a)"/><path d="M474 300h-10v-80a2 2 0 0 1 2-2h6a2 2 0 0 1 2 2Z" clip-path="url(#a)"/><path fill="#4285f4" d="M474 300h-10v-80a2 2 0 0 1 2-2h6a2 2 0 0 1 2 2Z" clip-path="url(#a)"/><path d="M489 300h-10v-53a2 2 0 0 1 2-2h6a2 2 0 0 1 2 2Z" clip-path="url(#a)"/><path fill="#4285f4" d="M489 300h-10v-53a2 2 0 0 1 2-2h6a2 2 0 0 1 2 2Z" clip-path="url(#a)"/><path d="M503 300h-10v-25a2 2 0 0 1 2-2h6a2 2 0 0 1 2 2Z" clip-path="url(#a)"/><path fill="#4285f4" d="M503 300h-10v-25a2 2 0 0 1 2-2h6a2 2 0 0 1 2 2Z" clip-path="url(#a)"/><path d="M518 300h-10v-66a2 2 0 0 1 2-2h6a2 2 0 0 1 2 2Z" clip-path="url(#a)"/><path fill="#4285f4" d="M518 300h-10v-66a2 2 0 0 1 2-2h6a2 2 0 0 1 2 2Z" clip-path="url(#a)"/><path d="M533 300h-10V192a2 2 0 0 1 2-2h6a2 2 0 0 1 2 2Z" clip-path="url(#a)"/><path fill="#4285f4" d="M533 300h-10V192a2 2 0 0 1 2-2h6a2 2 0 0 1 2 2Z" clip-path="url(#a)"/><path d="M547 300h-10V55a2 2 0 0 1 2-2h6a2 2 0 0 1 2 2Z" clip-path="url(#a)"/><path fill="#4285f4" d="M547 300h-10V55a2 2 0 0 1 2-2h6a2 2 0 0 1 2 2Z" clip-path="url(#a)"/><path d="M562 300h-10V83a2 2 0 0 1 2-2h6a2 2 0 0 1 2 2Z" clip-path="url(#a)"/><path fill="#4285f4" d="M562 300h-10V83a2 2 0 0 1 2-2h6a2 2 0 0 1 2 2Z" clip-path="url(#a)"/><path d="M577 300h-10V151a2 2 0 0 1 2-2h6a2 2 0 0 1 2 2Z" clip-path="url(#a)"/><path fill="#4285f4" d="M577 300h-10V151a2 2 0 0 1 2-2h6a2 2 0 0 1 2 2Z" clip-path="url(#a)"/><path fill="#000" d="M285.453 349.45v-8.594h6.203v1.016h-5.062v2.625h4.75v1.015h-4.75v2.922h5.265v1.016zm7.813 0v-8.594h1.062v8.594zm7.28-2 1.095.125q-.25.953-.954 1.484-.703.532-1.78.532-1.36 0-2.173-.844-.796-.844-.796-2.36 0-1.562.812-2.421.813-.875 2.094-.875 1.25 0 2.031.843.797.844.797 2.391v.281h-4.64q.062 1.031.577 1.578.516.532 1.297.532.578 0 .985-.297.421-.313.656-.969m-3.452-1.703h3.469q-.063-.797-.391-1.188-.516-.609-1.313-.609-.734 0-1.234.484-.484.485-.531 1.313m10.265 1.422 1.032.14q-.172 1.063-.875 1.672-.704.61-1.72.61-1.28 0-2.062-.829-.765-.843-.765-2.406 0-1 .328-1.75.344-.765 1.015-1.14.688-.375 1.5-.375 1 0 1.641.515.656.5.844 1.453l-1.031.157q-.141-.625-.516-.938-.375-.328-.906-.328-.797 0-1.297.578-.5.563-.5 1.797 0 1.266.484 1.828.485.563 1.25.563.625 0 1.031-.375.422-.375.547-1.172m4.235 1.344.156.921q-.453.094-.797.094-.578 0-.89-.172-.313-.187-.454-.484-.125-.297-.125-1.25v-3.578h-.765v-.813h.765v-1.547l1.047-.625v2.172h1.063v.813h-1.063v3.64q0 .453.047.578.063.125.188.204t.359.078q.188 0 .469-.031m.687.937v-6.219h.953v.938q.36-.656.657-.86.312-.218.687-.218.531 0 1.078.328l-.36.984q-.39-.234-.765-.234-.36 0-.64.219-.266.203-.375.578-.188.562-.188 1.218v3.266zm3.625-3.11q0-1.734.953-2.562.797-.687 1.954-.687 1.28 0 2.093.843.828.828.828 2.313 0 1.203-.359 1.89-.36.688-1.062 1.079-.688.375-1.5.375-1.297 0-2.11-.829-.797-.843-.797-2.421m1.078 0q0 1.188.516 1.782.531.594 1.313.594.796 0 1.312-.594t.516-1.813q0-1.156-.532-1.75-.515-.593-1.296-.593-.782 0-1.313.593-.516.578-.516 1.782m6.313 3.11v-6.219h.937v.875q.688-1.015 1.985-1.015.562 0 1.031.203.484.203.719.531t.328.766q.047.296.047 1.03v3.829h-1.047v-3.781q0-.656-.125-.969t-.438-.5q-.312-.203-.734-.203-.672 0-1.172.437-.484.422-.484 1.61v3.406zm12.578 0-3.328-8.594h1.234l2.235 6.25q.265.75.453 1.406.203-.703.469-1.406l2.312-6.25h1.156l-3.36 8.594zm8.672-2 1.094.125q-.25.953-.954 1.484-.703.532-1.78.532-1.36 0-2.173-.844-.796-.844-.796-2.36 0-1.562.812-2.421.813-.875 2.094-.875 1.25 0 2.031.843.797.844.797 2.391v.281h-4.64q.062 1.031.577 1.578.516.532 1.297.532.578 0 .985-.297.421-.313.656-.969m-3.453-1.703h3.469q-.063-.797-.391-1.188-.516-.609-1.313-.609-.734 0-1.234.484-.484.485-.531 1.313m6.187 3.703v-6.219h.953v.938q.36-.656.657-.86.312-.218.687-.218.531 0 1.078.328l-.36.984q-.39-.234-.765-.234-.36 0-.64.219-.266.203-.375.578-.188.562-.188 1.218v3.266zm3.594-1.86 1.031-.156q.094.625.485.953.406.329 1.14.329.719 0 1.063-.282.36-.297.36-.703 0-.36-.313-.562-.22-.14-1.079-.36-1.156-.297-1.609-.5-.437-.218-.672-.593-.234-.375-.234-.844 0-.406.187-.766.188-.36.516-.594.25-.171.672-.296t.922-.125q.719 0 1.265.218.563.203.829.563.265.36.359.953l-1.031.14q-.063-.468-.407-.734-.328-.281-.953-.281-.719 0-1.031.25-.312.234-.312.563 0 .203.125.359.14.172.406.281.156.063.937.266 1.125.312 1.563.5.437.187.687.547.25.359.25.906 0 .531-.312 1-.297.453-.875.719-.578.25-1.313.25-1.219 0-1.86-.5-.624-.516-.796-1.5m7.422-5.515v-1.219h1.062v1.219zm0 7.375v-6.219h1.062v6.219zm2.61-3.11q0-1.734.952-2.562.797-.687 1.954-.687 1.28 0 2.093.843.828.828.828 2.313 0 1.203-.359 1.89-.36.688-1.062 1.079-.688.375-1.5.375-1.297 0-2.11-.829-.797-.843-.797-2.421m1.077 0q0 1.188.516 1.782.531.594 1.313.594.796 0 1.312-.594t.516-1.813q0-1.156-.532-1.75-.515-.593-1.296-.593-.782 0-1.313.593-.516.578-.516 1.782m6.313 3.11v-6.219h.937v.875q.688-1.015 1.985-1.015.562 0 1.031.203.484.203.719.531t.328.766q.047.296.047 1.03v3.829h-1.047v-3.781q0-.656-.125-.969t-.438-.5q-.312-.203-.734-.203-.672 0-1.172.437-.484.422-.484 1.61v3.406zM29.69 194.39l-2.484-.5v.985h-.875v-1.172l-2.125-.422v1.594h-.875v-1.781l-2.515-.5v-.875l2.515.5v-1.844l-2.515-.516v-.875l2.515.5v-1h.875v1.188l2.125.437v-1.625h.875v1.797l2.485.516v.875l-2.485-.5V193l2.485.516zm-3.359-1.562v-1.844l-2.125-.437v1.844zm.11-8.234q-1.735 0-2.563-.953-.687-.797-.687-1.953 0-1.282.843-2.094.829-.828 2.313-.828 1.203 0 1.89.359.688.36 1.079 1.063.375.687.375 1.5 0 1.296-.828 2.109-.844.797-2.422.797m0-1.078q1.187 0 1.78-.516.595-.531.595-1.312 0-.797-.594-1.313t-1.813-.516q-1.156 0-1.75.532-.593.515-.593 1.297 0 .78.593 1.312.579.516 1.782.516m3.109-6.563h-5.406v.938h-.813v-.938h-.672q-.625 0-.921-.11-.422-.155-.672-.53-.25-.391-.25-1.079 0-.453.109-.984l.906.156q-.047.328-.047.625 0 .485.204.688.203.187.765.187h.578v-1.219h.813v1.22h5.406zm-.766-9.812q.5.593.704 1.14.203.531.203 1.156 0 1.032-.5 1.579t-1.282.547q-.453 0-.828-.204-.39-.203-.61-.547-.233-.343-.343-.765-.094-.297-.172-.938-.14-1.265-.36-1.875h-.265q-.656 0-.922.297-.343.406-.343 1.203 0 .735.265 1.094.25.36.907.531l-.141 1.032q-.656-.141-1.063-.47-.406-.327-.625-.937-.218-.609-.218-1.406t.187-1.297.469-.734.719-.328q.265-.047.968-.047h1.407q1.468 0 1.859-.063.39-.078.75-.28v1.108q-.328.157-.766.204m-2.359.093q.234.578.406 1.72.094.655.219.921.11.266.328.422.219.14.5.14.422 0 .703-.312.282-.328.282-.937 0-.61-.266-1.079-.266-.484-.734-.703-.36-.172-1.047-.172zm5.516-3.03h-8.61v-.954h.797q-.469-.344-.703-.766-.234-.437-.234-1.047 0-.796.406-1.406t1.156-.906q.75-.312 1.64-.312.954 0 1.72.343.765.328 1.171.985.407.656.407 1.375 0 .53-.22.953-.233.422-.562.687h3.032zm-5.47-.954q1.204 0 1.782-.484.563-.485.563-1.172 0-.703-.594-1.203t-1.844-.5q-1.187 0-1.765.484-.594.484-.594 1.172 0 .672.625 1.187.625.516 1.828.516m5.47-6.047h-8.61v-.953h.797q-.469-.344-.703-.766-.234-.437-.234-1.047 0-.796.406-1.406t1.156-.906q.75-.312 1.64-.312.954 0 1.72.343.765.328 1.171.985.407.656.407 1.375 0 .53-.22.953-.233.422-.562.687h3.032zm-5.47-.953q1.204 0 1.782-.484.563-.485.563-1.172 0-.703-.594-1.203t-1.844-.5q-1.187 0-1.765.484-.594.484-.594 1.172 0 .672.625 1.187.625.516 1.828.516m1.22-5.625-.157-1.031q.625-.094.954-.485.328-.406.328-1.14 0-.719-.282-1.063-.296-.36-.703-.36-.36 0-.562.313-.14.22-.36 1.078-.296 1.157-.5 1.61-.218.437-.593.672-.375.234-.844.234-.406 0-.766-.187-.36-.188-.593-.516-.172-.25-.297-.672t-.125-.922q0-.719.218-1.265.204-.563.563-.828.36-.266.953-.36l.14 1.031q-.468.063-.734.407-.281.328-.281.953 0 .719.25 1.031.234.313.563.313.203 0 .359-.125.172-.141.281-.407.063-.156.266-.937.312-1.125.5-1.563.187-.437.547-.687.359-.25.906-.25.531 0 1 .312.453.297.719.875.25.578.25 1.313 0 1.219-.5 1.86-.516.624-1.5.796M65.05 300.216q0-1.532.313-2.454.312-.937.921-1.437.625-.5 1.563-.5.687 0 1.203.281.531.281.875.813.344.515.531 1.265t.188 2.032q0 1.515-.313 2.437-.297.922-.922 1.438-.609.5-1.562.5-1.234 0-1.953-.891-.844-1.062-.844-3.484m1.078 0q0 2.109.5 2.812t1.219.703q.734 0 1.219-.703.5-.703.5-2.812 0-2.125-.5-2.813-.485-.703-1.235-.703-.719 0-1.156.61-.547.78-.547 2.906M65.05 233.475l1.11-.094q.124.813.562 1.219.453.406 1.094.406.75 0 1.28-.578.532-.578.532-1.516 0-.906-.516-1.421-.5-.532-1.328-.532-.5 0-.922.235-.406.234-.64.594l-.984-.126.828-4.406h4.28v1H66.91l-.453 2.313q.766-.547 1.61-.547 1.125 0 1.89.781.781.781.781 2.016 0 1.156-.671 2.015-.829 1.032-2.25 1.032-1.172 0-1.922-.657-.735-.656-.844-1.734M62.019 167h-1.047v-6.719q-.39.36-1.016.735-.61.359-1.094.53v-1.015q.875-.422 1.532-1 .672-.594.953-1.156h.672zm3.031-4.234q0-1.532.313-2.453.312-.938.921-1.438.625-.5 1.563-.5.687 0 1.203.281.531.281.875.813.344.515.531 1.265t.188 2.032q0 1.515-.313 2.437-.297.922-.922 1.438-.609.5-1.562.5-1.234 0-1.953-.891-.844-1.062-.844-3.484m1.078 0q0 2.109.5 2.812t1.219.703q.734 0 1.219-.703.5-.703.5-2.812 0-2.125-.5-2.813-.485-.703-1.235-.703-.719 0-1.156.61-.547.78-.547 2.906M62.019 98.275h-1.047v-6.719q-.39.36-1.016.735-.61.359-1.094.53v-1.015q.875-.422 1.532-1 .672-.593.953-1.156h.672zm3.031-2.25 1.11-.094q.124.813.562 1.219.453.406 1.094.406.75 0 1.28-.578.532-.578.532-1.515 0-.907-.516-1.422-.5-.532-1.328-.532-.5 0-.922.235-.406.234-.64.594l-.984-.125.828-4.407h4.28v1H66.91l-.453 2.313q.766-.547 1.61-.547 1.125 0 1.89.781.781.781.781 2.016 0 1.156-.671 2.015-.829 1.032-2.25 1.032-1.172 0-1.922-.657-.735-.656-.844-1.734M63.597 28.534v1.016h-5.688q0-.375.125-.734.22-.578.688-1.141.484-.562 1.39-1.297 1.407-1.156 1.891-1.828.5-.672.5-1.266 0-.625-.453-1.046-.453-.438-1.172-.438-.766 0-1.219.453t-.468 1.266l-1.079-.11q.11-1.218.829-1.843.734-.641 1.968-.641 1.235 0 1.953.688.72.687.72 1.703 0 .515-.22 1.015-.203.485-.703 1.047-.484.547-1.609 1.5-.953.797-1.234 1.094-.266.281-.438.562zm1.453-3.218q0-1.532.313-2.453.312-.938.921-1.438.625-.5 1.563-.5.687 0 1.203.281.531.282.875.813.344.515.531 1.265t.188 2.032q0 1.515-.313 2.437-.297.922-.922 1.438-.609.5-1.562.5-1.234 0-1.953-.891-.844-1.062-.844-3.484m1.078 0q0 2.109.5 2.812t1.219.703q.734 0 1.219-.703.5-.703.5-2.812 0-2.125-.5-2.813-.485-.703-1.235-.703-.719 0-1.156.61-.547.78-.547 2.906M87.218 312.95q-1.532 0-2.454-.313-.937-.312-1.437-.921-.5-.625-.5-1.563 0-.687.281-1.203.281-.531.813-.875.515-.344 1.265-.531t2.032-.188q1.515 0 2.437.313.922.297 1.438.922.5.609.5 1.562 0 1.234-.891 1.953-1.063.844-3.484.844m0-1.078q2.109 0 2.812-.5t.703-1.219q0-.734-.703-1.219-.703-.5-2.812-.5-2.125 0-2.813.5-.703.485-.703 1.235 0 .718.61 1.156.78.547 2.906.547M106.122 308.981v1.047h-6.72q.36.39.735 1.016.36.61.531 1.094h-1.015q-.422-.875-1-1.532-.594-.672-1.156-.953v-.672zM119.775 307.403h1.016v5.688q-.375 0-.734-.125-.578-.22-1.14-.688-.563-.484-1.298-1.39-1.156-1.407-1.828-1.891-.672-.5-1.266-.5-.625 0-1.046.453-.438.453-.438 1.172 0 .765.453 1.219.453.453 1.266.468l-.11 1.078q-1.218-.109-1.843-.828-.64-.734-.64-1.968 0-1.235.687-1.954t1.703-.718q.515 0 1.015.219.485.203 1.047.703.547.484 1.5 1.609.797.953 1.094 1.234.281.266.562.438zM133.195 312.95l-.14-1.062q.89-.172 1.296-.61.39-.437.39-1.062 0-.75-.515-1.266t-1.28-.516q-.72 0-1.188.485-.485.469-.485 1.203 0 .297.125.75l-.937-.125q.015-.11.015-.172 0-.672-.343-1.203-.36-.547-1.094-.547-.578 0-.953.39-.39.391-.39 1.016 0 .61.39 1.031.39.407 1.156.516l-.188 1.063q-1.046-.188-1.625-.875-.593-.688-.593-1.704 0-.703.312-1.296.297-.594.813-.907.515-.312 1.11-.312.546 0 1.015.297.453.297.718.875.172-.75.735-1.172.547-.422 1.39-.422 1.125 0 1.907.828.78.813.78 2.063 0 1.125-.67 1.875-.688.75-1.75.859M150.13 309.575h-2.062v3.719h-.969l-5.562-3.922v-.86h5.562v-1.156h.969v1.156h2.062zm-3.031 0h-3.86l3.86 2.688zM162.55 312.95l-.094-1.11q.813-.124 1.219-.562.406-.453.406-1.094 0-.75-.578-1.28-.578-.532-1.516-.532-.906 0-1.422.515-.53.5-.53 1.329 0 .5.234.921.234.407.593.641l-.125.984-4.406-.828v-4.28h1v3.437l2.313.453q-.547-.766-.547-1.61 0-1.125.781-1.89.781-.781 2.016-.781 1.156 0 2.015.671 1.031.828 1.031 2.25 0 1.172-.656 1.922-.656.735-1.734.844M172.985 307.481l.078 1.047q-.625.14-.906.39-.453.438-.453 1.063 0 .5.281.89.375.485 1.078.782.688.281 1.969.297-.578-.375-.86-.922-.28-.562-.28-1.172 0-1.047.78-1.781.782-.75 2-.75.813 0 1.516.36.688.343 1.063.952.359.61.359 1.375 0 1.329-.969 2.157-.968.828-3.187.828-2.5 0-3.625-.922-.985-.797-.985-2.156 0-1.016.579-1.656.562-.657 1.562-.782m3.703 4.297q.547 0 1.047-.219.484-.234.75-.64.266-.422.266-.89 0-.657-.532-1.142-.546-.484-1.468-.484-.891 0-1.407.484-.515.47-.515 1.188 0 .719.515 1.219.516.484 1.344.484M186.67 312.887h-1.015v-5.562h.828q.875.812 2.328 1.625 1.437.797 2.969 1.234 1.078.328 2.359.407v1.093q-1.016-.015-2.453-.39-1.438-.39-2.766-1.094-1.328-.719-2.25-1.531zM204.152 311.325q-.25.656-.687.984-.453.313-1.063.313-.937 0-1.578-.672-.64-.688-.64-1.797 0-1.125.656-1.812t1.594-.688q.593 0 1.03.313.438.312.688.953.25-.797.828-1.203.579-.407 1.375-.407 1.094 0 1.844.782.75.765.75 2.046 0 1.266-.75 2.047t-1.875.782q-.844 0-1.406-.422-.563-.438-.766-1.219m-1.797.219q.61 0 1-.39.391-.407.391-1.032 0-.61-.375-1-.39-.39-.953-.39-.578 0-.969.405-.406.407-.406 1 0 .61.39 1.016.391.39.922.39m3.97.328q.452 0 .874-.203.422-.219.656-.64.235-.423.235-.907 0-.75-.485-1.235-.484-.5-1.234-.5-.766 0-1.266.5t-.5 1.266q0 .75.5 1.234.485.485 1.22.485M221.494 312.794l-.094-1.016q.719-.125 1.047-.484.312-.375.312-.938 0-.484-.218-.844-.235-.375-.594-.609-.375-.234-1-.39-.64-.157-1.297-.157h-.219q.5.313.828.86.313.546.313 1.187 0 1.078-.766 1.813-.781.734-2.047.734-1.312 0-2.109-.766-.797-.78-.797-1.937 0-.828.453-1.516.453-.703 1.297-1.062.828-.36 2.406-.36 1.641 0 2.625.36.97.344 1.485 1.062.5.703.5 1.64 0 1.017-.547 1.657-.563.64-1.578.766m-3.797-4.313q-.906 0-1.438.485-.53.468-.53 1.156 0 .703.577 1.234.563.516 1.485.516.812 0 1.328-.5.515-.5.515-1.219 0-.734-.515-1.203-.516-.469-1.422-.469M238.148 315.981v1.047h-6.719q.36.39.734 1.016.36.61.532 1.094h-1.016q-.422-.875-1-1.532-.594-.672-1.156-.953v-.672zm-4.235-3.031q-1.53 0-2.453-.312-.937-.313-1.437-.922-.5-.625-.5-1.563 0-.687.281-1.203.281-.531.812-.875.516-.344 1.266-.531t2.031-.188q1.516 0 2.438.313.922.297 1.437.922.5.609.5 1.562 0 1.234-.89 1.953-1.063.844-3.485.844m0-1.078q2.11 0 2.813-.5t.703-1.219q0-.734-.703-1.219-.703-.5-2.813-.5-2.125 0-2.812.5-.703.485-.703 1.235 0 .719.61 1.156.78.547 2.905.547M252.817 315.981v1.047H246.1q.359.39.734 1.016.36.61.531 1.093h-1.015q-.422-.875-1-1.53-.594-.673-1.157-.954v-.672zm0-7v1.047H246.1q.359.39.734 1.016.36.61.531 1.093h-1.015q-.422-.875-1-1.53-.594-.673-1.157-.954v-.672zM267.487 315.981v1.047h-6.719q.36.39.735 1.016.359.61.53 1.093h-1.015q-.422-.875-1-1.53-.594-.673-1.156-.954v-.672zm-1.016-8.578h1.016v5.688q-.375 0-.735-.125-.578-.22-1.14-.688-.563-.484-1.297-1.39-1.156-1.407-1.828-1.891-.672-.5-1.266-.5-.625 0-1.047.453-.437.453-.437 1.172 0 .765.453 1.219.453.453 1.266.468l-.11 1.078q-1.219-.109-1.844-.828-.64-.734-.64-1.968 0-1.235.687-1.954t1.704-.718q.515 0 1.015.218.485.204 1.047.704.547.484 1.5 1.609.797.953 1.094 1.234.281.266.562.438zM282.156 315.981v1.047h-6.718q.36.39.734 1.016.36.61.531 1.094h-1.015q-.422-.875-1-1.532-.594-.672-1.157-.953v-.672zm-2.265-3.031-.14-1.062q.89-.172 1.296-.61.39-.437.39-1.062 0-.75-.515-1.266-.516-.516-1.281-.516-.719 0-1.188.485-.484.469-.484 1.203 0 .297.125.75l-.938-.125q.016-.11.016-.172 0-.672-.344-1.203-.359-.547-1.093-.547-.579 0-.954.39-.39.391-.39 1.016 0 .61.39 1.031.391.407 1.157.516l-.188 1.063q-1.047-.188-1.625-.875-.594-.688-.594-1.704 0-.703.313-1.296.297-.594.812-.907.516-.312 1.11-.312.547 0 1.015.297.454.297.72.875.171-.75.734-1.172.546-.422 1.39-.422 1.125 0 1.906.828.782.813.782 2.063 0 1.125-.672 1.875-.688.75-1.75.859M296.826 315.981v1.047h-6.719q.36.39.735 1.016.36.61.53 1.094h-1.015q-.422-.875-1-1.532-.593-.672-1.156-.953v-.672zm0-6.406h-2.062v3.719h-.97l-5.562-3.922v-.86h5.563v-1.156h.969v1.156h2.062zm-3.031 0h-3.86l3.86 2.688zM311.496 315.981v1.047h-6.72q.36.39.735 1.016.36.61.531 1.093h-1.015q-.422-.875-1-1.53-.594-.673-1.156-.954v-.672zm-2.25-3.031-.094-1.11q.812-.124 1.219-.562.406-.453.406-1.094 0-.75-.578-1.28-.578-.532-1.516-.532-.906 0-1.422.515-.531.5-.531 1.329 0 .5.234.921.235.407.594.641l-.125.984-4.406-.828v-4.28h1v3.437l2.312.453q-.546-.766-.546-1.61 0-1.125.78-1.89.782-.782 2.016-.782 1.157 0 2.016.672 1.031.828 1.031 2.25 0 1.172-.656 1.922-.656.735-1.734.844M326.165 315.981v1.047h-6.719q.36.39.735 1.016.36.61.531 1.094h-1.016q-.421-.875-1-1.532-.593-.672-1.156-.953v-.672zm-6.484-8.5.078 1.047q-.625.14-.906.39-.453.438-.453 1.063 0 .5.28.89.376.485 1.079.782.687.281 1.969.297-.578-.375-.86-.922-.28-.562-.28-1.172 0-1.047.78-1.781.782-.75 2-.75.813 0 1.516.36.687.343 1.062.952.36.61.36 1.375 0 1.329-.969 2.157t-3.187.828q-2.5 0-3.625-.922-.985-.797-.985-2.156 0-1.016.578-1.656.563-.657 1.563-.782m3.703 4.297q.547 0 1.047-.219.484-.234.75-.64.265-.422.265-.89 0-.657-.53-1.142-.548-.484-1.47-.484-.89 0-1.406.484-.515.47-.515 1.188 0 .719.515 1.219.516.484 1.344.484M340.835 315.981v1.047h-6.719q.36.39.734 1.016.36.61.532 1.094h-1.016q-.422-.875-1-1.532-.594-.672-1.156-.953v-.672zm-7.469-3.094h-1.016v-5.562h.829q.875.813 2.328 1.625 1.437.797 2.968 1.234 1.079.328 2.36.407v1.093q-1.016-.015-2.453-.39-1.438-.39-2.766-1.094-1.328-.719-2.25-1.531zM355.504 315.981v1.047h-6.718q.359.39.734 1.016.36.61.531 1.093h-1.015q-.422-.875-1-1.53-.594-.673-1.157-.954v-.672zm-4.656-4.656q-.25.656-.687.984-.454.313-1.063.313-.937 0-1.578-.672-.64-.688-.64-1.797 0-1.125.656-1.812t1.593-.688q.594 0 1.032.313.437.312.687.953.25-.797.828-1.203t1.375-.407q1.094 0 1.844.782.75.765.75 2.046 0 1.266-.75 2.047t-1.875.782q-.844 0-1.406-.422-.563-.438-.766-1.219m-1.797.219q.61 0 1-.39.39-.407.39-1.032 0-.61-.374-1-.39-.39-.953-.39-.578 0-.969.405-.406.407-.406 1 0 .61.39 1.016.391.39.922.39m3.969.328q.453 0 .875-.203.422-.219.656-.64.235-.423.235-.907 0-.75-.485-1.235-.484-.5-1.234-.5-.766 0-1.266.5t-.5 1.266q0 .75.5 1.234.485.485 1.219.485M370.174 315.981v1.047h-6.719q.36.39.735 1.016.359.61.53 1.093h-1.015q-.422-.875-1-1.53-.594-.673-1.156-.954v-.672zm-1.984-3.187-.094-1.016q.719-.125 1.047-.484.312-.375.312-.938 0-.484-.219-.844-.234-.375-.593-.609-.375-.234-1-.39-.641-.157-1.297-.157h-.219q.5.313.828.86.313.546.313 1.187 0 1.078-.766 1.813-.781.734-2.047.734-1.312 0-2.11-.766-.796-.78-.796-1.937 0-.828.453-1.516.453-.703 1.297-1.062.828-.36 2.406-.36 1.64 0 2.625.36.969.343 1.485 1.062.5.703.5 1.64 0 1.016-.547 1.657-.563.64-1.578.766m-3.797-4.313q-.907 0-1.438.485-.531.468-.531 1.156 0 .703.578 1.234.563.516 1.484.516.813 0 1.329-.5.515-.5.515-1.219 0-.734-.515-1.203-.516-.469-1.422-.469M383.828 314.403h1.016v5.688q-.375 0-.735-.125-.578-.22-1.14-.688-.563-.484-1.297-1.39-1.157-1.407-1.829-1.891-.671-.5-1.265-.5-.625 0-1.047.453-.437.453-.437 1.172 0 .765.453 1.219.453.453 1.265.468l-.11 1.078q-1.218-.109-1.843-.828-.64-.734-.64-1.968 0-1.235.687-1.954t1.703-.718q.516 0 1.016.219.484.203 1.047.703.546.484 1.5 1.609.796.953 1.093 1.234.282.266.563.438zm-3.219-1.453q-1.531 0-2.453-.312-.937-.313-1.437-.922-.5-.625-.5-1.563 0-.687.28-1.203.282-.531.813-.875.516-.344 1.266-.531t2.031-.188q1.516 0 2.438.313.921.297 1.437.922.5.609.5 1.562 0 1.234-.89 1.953-1.063.844-3.485.844m0-1.078q2.11 0 2.813-.5t.703-1.219q0-.734-.703-1.219-.704-.5-2.813-.5-2.125 0-2.812.5-.704.485-.704 1.235 0 .719.61 1.156.781.547 2.906.547M398.497 314.403h1.016v5.688q-.375 0-.734-.125-.578-.22-1.14-.688-.563-.484-1.298-1.39-1.156-1.407-1.828-1.891-.672-.5-1.266-.5-.625 0-1.046.453-.438.453-.438 1.172 0 .765.453 1.219.453.453 1.266.468l-.11 1.078q-1.218-.109-1.843-.828-.64-.734-.64-1.968 0-1.235.687-1.954t1.703-.718q.515 0 1.015.219.485.203 1.047.703.547.484 1.5 1.609.797.953 1.094 1.234.281.266.562.438zm1.016-5.422v1.047h-6.719q.36.39.735 1.016.36.61.531 1.094h-1.016q-.422-.875-1-1.532-.593-.672-1.156-.953v-.672zM413.167 314.403h1.016v5.688q-.375 0-.735-.125-.578-.22-1.14-.688-.563-.484-1.297-1.39-1.156-1.407-1.828-1.891-.672-.5-1.266-.5-.625 0-1.047.453-.437.453-.437 1.172 0 .765.453 1.219.453.453 1.265.468l-.109 1.078q-1.219-.109-1.844-.828-.64-.734-.64-1.968 0-1.235.687-1.954t1.703-.718q.516 0 1.016.218.484.204 1.047.704.547.484 1.5 1.609.797.953 1.094 1.234.28.266.562.438zm0-7h1.016v5.688q-.375 0-.735-.125-.578-.22-1.14-.688-.563-.484-1.297-1.39-1.156-1.407-1.828-1.891-.672-.5-1.266-.5-.625 0-1.047.453-.437.453-.437 1.172 0 .765.453 1.219.453.453 1.265.468l-.109 1.078q-1.219-.109-1.844-.828-.64-.734-.64-1.968 0-1.235.687-1.954t1.703-.718q.516 0 1.016.218.484.204 1.047.704.547.484 1.5 1.609.797.953 1.094 1.234.28.266.562.438zM427.837 314.403h1.015v5.688q-.375 0-.734-.125-.578-.22-1.14-.688-.563-.484-1.298-1.39-1.156-1.407-1.828-1.891-.672-.5-1.265-.5-.625 0-1.047.453-.438.453-.438 1.172 0 .765.453 1.219.453.453 1.266.468l-.11 1.078q-1.218-.109-1.843-.828-.64-.734-.64-1.968 0-1.235.687-1.954t1.703-.718q.515 0 1.015.218.485.204 1.047.704.547.484 1.5 1.609.797.953 1.094 1.234.281.266.563.438zm-1.25-1.453-.141-1.063q.89-.171 1.297-.609.39-.437.39-1.062 0-.75-.515-1.266-.516-.516-1.281-.516-.72 0-1.188.485-.484.468-.484 1.203 0 .297.125.75l-.938-.125q.016-.11.016-.172 0-.672-.344-1.203-.36-.547-1.094-.547-.578 0-.953.39-.39.391-.39 1.016 0 .61.39 1.031.39.407 1.156.516l-.187 1.063q-1.047-.188-1.625-.875-.594-.688-.594-1.704 0-.703.313-1.296.297-.594.812-.907.516-.312 1.11-.312.546 0 1.015.297.453.297.719.875.172-.75.734-1.172.547-.422 1.391-.422 1.125 0 1.906.828.781.813.781 2.063 0 1.125-.671 1.875-.688.75-1.75.859M442.506 314.403h1.016v5.688q-.375 0-.735-.125-.578-.22-1.14-.688-.563-.484-1.297-1.39-1.156-1.407-1.828-1.891-.672-.5-1.266-.5-.625 0-1.047.453-.437.453-.437 1.172 0 .765.453 1.219.453.453 1.266.468l-.11 1.078q-1.219-.109-1.844-.828-.64-.734-.64-1.968 0-1.235.687-1.954t1.703-.718q.516 0 1.016.219.484.203 1.047.703.547.484 1.5 1.609.797.953 1.094 1.234.28.266.562.438zm1.016-4.828h-2.063v3.719h-.968l-5.563-3.922v-.86h5.563v-1.156h.968v1.156h2.063zm-3.031 0h-3.86l3.86 2.688zM457.176 314.403h1.015v5.688q-.375 0-.734-.125-.578-.22-1.14-.688-.563-.484-1.297-1.39-1.157-1.407-1.829-1.891-.671-.5-1.265-.5-.625 0-1.047.453-.438.453-.438 1.172 0 .765.454 1.219.453.453 1.265.468l-.11 1.078q-1.218-.109-1.843-.828-.64-.734-.64-1.968 0-1.235.687-1.953.687-.72 1.703-.72.516 0 1.016.22.484.203 1.047.703.546.484 1.5 1.609.796.953 1.093 1.234.282.266.563.438zm-1.235-1.453-.093-1.11q.812-.124 1.218-.562.407-.453.407-1.094 0-.75-.578-1.28-.579-.532-1.516-.532-.906 0-1.422.516-.531.5-.531 1.328 0 .5.234.922.235.406.594.64l-.125.985-4.406-.829v-4.28h1v3.437l2.312.453q-.547-.766-.547-1.61 0-1.125.782-1.89.78-.781 2.015-.781 1.156 0 2.016.671 1.031.829 1.031 2.25 0 1.172-.656 1.922-.656.735-1.735.844M471.845 314.403h1.016v5.688q-.375 0-.734-.125-.579-.22-1.141-.688-.562-.484-1.297-1.39-1.156-1.407-1.828-1.891-.672-.5-1.266-.5-.625 0-1.047.453-.437.453-.437 1.172 0 .765.453 1.219.453.453 1.266.468l-.11 1.078q-1.218-.109-1.843-.828-.641-.734-.641-1.968 0-1.235.688-1.954t1.703-.718q.515 0 1.015.218.485.204 1.047.704.547.484 1.5 1.609.797.953 1.094 1.234.281.266.562.438zm-5.468-6.922.078 1.047q-.625.14-.906.39-.454.438-.454 1.063 0 .5.282.89.375.485 1.078.782.687.281 1.969.297-.579-.375-.86-.922-.281-.562-.281-1.172 0-1.047.781-1.781.781-.75 2-.75.813 0 1.516.36.687.343 1.062.952.36.61.36 1.375 0 1.329-.97 2.157-.968.828-3.187.828-2.5 0-3.625-.922-.984-.797-.984-2.156 0-1.016.578-1.657.563-.656 1.563-.78m3.703 4.297q.547 0 1.047-.219.484-.234.75-.64.265-.422.265-.89 0-.657-.531-1.142-.547-.484-1.469-.484-.89 0-1.406.484-.516.47-.516 1.188 0 .719.516 1.219.516.484 1.344.484M486.515 314.403h1.016v5.688q-.375 0-.735-.125-.578-.22-1.14-.688-.563-.484-1.297-1.39-1.157-1.407-1.828-1.891-.672-.5-1.266-.5-.625 0-1.047.453-.437.453-.437 1.172 0 .765.453 1.219.453.453 1.265.468l-.11 1.078q-1.218-.109-1.843-.828-.64-.734-.64-1.968 0-1.235.687-1.954t1.703-.718q.516 0 1.016.219.484.203 1.047.703.547.484 1.5 1.609.797.953 1.093 1.234.282.266.563.438zm-6.453-1.516h-1.016v-5.562h.828q.875.813 2.328 1.625 1.438.797 2.97 1.234 1.077.328 2.359.407v1.093q-1.016-.015-2.454-.39-1.437-.39-2.765-1.094-1.328-.719-2.25-1.531zM501.185 314.403h1.015v5.688q-.375 0-.734-.125-.578-.22-1.14-.688-.563-.484-1.298-1.39-1.156-1.407-1.828-1.891-.672-.5-1.265-.5-.625 0-1.047.453-.438.453-.438 1.172 0 .765.453 1.219.453.453 1.266.468l-.11 1.078q-1.218-.109-1.843-.828-.64-.734-.64-1.968 0-1.235.687-1.954t1.703-.718q.515 0 1.015.218.485.204 1.047.704.547.484 1.5 1.609.797.953 1.094 1.234.281.266.563.438zm-3.641-3.078q-.25.656-.688.984-.453.313-1.062.313-.938 0-1.578-.672-.64-.688-.64-1.797 0-1.125.655-1.812.657-.688 1.594-.688.594 0 1.031.313.438.312.688.953.25-.797.828-1.203t1.375-.407q1.094 0 1.844.782.75.765.75 2.046 0 1.266-.75 2.047t-1.875.782q-.844 0-1.406-.422-.563-.438-.766-1.219m-1.797.219q.61 0 1-.39.39-.407.39-1.032 0-.61-.374-1-.391-.39-.953-.39-.579 0-.97.405-.405.407-.405 1 0 .61.39 1.016.39.39.922.39m3.969.328q.453 0 .875-.203.422-.219.656-.64.234-.423.234-.907 0-.75-.484-1.235-.484-.5-1.234-.5-.766 0-1.266.5t-.5 1.266q0 .75.5 1.234.484.485 1.219.485M515.854 314.403h1.016v5.688q-.375 0-.735-.125-.578-.22-1.14-.688-.563-.484-1.297-1.39-1.156-1.407-1.828-1.891-.672-.5-1.266-.5-.625 0-1.047.453-.437.453-.437 1.172 0 .765.453 1.219.453.453 1.265.468l-.109 1.078q-1.219-.109-1.844-.828-.64-.734-.64-1.968 0-1.235.687-1.954t1.703-.718q.516 0 1.016.218.484.204 1.047.704.547.484 1.5 1.609.797.953 1.094 1.234.28.266.562.438zm-.969-1.61-.093-1.015q.718-.125 1.046-.484.313-.375.313-.938 0-.484-.219-.844-.234-.375-.594-.609-.375-.234-1-.39-.64-.157-1.296-.157h-.22q.5.313.829.86.312.546.312 1.187 0 1.078-.765 1.813-.781.734-2.047.734-1.313 0-2.11-.766-.796-.78-.796-1.937 0-.828.453-1.516.453-.703 1.297-1.062.828-.36 2.406-.36 1.64 0 2.625.36.969.343 1.484 1.062.5.703.5 1.64 0 1.016-.547 1.657-.562.64-1.578.766m-3.797-4.312q-.906 0-1.437.485-.531.468-.531 1.156 0 .703.578 1.234.562.516 1.484.516.813 0 1.328-.5t.516-1.219q0-.734-.516-1.203-.515-.469-1.422-.469M529.274 319.95l-.14-1.062q.89-.172 1.296-.61.39-.437.39-1.062 0-.75-.515-1.266-.516-.516-1.281-.516-.72 0-1.188.485-.484.469-.484 1.203 0 .297.125.75l-.938-.125q.016-.11.016-.172 0-.672-.344-1.203-.36-.547-1.094-.547-.578 0-.953.39-.39.391-.39 1.016 0 .61.39 1.031.39.407 1.157.516l-.188 1.063q-1.047-.188-1.625-.875-.594-.688-.594-1.704 0-.703.313-1.296.297-.594.812-.907.516-.312 1.11-.312.547 0 1.015.297.453.297.72.875.17-.75.733-1.172.547-.422 1.391-.422 1.125 0 1.906.828.782.813.782 2.063 0 1.125-.672 1.875-.688.75-1.75.859m-1.97-7q-1.53 0-2.452-.312-.938-.313-1.438-.922-.5-.625-.5-1.563 0-.687.282-1.203.28-.531.812-.875.516-.344 1.266-.531t2.03-.188q1.517 0 2.438.313.922.297 1.438.922.5.609.5 1.562 0 1.234-.89 1.953-1.063.844-3.485.844m0-1.078q2.11 0 2.813-.5t.704-1.219q0-.734-.704-1.219-.703-.5-2.812-.5-2.125 0-2.813.5-.703.485-.703 1.235 0 .719.61 1.156.78.547 2.906.547M543.943 319.95l-.14-1.063q.89-.171 1.297-.609.39-.437.39-1.062 0-.75-.515-1.266-.516-.516-1.282-.516-.718 0-1.187.485-.485.468-.485 1.203 0 .297.125.75l-.937-.125q.016-.11.016-.172 0-.672-.344-1.203-.36-.547-1.094-.547-.578 0-.953.39-.39.391-.39 1.016 0 .61.39 1.031.39.407 1.156.516l-.187 1.063q-1.047-.188-1.625-.875-.594-.688-.594-1.704 0-.703.312-1.296.297-.594.813-.907.516-.312 1.11-.312.546 0 1.015.297.453.297.719.875.172-.75.734-1.172.547-.422 1.39-.422 1.126 0 1.907.828.781.813.781 2.063 0 1.125-.672 1.875-.687.75-1.75.859m2.266-10.969v1.047h-6.719q.36.39.735 1.016.359.61.53 1.093h-1.015q-.422-.875-1-1.53-.594-.673-1.156-.954v-.672zM558.613 319.95l-.14-1.062q.89-.172 1.296-.61.39-.437.39-1.062 0-.75-.515-1.266-.516-.516-1.281-.516-.719 0-1.188.485-.484.469-.484 1.203 0 .297.125.75l-.938-.125q.016-.11.016-.172 0-.672-.344-1.203-.36-.547-1.093-.547-.579 0-.954.39-.39.391-.39 1.016 0 .61.39 1.031.391.407 1.157.516l-.188 1.063q-1.047-.188-1.625-.875-.594-.688-.594-1.704 0-.703.313-1.296.297-.594.812-.907.516-.312 1.11-.312.547 0 1.015.297.454.297.72.875.171-.75.734-1.172.546-.422 1.39-.422 1.125 0 1.906.828.782.813.782 2.063 0 1.125-.672 1.875-.688.75-1.75.859m1.25-12.547h1.015v5.688q-.375 0-.734-.125-.578-.22-1.14-.688-.563-.484-1.297-1.39-1.157-1.407-1.829-1.891-.671-.5-1.265-.5-.625 0-1.047.453-.438.453-.438 1.172 0 .765.454 1.219.453.453 1.265.468l-.11 1.078q-1.218-.109-1.843-.828-.64-.734-.64-1.968 0-1.235.687-1.954t1.703-.718q.516 0 1.016.219.484.203 1.047.703.546.484 1.5 1.609.796.953 1.093 1.234.282.266.563.438zM573.282 319.95l-.14-1.062q.89-.172 1.297-.61.39-.437.39-1.062 0-.75-.515-1.266-.516-.516-1.282-.516-.718 0-1.187.485-.484.469-.484 1.203 0 .297.125.75l-.938-.125q.016-.11.016-.172 0-.672-.344-1.203-.36-.547-1.094-.547-.578 0-.953.39-.39.391-.39 1.016 0 .61.39 1.031.39.407 1.156.516l-.187 1.063q-1.047-.188-1.625-.875-.594-.688-.594-1.704 0-.703.313-1.296.296-.594.812-.907.516-.312 1.11-.312.546 0 1.015.297.453.297.719.875.172-.75.734-1.172.547-.422 1.39-.422 1.126 0 1.907.828.781.813.781 2.063 0 1.125-.672 1.875-.687.75-1.75.859m0-7-.14-1.062q.89-.172 1.297-.61.39-.437.39-1.062 0-.75-.515-1.266-.516-.516-1.282-.516-.718 0-1.187.485-.484.469-.484 1.203 0 .297.125.75l-.938-.125q.016-.11.016-.172 0-.672-.344-1.203-.36-.547-1.094-.547-.578 0-.953.39-.39.391-.39 1.016 0 .61.39 1.031.39.407 1.156.516l-.187 1.063q-1.047-.188-1.625-.875-.594-.688-.594-1.704 0-.703.313-1.296.296-.594.812-.907.516-.312 1.11-.312.546 0 1.015.297.453.297.719.875.172-.75.734-1.172.547-.422 1.39-.422 1.126 0 1.907.828.781.813.781 2.063 0 1.125-.672 1.875-.687.75-1.75.859"/></svg>