<svg xmlns="http://www.w3.org/2000/svg" width="220" height="164" fill="none" stroke-linecap="square" stroke-miterlimit="10"><path fill="#fff" fill-rule="evenodd" d="M.5.5h218.866v162.362H.5Z"/><path stroke="#595959" stroke-linecap="butt" stroke-linejoin="round" d="M.5.5h218.866v162.362H.5Z"/><path fill="#000" d="M36.182 20.92q0-3.328 1.782-5.203 1.78-1.89 4.61-1.89 1.843 0 3.327.89 1.485.875 2.266 2.469.781 1.578.781 3.578 0 2.031-.828 3.64-.813 1.594-2.313 2.422t-3.25.828q-1.875 0-3.359-.906-1.484-.922-2.25-2.5t-.766-3.328m1.813.016q0 2.421 1.297 3.812 1.297 1.39 3.265 1.39 2 0 3.282-1.406 1.28-1.406 1.28-3.984 0-1.625-.546-2.844-.547-1.218-1.61-1.875-1.062-.672-2.374-.672-1.89 0-3.25 1.297-1.344 1.282-1.344 4.282m13.027 10.187V17.748h1.484v1.25q.532-.734 1.188-1.094.672-.375 1.625-.375 1.234 0 2.172.641.953.625 1.437 1.797.485 1.156.485 2.547 0 1.484-.532 2.672-.53 1.187-1.546 1.828-1.016.625-2.141.625-.813 0-1.469-.344t-1.062-.875v4.703zm1.484-8.484q0 1.86.75 2.765.766.891 1.829.891 1.093 0 1.875-.922.78-.937.78-2.875 0-1.844-.765-2.766-.75-.921-1.812-.921-1.047 0-1.86.984-.797.969-.797 2.844m15.517 1.672 1.687.203q-.406 1.484-1.484 2.312-1.078.813-2.766.813-2.125 0-3.375-1.297-1.234-1.313-1.234-3.672 0-2.453 1.25-3.797 1.265-1.344 3.265-1.344 1.938 0 3.157 1.328 1.234 1.313 1.234 3.704v.437h-7.219q.094 1.594.907 2.453.812.844 2.015.844.906 0 1.547-.469.64-.484 1.016-1.515m-5.39-2.657h5.405q-.109-1.218-.625-1.828-.78-.953-2.03-.953-1.126 0-1.907.766-.766.75-.844 2.015m9.125 5.766v-9.672h1.469v1.469q.562-1.031 1.03-1.36.485-.328 1.063-.328.828 0 1.688.532l-.563 1.515q-.61-.36-1.203-.36-.547 0-.969.329-.421.328-.609.89-.281.876-.281 1.922v5.063zm12.54-1.188q-.921.766-1.765 1.094-.828.313-1.797.313-1.594 0-2.453-.782-.86-.78-.86-1.984 0-.719.329-1.297.328-.594.844-.937.53-.36 1.187-.547.469-.125 1.453-.25 1.985-.235 2.922-.563.016-.343.016-.422 0-1-.47-1.421-.624-.547-1.874-.547-1.156 0-1.703.406t-.813 1.422l-1.61-.219q.22-1.016.72-1.64.5-.641 1.453-.985t2.187-.344q1.25 0 2.016.297.781.281 1.14.735.376.437.516 1.109.078.422.078 1.516v2.187q0 2.281.11 2.89.109.594.406 1.157h-1.703q-.266-.516-.328-1.188m-.14-3.671q-.89.375-2.672.625-1.015.14-1.437.328-.422.187-.657.531-.218.344-.218.781 0 .656.5 1.094.5.437 1.453.437.937 0 1.672-.406.75-.422 1.093-1.14.266-.563.266-1.641zm7.782 3.39.234 1.453q-.687.141-1.234.141-.89 0-1.39-.281-.485-.282-.688-.735-.203-.468-.203-1.937v-5.578h-1.203v-1.266h1.203v-2.39l1.625-.985v3.375h1.656v1.266h-1.656v5.672q0 .687.078.89.094.203.281.328.203.11.578.11.266 0 .719-.063m1.605-10v-1.89h1.64v1.89zm0 11.469v-9.672h1.64v9.672zm4.145 0v-9.672h1.469v1.375q1.062-1.594 3.078-1.594.875 0 1.61.313.734.312 1.093.828.375.5.516 1.203.093.453.093 1.594v5.953h-1.64v-5.89q0-1-.203-1.485-.188-.5-.672-.797t-1.141-.297q-1.047 0-1.812.672-.75.656-.75 2.516v5.281zm10.063.797 1.594.234q.11.75.562 1.078.61.453 1.672.453 1.14 0 1.75-.453.625-.453.844-1.265.125-.5.11-2.11-1.063 1.266-2.672 1.266-2 0-3.094-1.438t-1.094-3.453q0-1.39.5-2.562.516-1.172 1.453-1.797.953-.64 2.25-.64 1.703 0 2.813 1.374v-1.156h1.515v8.36q0 2.265-.468 3.203-.454.937-1.454 1.484-.984.547-2.453.547-1.718 0-2.797-.781-1.062-.766-1.03-2.344m1.36-5.813q0 1.907.75 2.782.765.875 1.906.875 1.125 0 1.89-.86.766-.875.766-2.734 0-1.781-.797-2.672-.781-.906-1.89-.906-1.094 0-1.86.89-.765.875-.765 2.625m14.121.72 1.656-.142q.125 1 .547 1.641.438.64 1.344 1.047.922.39 2.062.39 1 0 1.782-.296.781-.297 1.156-.813.375-.531.375-1.156t-.375-1.094q-.36-.469-1.188-.797-.546-.203-2.39-.64-1.828-.453-2.563-.844-.968-.5-1.437-1.234-.469-.75-.469-1.672 0-1 .578-1.875.578-.89 1.672-1.344 1.11-.453 2.453-.453 1.485 0 2.61.484 1.14.469 1.75 1.406.609.922.656 2.094l-1.688.125q-.14-1.265-.937-1.906-.781-.656-2.313-.656-1.609 0-2.343.593-.735.594-.735 1.422 0 .72.531 1.172.5.469 2.657.969 2.156.484 2.953.844 1.172.531 1.719 1.36.562.827.562 1.905 0 1.063-.61 2.016-.609.937-1.75 1.469-1.14.515-2.577.515-1.813 0-3.047-.53-1.219-.532-1.922-1.595-.688-1.062-.719-2.406m12.756 8.015-.187-1.532q.547.141.937.141.547 0 .875-.187.328-.172.547-.5.156-.25.5-1.22.047-.14.14-.405l-3.671-9.688h1.765l2.016 5.594q.39 1.078.703 2.25.281-1.125.672-2.203l2.078-5.64h1.64l-3.687 9.827q-.593 1.61-.922 2.203-.437.813-1 1.188t-1.343.375q-.485 0-1.063-.203m8.75-6.61 1.625-.25q.125.97.75 1.5.625.516 1.75.516t1.672-.453q.547-.469.547-1.094 0-.547-.484-.875-.329-.219-1.672-.547-1.813-.469-2.516-.797-.687-.328-1.047-.906-.36-.594-.36-1.312 0-.641.298-1.188.297-.562.812-.922.375-.281 1.031-.469.672-.203 1.422-.203 1.14 0 2 .328.86.329 1.266.891.422.563.578 1.5l-1.61.219q-.109-.75-.64-1.172-.516-.422-1.469-.422-1.14 0-1.625.375-.468.375-.468.875 0 .313.187.578.203.266.64.438.235.093 1.438.422 1.75.453 2.438.75.687.296 1.078.859.39.562.39 1.406 0 .828-.484 1.547-.469.719-1.375 1.125-.906.39-2.047.39-1.875 0-2.875-.78-.984-.782-1.25-2.329m13.563 1.422.234 1.453q-.687.141-1.234.141-.89 0-1.39-.281-.485-.282-.688-.735-.204-.468-.204-1.937v-5.578h-1.203v-1.266h1.203v-2.39l1.625-.985v3.375h1.657v1.266h-1.657v5.672q0 .687.079.89.093.203.28.328.204.11.579.11.266 0 .719-.063m8.23-1.64 1.687.203q-.406 1.484-1.484 2.312-1.078.813-2.766.813-2.125 0-3.375-1.297-1.234-1.313-1.234-3.672 0-2.453 1.25-3.797 1.266-1.344 3.266-1.344 1.937 0 3.156 1.328 1.234 1.313 1.234 3.704v.437h-7.219q.094 1.594.907 2.453.812.844 2.015.844.907 0 1.547-.469.64-.484 1.016-1.515m-5.39-2.657h5.405q-.109-1.218-.625-1.828-.78-.953-2.03-.953-1.126 0-1.907.766-.766.75-.844 2.015m9.14 5.766v-9.672h1.47v1.36q.452-.72 1.202-1.141.766-.438 1.72-.438 1.077 0 1.765.453.687.438.969 1.235 1.156-1.688 2.984-1.688 1.453 0 2.219.797.78.797.78 2.453v6.641h-1.64v-6.094q0-.984-.156-1.406-.156-.438-.578-.703-.422-.266-.984-.266-1.016 0-1.688.688-.672.672-.672 2.156v5.625h-1.64v-6.281q0-1.094-.407-1.64-.406-.548-1.312-.548-.688 0-1.281.36-.594.359-.86 1.062-.25.703-.25 2.031v5.016z"/><path fill="#d9ead3" fill-rule="evenodd" d="M18.382 46.274h181.67v95.118H18.381Z"/><path stroke="#595959" stroke-linecap="butt" stroke-linejoin="round" d="M18.382 46.274h181.67v95.118H18.381Z"/><path fill="#000" d="M79.01 100.753V87.394h1.813l7.015 10.484V87.394h1.688v13.36h-1.813l-7.015-10.5v10.5zm12.676-4.843q0-2.688 1.485-3.97 1.25-1.077 3.047-1.077 2 0 3.265 1.312 1.266 1.297 1.266 3.61 0 1.859-.563 2.937-.562 1.063-1.64 1.656-1.063.594-2.328.594-2.032 0-3.282-1.297-1.25-1.312-1.25-3.765m1.688 0q0 1.859.797 2.796.812.922 2.047.922 1.218 0 2.03-.922.813-.937.813-2.843 0-1.797-.812-2.719t-2.031-.922q-1.235 0-2.047.922-.797.906-.797 2.766m15.563 4.843v-1.218q-.906 1.437-2.703 1.437-1.156 0-2.125-.64-.969-.641-1.5-1.782-.531-1.14-.531-2.625 0-1.453.484-2.625.484-1.187 1.438-1.812.968-.625 2.171-.625.875 0 1.547.375.688.36 1.11.953v-4.797h1.64v13.36zm-5.172-4.828q0 1.86.781 2.781.782.922 1.844.922 1.078 0 1.828-.875.75-.89.75-2.687 0-1.985-.765-2.906-.766-.938-1.89-.938-1.08 0-1.813.89-.735.891-.735 2.813m15.907 1.719 1.688.203q-.407 1.484-1.485 2.313-1.078.812-2.765.812-2.125 0-3.375-1.297-1.235-1.312-1.235-3.672 0-2.453 1.25-3.797 1.266-1.343 3.266-1.343 1.937 0 3.156 1.328 1.234 1.312 1.234 3.703v.437h-7.218q.093 1.594.906 2.454.812.843 2.016.843.906 0 1.546-.468.641-.485 1.016-1.516m-5.39-2.656h5.406q-.11-1.219-.625-1.828-.782-.954-2.032-.954-1.125 0-1.906.766-.765.75-.844 2.016m9.594 5.765v-1.875h1.875v1.875zM128.59 89.3v-1.906h1.641V89.3zm-2.078 15.203.313-1.39q.5.125.781.125.5 0 .734-.328.25-.329.25-1.672V91.08h1.641v10.204q0 1.78-.469 2.484-.593.906-1.968.906-.657 0-1.282-.172m5.583-6.64 1.625-.25q.125.968.75 1.5.625.515 1.75.515t1.672-.453q.546-.469.546-1.094 0-.546-.484-.875-.328-.218-1.672-.546-1.812-.47-2.515-.797-.688-.328-1.047-.907-.36-.593-.36-1.312 0-.64.297-1.188.297-.562.813-.921.375-.282 1.031-.47.672-.202 1.422-.202 1.14 0 2 .328t1.265.89q.422.563.579 1.5l-1.61.22q-.11-.75-.64-1.173-.516-.422-1.47-.422-1.14 0-1.624.375-.469.375-.469.875 0 .313.188.579.203.265.64.437.235.094 1.438.422 1.75.453 2.437.75.688.297 1.078.86t.391 1.406q0 .828-.484 1.546-.47.72-1.375 1.125-.907.391-2.047.391-1.875 0-2.875-.781-.985-.781-1.25-2.328"/></svg>